<svg width="439" height="87" viewBox="0 0 439 87" fill="none" xmlns="http://www.w3.org/2000/svg">
<g clip-path="url(#clip0)">
<path d="M119.166 32.3388V27.4165C119.166 23.6216 117.818 22.3394 113.834 22.3394H112.005C108.072 22.3394 106.672 23.6732 106.672 27.4165V32.3388C106.672 36.0907 108.063 37.4159 112.005 37.4159H113.834C115.543 37.4159 116.556 37.304 117.208 36.7275L118.127 37.6655L119.347 36.4177L118.471 35.54C119.055 34.8429 119.166 33.8705 119.166 32.3388ZM113.293 32.8035L115.981 35.4969C115.577 35.6432 114.83 35.6776 113.722 35.6776H112.468C111.008 35.6776 110.072 35.6432 109.308 34.9892C108.621 34.3954 108.578 33.4489 108.578 31.9515V27.8468C108.578 26.3408 108.63 25.377 109.308 24.7919C110.072 24.1379 111.008 24.1035 112.477 24.1035H113.37C114.847 24.1035 115.783 24.1379 116.539 24.7747C117.226 25.3684 117.277 26.3667 117.277 27.8296V32.2957C117.277 33.2251 117.226 33.8533 117.174 34.2578L114.495 31.6073L113.293 32.8035ZM132.743 22.5201H134.589V32.3388C134.589 36.0907 133.267 37.4159 129.523 37.4159H127.771C124.027 37.4159 122.704 36.0907 122.704 32.3388V22.5201H124.551V32.1408C124.551 33.4919 124.585 34.3524 125.186 34.9032C125.822 35.4797 126.629 35.5141 127.891 35.5141H129.402C130.682 35.5141 131.498 35.4883 132.125 34.9118C132.709 34.3782 132.743 33.5177 132.743 32.1494V22.5201ZM139.51 33.5349H146.663L148.037 37.2438H149.943L144.482 22.5201H141.691L136.255 37.2438H138.162L139.51 33.5349ZM143.254 24.2928L146.053 31.8655H140.128L142.902 24.2928H143.254ZM161.966 37.2438L154.314 24.594V37.2438H152.485V22.5201H155.139L162.79 35.1441V22.5201H164.619V37.2438H161.966ZM177.878 24.2928H173.266V37.2438H171.42V24.2928H166.826V22.5201H177.878V24.2928ZM179.922 32.3388V22.5201H181.768V32.1408C181.768 33.4919 181.802 34.3524 182.403 34.9032C183.039 35.4797 183.846 35.5141 185.108 35.5141H186.62C187.899 35.5141 188.715 35.4883 189.342 34.9118C189.926 34.3782 189.96 33.5177 189.96 32.1494V22.5201H191.806V32.3388C191.806 36.0907 190.484 37.4159 186.74 37.4159H184.988C181.253 37.4245 179.922 36.0907 179.922 32.3388ZM207.959 22.5201H210.801V37.2438H208.972V24.637L204.181 37.2438H202.051L197.259 24.637V37.2438H195.43V22.5201H198.255L203.124 35.2216L207.959 22.5201ZM227.04 37.4245C223.399 37.4245 222.111 36.0993 222.111 32.3474V27.4251C222.111 23.6732 223.399 22.348 227.04 22.348H228.732C232.338 22.348 233.687 23.5011 233.687 26.5904V27.3477H231.797V26.8313C231.797 24.6886 231.11 24.1035 228.612 24.1035H227.495C226.259 24.1035 225.331 24.1551 224.67 24.7661C224.026 25.377 223.992 26.2806 223.992 27.8296V31.9515C223.992 33.5005 224.026 34.404 224.67 35.015C225.34 35.6518 226.181 35.6776 227.495 35.6776H228.612C231.188 35.6776 231.815 35.1011 231.815 32.7432C231.815 32.5281 231.815 32.2957 231.797 32.0548L231.789 31.9257H233.687V33.0014C233.687 36.3058 232.433 37.4245 228.732 37.4245H227.04ZM243.742 22.3394H241.913C237.98 22.3394 236.589 23.6732 236.589 27.4165V32.3388C236.589 36.0907 237.98 37.4159 241.913 37.4159H243.742C247.675 37.4159 249.075 36.0907 249.075 32.3388V27.4165C249.075 23.6216 247.727 22.3394 243.742 22.3394ZM247.169 27.821V31.9429C247.169 33.4402 247.134 34.3954 246.456 34.9806C245.692 35.6346 244.747 35.669 243.27 35.669H242.377C240.917 35.669 239.981 35.6346 239.217 34.9806C238.53 34.3868 238.478 33.4402 238.478 31.9429V27.8382C238.478 26.3322 238.53 25.3684 239.217 24.7833C239.981 24.1293 240.917 24.0948 242.377 24.0948H243.27C244.747 24.0948 245.683 24.1293 246.439 24.7661C247.117 25.3512 247.169 26.3581 247.169 27.821ZM259.371 37.2438L254.58 24.637V37.2438H252.75V22.5201H255.576L260.445 35.2216L265.271 22.5201H268.113V37.2438H266.284V24.637L261.492 37.2438H259.371ZM273.703 31.6245H278.083C281.406 31.6245 282.48 30.7812 282.48 28.1394V25.945C282.48 23.3806 281.372 22.5201 278.083 22.5201H271.883V37.2438H273.712V31.6245H273.703ZM273.703 24.2928H278.057C279.972 24.2928 280.565 24.5337 280.565 26.0052V28.1394C280.565 29.5937 279.912 29.8518 278.057 29.8518H273.703V24.2928ZM292.106 37.4245H290.354C286.61 37.4245 285.288 36.0993 285.288 32.3474V22.5201H287.134V32.1408C287.134 33.4919 287.168 34.3524 287.769 34.9032C288.405 35.4797 289.212 35.5141 290.474 35.5141H291.986C293.265 35.5141 294.081 35.4883 294.708 34.9118C295.292 34.3782 295.326 33.5177 295.326 32.1494V22.5201H297.173V32.3388C297.173 36.0907 295.85 37.4245 292.106 37.4245ZM310.277 24.2928H305.665V37.2438H303.819V24.2928H299.225V22.5201H310.277V24.2928ZM323.707 37.2438L318.246 22.5201H315.455L310.019 37.2438H311.926L313.282 33.5349H320.436L321.81 37.2438H323.707ZM317.035 24.2928L319.834 31.8655H313.909L316.683 24.2928H317.035ZM323.441 22.5201H334.493V24.2928H329.882V37.2438H328.035V24.2928H323.441V22.5201ZM338.924 37.2438H337.078V22.5201H338.924V37.2438ZM354.716 32.3388V27.4165C354.716 23.6216 353.368 22.3394 349.383 22.3394H347.554C343.621 22.3394 342.222 23.6732 342.222 27.4165V32.3388C342.222 36.0907 343.613 37.4159 347.554 37.4159H349.383C353.316 37.4245 354.716 36.0907 354.716 32.3388ZM352.801 27.821V31.9429C352.801 33.4489 352.767 34.3954 352.088 34.9806C351.324 35.6346 350.379 35.669 348.902 35.669H348.009C346.541 35.669 345.614 35.6346 344.841 34.9806C344.154 34.3868 344.111 33.4402 344.111 31.9429V27.8382C344.111 26.3322 344.162 25.3684 344.841 24.7833C345.605 24.1293 346.541 24.0948 348.009 24.0948H348.902C350.379 24.0948 351.315 24.1293 352.071 24.7661C352.758 25.3512 352.801 26.3581 352.801 27.821ZM370.122 37.2438H367.468L367.434 37.1836L359.817 24.594V37.2438H357.988V22.5201H360.641L360.676 22.5803L368.293 35.1527V22.5201H370.122V37.2438ZM118.248 48.9213V49.6785H116.358V49.1622C116.358 47.0195 115.671 46.4343 113.172 46.4343H112.056C110.82 46.4343 109.892 46.4773 109.231 47.0969C108.587 47.7079 108.552 48.6115 108.552 50.1604V54.2824C108.552 55.8313 108.587 56.7349 109.231 57.3459C109.901 57.9741 110.742 58.0085 112.056 58.0085H113.172C115.749 58.0085 116.376 57.4319 116.376 55.0827C116.376 54.8675 116.376 54.6266 116.358 54.3943L116.35 54.2652H118.248V55.3408C118.248 58.6453 117.002 59.764 113.293 59.764H111.601C107.96 59.764 106.672 58.4388 106.672 54.6868V49.7646C106.672 46.0127 107.96 44.6874 111.601 44.6874H113.293C116.908 44.6788 118.248 45.8319 118.248 48.9213ZM128.312 44.6788H126.483C122.55 44.6788 121.15 46.0127 121.15 49.756V54.6782C121.15 58.4302 122.541 59.7554 126.483 59.7554H128.312C132.245 59.7554 133.645 58.4302 133.645 54.6782V49.756C133.636 45.961 132.296 44.6788 128.312 44.6788ZM131.73 50.1604V54.2824C131.73 55.7797 131.695 56.7349 131.017 57.3201C130.253 57.9741 129.308 58.0085 127.831 58.0085H126.938C125.478 58.0085 124.542 57.9741 123.778 57.3201C123.091 56.7263 123.048 55.7797 123.048 54.2824V50.1776C123.048 48.6717 123.099 47.7079 123.778 47.1227C124.542 46.4687 125.478 46.4343 126.946 46.4343H127.84C129.317 46.4343 130.253 46.4687 131.008 47.1055C131.678 47.6907 131.73 48.6975 131.73 50.1604ZM149.445 44.8595H152.288V59.5833H150.459V46.9764L145.667 59.5833H143.537L138.745 46.9764V59.5833H136.916V44.8595H139.742L144.611 57.561L149.445 44.8595ZM168.569 44.8595H171.412V59.5833H169.582V46.9764L164.791 59.5833H162.661L157.869 46.9764V59.5833H156.04V44.8595H158.865L163.734 57.561L168.569 44.8595ZM185.074 44.8595H186.92V54.6868C186.92 58.4388 185.598 59.764 181.854 59.764H180.102C176.358 59.764 175.035 58.4388 175.035 54.6868V44.8595H176.882V54.4803C176.882 55.8313 176.916 56.6919 177.517 57.2426C178.153 57.8192 178.96 57.845 180.222 57.845H181.733C183.013 57.845 183.829 57.8192 184.456 57.2426C185.04 56.7091 185.074 55.8486 185.074 54.4803V44.8595ZM200.84 44.8595H202.669V59.5833H200.016L192.365 46.9334V59.5833H190.535V44.8595H193.189L200.84 57.4836V44.8595ZM206.044 44.8595H207.89V59.5833H206.044V44.8595ZM222.772 48.9213V49.6785H220.883V49.1622C220.883 47.0195 220.196 46.4343 217.697 46.4343H216.581C215.344 46.4343 214.417 46.4773 213.756 47.0969C213.111 47.7079 213.077 48.6115 213.077 50.1604V54.2824C213.077 55.8313 213.111 56.7349 213.756 57.3459C214.425 57.9741 215.267 58.0085 216.581 58.0085H217.697C220.273 58.0085 220.9 57.4319 220.9 55.0827C220.9 54.8675 220.9 54.6266 220.883 54.3943L220.874 54.2652H222.772V55.3408C222.772 58.6453 221.527 59.764 217.817 59.764H216.126C212.485 59.764 211.197 58.4388 211.197 54.6868V49.7646C211.197 46.0127 212.485 44.6874 216.126 44.6874H217.817C221.424 44.6788 222.772 45.8319 222.772 48.9213ZM230.003 44.8595L224.567 59.5833H226.473L227.83 55.8744H234.983L236.357 59.5833H238.264L232.811 44.8595H230.003ZM231.574 46.6322L234.374 54.2049H228.448L231.222 46.6322H231.574ZM237.98 44.8595H249.032V46.6322H244.421V59.5833H242.575V46.6322H237.98V44.8595ZM251.617 44.8595H253.463V59.5833H251.617V44.8595ZM263.923 44.6788H262.093C258.16 44.6788 256.769 46.0127 256.769 49.756V54.6782C256.769 58.4302 258.16 59.7554 262.093 59.7554H263.923C267.856 59.7554 269.255 58.4302 269.255 54.6782V49.756C269.255 45.961 267.907 44.6788 263.923 44.6788ZM267.349 50.1604V54.2824C267.349 55.7797 267.315 56.7349 266.636 57.3201C265.872 57.9741 264.927 58.0085 263.45 58.0085H262.557C261.097 58.0085 260.161 57.9741 259.397 57.3201C258.71 56.7263 258.659 55.7797 258.659 54.2824V50.1776C258.659 48.6717 258.71 47.7079 259.397 47.1227C260.161 46.4687 261.097 46.4343 262.557 46.4343H263.45C264.927 46.4343 265.863 46.4687 266.619 47.1055C267.297 47.6907 267.349 48.6975 267.349 50.1604ZM282.832 44.8595H284.661V59.5833H282.007L274.356 46.9334V59.5833H272.527V44.8595H275.18L282.832 57.4836V44.8595ZM294.485 44.8595H305.537V46.6322H300.925V59.5833H299.079V46.6322H294.485V44.8595ZM308.121 44.8595H318.495V46.6322H309.942V51.1414H318.254V52.8539H309.942V57.8364H318.495V59.5919H308.121V44.8595ZM333.231 48.9213V49.6785H331.341V49.1622C331.341 47.0195 330.654 46.4343 328.156 46.4343H327.039C325.803 46.4343 324.875 46.4773 324.214 47.0969C323.57 47.7079 323.536 48.6115 323.536 50.1604V54.2824C323.536 55.8313 323.57 56.7349 324.214 57.3459C324.884 57.9741 325.725 58.0085 327.039 58.0085H328.156C330.732 58.0085 331.359 57.4319 331.359 55.0827C331.359 54.8675 331.359 54.6266 331.341 54.3943L331.333 54.2652H333.231V55.3408C333.231 58.6453 331.985 59.764 328.284 59.764H326.593C322.952 59.764 321.664 58.4388 321.664 54.6868V49.7646C321.664 46.0127 322.952 44.6874 326.593 44.6874H328.284C331.891 44.6788 333.231 45.8319 333.231 48.9213ZM346.515 44.8595H348.344V59.5833H346.515V52.8711H338.417V59.5833H336.588V44.8595H338.417V51.1156H346.515V44.8595ZM362.402 44.8595H364.231V59.5833H361.577L361.543 59.523L353.926 46.9334V59.5833H352.097V44.8595H354.75L354.785 44.9198L362.402 57.4922V44.8595ZM374.707 44.6788H372.878C368.945 44.6788 367.554 46.0127 367.554 49.756V54.6782C367.554 58.4302 368.945 59.7554 372.878 59.7554H374.707C378.64 59.7554 380.04 58.4302 380.04 54.6782V49.756C380.031 45.961 378.692 44.6788 374.707 44.6788ZM378.125 50.1604V54.2824C378.125 55.7797 378.091 56.7349 377.412 57.3201C376.648 57.9741 375.703 58.0085 374.226 58.0085H373.333C371.874 58.0085 370.938 57.9741 370.173 57.3201C369.486 56.7263 369.435 55.7797 369.435 54.2824V50.1776C369.435 48.6717 369.486 47.7079 370.173 47.1227C370.938 46.4687 371.874 46.4343 373.333 46.4343H374.226C375.703 46.4343 376.639 46.4687 377.387 47.1055C378.074 47.6907 378.125 48.6975 378.125 50.1604ZM385.124 57.8364H393.316V59.5919H383.312V44.8595H385.124V57.8364ZM402.779 44.6788H400.95C397.017 44.6788 395.626 46.0127 395.626 49.756V54.6782C395.626 58.4302 397.017 59.7554 400.95 59.7554H402.779C406.712 59.7554 408.112 58.4302 408.112 54.6782V49.756C408.112 45.961 406.764 44.6788 402.779 44.6788ZM406.197 50.1604V54.2824C406.197 55.7797 406.163 56.7349 405.484 57.3201C404.72 57.9741 403.775 58.0085 402.298 58.0085H401.405C399.945 58.0085 399.009 57.9741 398.245 57.3201C397.558 56.7263 397.507 55.7797 397.507 54.2824V50.1776C397.507 48.6717 397.558 47.7079 398.245 47.1227C399.009 46.4687 399.945 46.4343 401.405 46.4343H402.298C403.775 46.4343 404.711 46.4687 405.458 47.1055C406.145 47.6907 406.197 48.6975 406.197 50.1604ZM423.32 48.5426V49.2827H421.431V48.9815C421.431 47.0023 420.641 46.4343 417.893 46.4343H416.622C415.154 46.4343 414.209 46.4773 413.453 47.1227C412.775 47.7079 412.74 48.6631 412.74 50.1604V54.2824C412.74 55.7797 412.775 56.7349 413.453 57.3201C414.217 57.9741 415.154 58.0085 416.622 58.0085H417.893C419.224 58.0085 420.065 57.9827 420.761 57.3975C421.388 56.864 421.431 55.9518 421.431 54.618V53.8435H417.412V52.1311H423.32V54.6782C423.32 58.4302 421.929 59.7554 417.987 59.7554H416.158C412.225 59.7554 410.826 58.4302 410.826 54.6782V49.756C410.826 46.004 412.217 44.6788 416.158 44.6788H417.987C421.628 44.6788 423.32 45.9094 423.32 48.5426ZM439 44.8595L432.921 53.069V59.5833H431.109V53.0862L425.003 44.8595H427.184L431.993 51.5287L436.802 44.8595H439Z" fill="#00A0AF"/>
<path d="M113.301 15.0852H111.61C107.969 15.0852 106.68 13.7599 106.68 10.008V5.07715C106.68 1.32522 107.969 0 111.61 0H113.301C116.908 0 118.256 1.15312 118.256 4.24243V4.9997H116.367V4.48338C116.367 2.34065 115.68 1.75549 113.181 1.75549H112.065C110.828 1.75549 109.901 1.80712 109.239 2.4181C108.595 3.02908 108.561 3.93264 108.561 5.4816V9.60356C108.561 11.1525 108.595 12.0561 109.239 12.6671C109.909 13.2953 110.751 13.3297 112.065 13.3297H113.181C115.757 13.3297 116.384 12.7531 116.384 10.3953C116.384 10.1801 116.384 9.94777 116.367 9.70682L116.358 9.57775H118.256V10.6534C118.248 13.9665 117.002 15.0852 113.301 15.0852ZM131.987 13.149H123.434V8.16647H131.747V6.45401H123.434V1.95341H131.987V0.180712H121.605V14.9045H131.987V13.149ZM137.037 2.2546L144.688 14.9045H147.341V0.180712H145.512V12.8047L137.861 0.180712H135.207V14.9045H137.037V2.2546ZM149.54 1.95341H154.134V14.9045H155.98V1.95341H160.592V0.180712H149.54V1.95341ZM169.625 9.26795H164.61V14.9045H162.781V0.180712H169.419C172.708 0.180712 173.816 1.04125 173.816 3.60564V5.8C173.816 7.18546 173.301 8.0546 172.279 8.39881C173.387 8.79466 173.816 9.62938 173.816 11.2988V14.9045H171.91V11.7979C171.91 9.78427 171.437 9.26795 169.625 9.26795ZM164.61 7.51246H169.102C171.051 7.51246 171.91 7.33175 171.91 5.57626V3.88101C171.91 2.12552 171.094 1.94481 169.102 1.94481H164.61V7.51246ZM187.556 13.149H179.003V8.16647H187.315V6.45401H179.003V1.95341H187.556V0.180712H177.174V14.9045H187.556V13.149ZM200.222 8.16647H207.444V6.45401H200.222V1.95341H207.659V0.180712H198.393V14.9045H200.222V8.16647ZM217.774 15.0852H215.945C212.012 15.0852 210.613 13.7599 210.613 10.008V5.07715C210.613 1.32522 212.004 0 215.945 0H217.774C221.759 0 223.107 1.2822 223.107 5.07715V9.99941C223.107 13.7513 221.707 15.0852 217.774 15.0852ZM220.462 2.4181C219.715 1.78131 218.771 1.74688 217.302 1.74688H216.409C214.949 1.74688 214.013 1.78131 213.24 2.43531C212.553 3.02908 212.51 3.98427 212.51 5.49021V9.59496C212.51 11.0923 212.562 12.0389 213.24 12.6326C214.005 13.2866 214.941 13.3211 216.4 13.3211H217.293C218.77 13.3211 219.715 13.2866 220.479 12.6326C221.158 12.0475 221.192 11.0923 221.192 9.59496V5.4816C221.201 4.01009 221.149 3.01187 220.462 2.4181ZM233.223 9.26795H228.208V14.9045H226.379V0.180712H233.017C236.306 0.180712 237.414 1.04125 237.414 3.60564V5.8C237.414 7.18546 236.898 8.0546 235.876 8.39881C236.984 8.79466 237.414 9.62938 237.414 11.2988V14.9045H235.507V11.7979C235.516 9.78427 235.043 9.26795 233.223 9.26795ZM228.217 7.51246H232.708C234.657 7.51246 235.516 7.33175 235.516 5.57626V3.88101C235.516 2.12552 234.7 1.94481 232.708 1.94481H228.217V7.51246ZM395.377 36.0736L394.295 37.3902L392.054 35.5228C391.161 37.3042 389.246 37.4418 386.463 37.4418C384.488 37.4418 383.011 37.3472 382.015 36.1682C381.474 35.5315 381.251 34.4902 381.251 32.5884C381.251 30.1875 381.946 29.043 383.698 28.6042C382.908 27.9501 382.522 26.9605 382.522 25.5923C382.522 22.8644 384.076 22.3481 386.953 22.3481C390.147 22.3481 391.444 23.3033 391.444 25.6353V26.9691H389.598V25.73C389.598 24.1638 389.005 24.095 386.953 24.095C384.909 24.095 384.428 24.1466 384.428 25.5923C384.428 26.9175 384.84 27.2617 385.751 28.019L390.877 32.3131V30.4371H392.723V32.6917C392.723 32.9671 392.689 33.3285 392.612 33.776L395.377 36.0736ZM390.568 34.2579L385.33 29.8691C383.458 29.9208 383.14 30.7985 383.14 32.7347C383.14 34.0685 383.217 34.7656 383.672 35.1528C384.222 35.6261 385.467 35.6605 387.313 35.6605C389.306 35.6691 390.259 35.2647 390.568 34.2579ZM110.167 77.9988L112.597 86.8021H111.386L110.742 84.3323H108.218L107.591 86.8021H106.38L108.776 77.9988H110.167ZM109.471 79.3412L108.484 83.2309H110.45L109.471 79.3412ZM118.454 83.8763C118.454 85.2703 117.99 85.8985 116.951 85.8985C115.92 85.8985 115.568 85.3908 115.568 83.8763V77.9988H114.375V83.7042C114.375 84.7798 114.4 85.5285 114.795 86.0534C115.233 86.6472 116.015 86.9914 116.934 86.9914C117.853 86.9914 118.565 86.6902 119.055 86.105C119.613 85.4338 119.613 84.668 119.613 83.7042V77.9988H118.445V83.8763H118.454ZM124.928 81.7249L124.611 81.6045C123.692 81.2602 123.288 81.0193 123.288 80.1243C123.288 79.3326 123.778 78.8507 124.602 78.8507C125.401 78.8507 125.839 79.3412 125.839 80.2362V80.4427H126.946V80.3223C126.946 80.2878 126.946 80.2534 126.955 80.219C126.955 80.176 126.964 80.1415 126.964 80.0985C126.964 78.67 126.062 77.7837 124.619 77.7837C123.082 77.7837 122.172 78.7217 122.172 80.2792C122.172 81.0795 122.412 81.6905 122.919 82.1294C123.159 82.3359 123.597 82.4994 124.207 82.7231C124.387 82.792 124.576 82.8608 124.782 82.9383C125.701 83.2911 126.071 83.5234 126.071 84.4098C126.071 85.3392 125.547 85.8985 124.662 85.8985C123.675 85.8985 123.194 85.3564 123.194 84.2549V83.8332H122.052V83.9537C122.052 83.9967 122.052 84.0398 122.043 84.0914C122.043 84.143 122.035 84.1947 122.035 84.2377C122.035 86.0362 122.91 86.9828 124.559 86.9828C126.225 86.9828 127.221 85.976 127.221 84.2893C127.221 83.4632 127.007 82.8866 126.56 82.4736C126.285 82.224 125.718 82.0089 124.928 81.7249ZM129.033 79.1089H131.214V86.7935H132.425V79.1089H134.469V77.9988H129.025V79.1089H129.033ZM142.103 86.5869L142.352 86.7935H140.781L140.746 86.7332C140.549 86.4148 140.532 85.9415 140.497 85.2789C140.489 85.0208 140.471 84.7368 140.446 84.4184C140.351 83.2997 139.982 82.9899 138.745 82.9899H137.646V86.7935H136.478V77.9988H138.994C140.832 77.9988 141.725 78.7561 141.725 80.3137C141.725 81.3463 141.322 82.0261 140.497 82.3789C141.193 82.5855 141.545 83.1362 141.639 84.1C141.665 84.4184 141.682 84.711 141.699 84.9691C141.751 85.778 141.785 86.3202 142.103 86.5869ZM137.646 81.9228H138.685C139.948 81.9228 140.506 81.4668 140.506 80.4513C140.506 79.4789 140.034 79.0831 138.866 79.0831H137.646V81.9228ZM147.393 77.9988L149.823 86.8021H148.612L147.968 84.3323H145.444L144.817 86.8021H143.606L146.002 77.9988H147.393ZM146.697 79.3412L145.71 83.2309H147.676L146.697 79.3412ZM152.992 77.9988H151.798V86.8021H156.401V85.6404H152.992V77.9988ZM158.531 86.8021H159.741V77.9988H158.531V86.8021ZM165.512 77.9988L167.942 86.8021H166.731L166.087 84.3323H163.563L162.936 86.8021H161.725L164.121 77.9988H165.512ZM164.816 79.3412L163.829 83.2309H165.795L164.816 79.3412ZM174.151 84.8315L171.394 77.9988H169.926V86.8021H171.085L171.008 79.7543L173.816 86.8021H175.233V77.9988H174.074L174.151 84.8315ZM187.607 86.5869L187.856 86.7935H186.285L186.25 86.7332C186.053 86.4148 186.036 85.9415 186.001 85.2703C185.993 85.0122 185.976 84.7282 185.95 84.4098C185.855 83.2911 185.486 82.9813 184.25 82.9813H183.15V86.7849H181.982V77.9988H184.499C186.336 77.9988 187.229 78.7561 187.229 80.3137C187.229 81.3463 186.826 82.0261 186.001 82.3789C186.697 82.5855 187.049 83.1362 187.143 84.1C187.178 84.4184 187.195 84.711 187.204 84.9777C187.247 85.778 187.281 86.3202 187.607 86.5869ZM183.15 81.9228H184.189C185.452 81.9228 186.01 81.4668 186.01 80.4513C186.01 79.4789 185.538 79.0831 184.37 79.0831H183.15V81.9228ZM191.119 82.7404H194.202V81.6389H191.119V79.1175H194.417V77.9902H189.943V86.7935H194.451V85.6576H191.119V82.7404ZM199.526 81.7249L199.209 81.6045C198.29 81.2602 197.886 81.0193 197.886 80.1243C197.886 79.3326 198.376 78.8507 199.2 78.8507C199.999 78.8507 200.437 79.3412 200.437 80.2362V80.4427H201.544V80.3223C201.544 80.2878 201.544 80.2534 201.553 80.219C201.553 80.176 201.562 80.1415 201.562 80.0985C201.562 78.67 200.66 77.7837 199.217 77.7837C197.68 77.7837 196.77 78.7217 196.77 80.2792C196.77 81.0795 197.01 81.6905 197.517 82.1294C197.749 82.3359 198.195 82.4994 198.805 82.7231C198.985 82.792 199.174 82.8608 199.38 82.9383C200.299 83.2911 200.668 83.5234 200.668 84.4098C200.668 85.3392 200.145 85.8985 199.26 85.8985C198.273 85.8985 197.792 85.3564 197.792 84.2549V83.8332H196.65V83.9537C196.65 83.9967 196.65 84.0398 196.641 84.0914C196.641 84.143 196.632 84.1947 196.632 84.2377C196.632 86.0362 197.508 86.9828 199.157 86.9828C200.823 86.9828 201.819 85.976 201.819 84.2893C201.819 83.4632 201.604 82.8866 201.158 82.4736C200.883 82.224 200.316 82.0089 199.526 81.7249ZM205.417 82.7404H208.5V81.6389H205.417V79.1175H208.715V77.9902H204.241V86.7935H208.749V85.6576H205.417V82.7404ZM214.288 77.9988L216.718 86.8021H215.507L214.863 84.3323H212.339L211.712 86.8021H210.501L212.897 77.9988H214.288ZM213.601 79.3412L212.613 83.2309H214.58L213.601 79.3412ZM224.326 86.5869L224.575 86.7935H223.004L222.97 86.7332C222.772 86.4148 222.755 85.9415 222.721 85.2703C222.703 85.0122 222.695 84.7282 222.669 84.4098C222.575 83.2911 222.205 82.9813 220.969 82.9813H219.87V86.7849H218.702V77.9988H221.218C223.056 77.9988 223.949 78.7561 223.949 80.3137C223.949 81.3463 223.545 82.0261 222.712 82.3789C223.408 82.5855 223.76 83.1362 223.854 84.1C223.889 84.4184 223.906 84.711 223.914 84.9777C223.966 85.778 224 86.3202 224.326 86.5869ZM219.861 81.9228H220.9C222.162 81.9228 222.721 81.4668 222.721 80.4513C222.721 79.4789 222.248 79.0831 221.08 79.0831H219.861V81.9228ZM230.492 83.6697C230.492 85.0724 229.994 85.8555 229.101 85.8555C227.967 85.8555 227.53 84.8917 227.53 82.422C227.53 79.9006 227.967 78.8766 229.049 78.8766C229.934 78.8766 230.466 79.5306 230.466 80.632V80.7525H231.626V80.5288C231.626 78.7905 230.69 77.7923 229.067 77.7923C227.117 77.7923 226.293 79.1777 226.293 82.422C226.293 85.5457 227.152 87 228.998 87C230.707 87 231.66 85.7694 231.686 83.5321V83.4116H230.501V83.6697H230.492ZM238.341 81.527H235.395V77.9988H234.185V86.8021H235.395V82.6371H238.341V86.8021H239.552V77.9988H238.341V81.527ZM250.363 83.6697C250.363 85.0724 249.865 85.8555 248.972 85.8555C247.839 85.8555 247.401 84.8917 247.401 82.422C247.401 79.9006 247.839 78.8766 248.921 78.8766C249.805 78.8766 250.337 79.5306 250.337 80.632V80.7525H251.497V80.5288C251.497 78.7905 250.561 77.7923 248.938 77.7923C246.988 77.7923 246.164 79.1777 246.164 82.422C246.164 85.5457 247.023 87 248.878 87C250.586 87 251.54 85.7694 251.565 83.5321V83.4116H250.38V83.6697H250.363ZM259.603 82.3961C259.603 85.6662 258.779 87 256.744 87C254.743 87 253.884 85.6231 253.884 82.3961C253.884 79.1691 254.734 77.7923 256.744 77.7923C258.77 77.7923 259.603 79.1261 259.603 82.3961ZM258.375 82.3961C258.375 79.7371 257.98 78.8852 256.744 78.8852C255.524 78.8852 255.112 79.7715 255.112 82.3961C255.112 85.0294 255.524 85.9243 256.744 85.9243C257.98 85.9243 258.375 85.0638 258.375 82.3961ZM266.129 83.8763C266.129 85.2703 265.666 85.8985 264.618 85.8985C263.588 85.8985 263.236 85.3908 263.236 83.8763V77.9988H262.042V83.7042C262.042 84.7798 262.076 85.5285 262.463 86.0534C262.901 86.6472 263.682 86.9914 264.601 86.9914C265.52 86.9914 266.233 86.6902 266.722 86.105C267.28 85.4338 267.28 84.668 267.28 83.7042V77.9988H266.112V83.8763H266.129ZM274.133 84.8315L271.376 77.9988H269.908V86.8021H271.067L270.99 79.7543L273.798 86.8021H275.215V77.9988H274.056L274.133 84.8315ZM281.861 83.6697C281.861 85.0724 281.363 85.8555 280.47 85.8555C279.337 85.8555 278.899 84.8917 278.899 82.422C278.899 79.9006 279.337 78.8766 280.419 78.8766C281.303 78.8766 281.836 79.5306 281.836 80.632V80.7525H282.995V80.5288C282.995 78.7905 282.059 77.7923 280.436 77.7923C278.487 77.7923 277.662 79.1777 277.662 82.422C277.662 85.5457 278.521 87 280.376 87C282.085 87 283.038 85.7694 283.064 83.5321V83.4116H281.879V83.6697H281.861ZM285.554 86.8021H286.765V77.9988H285.554V86.8021ZM290.569 77.9988H289.375V86.8021H293.978V85.6404H290.569V77.9988ZM304.3 83.6697C304.3 85.0724 303.802 85.8555 302.909 85.8555C301.775 85.8555 301.337 84.8917 301.337 82.422C301.337 79.9006 301.775 78.8766 302.857 78.8766C303.742 78.8766 304.274 79.5306 304.274 80.632V80.7525H305.434V80.5288C305.434 78.7905 304.498 77.7923 302.875 77.7923C300.925 77.7923 300.092 79.1777 300.092 82.422C300.092 85.5457 300.951 87 302.806 87C304.515 87 305.468 85.7694 305.494 83.5321V83.4116H304.309V83.6697H304.3ZM309.178 82.7404H312.26V81.6389H309.178V79.1175H312.475V77.9902H308.001V86.7935H312.509V85.6576H309.178V82.7404ZM319.113 84.8315L316.357 77.9988H314.888V86.8021H316.047L315.97 79.7543L318.778 86.8021H320.195V77.9988H319.036L319.113 84.8315ZM322.196 79.1089H324.377V86.7935H325.588V79.1089H327.632V77.9988H322.187V79.1089H322.196ZM335.266 86.5869L335.515 86.7935H333.943L333.909 86.7332C333.72 86.4148 333.694 85.9415 333.66 85.2703C333.651 85.0122 333.634 84.7282 333.608 84.4098C333.514 83.2911 333.145 82.9813 331.908 82.9813H330.809V86.7849H329.641V77.9988H332.157C333.995 77.9988 334.888 78.7561 334.888 80.3137C334.888 81.3463 334.484 82.0261 333.66 82.3789C334.356 82.5855 334.708 83.1362 334.802 84.1C334.828 84.4184 334.845 84.711 334.862 84.9691C334.905 85.778 334.94 86.3202 335.266 86.5869ZM330.809 81.9228H331.848C333.11 81.9228 333.669 81.4668 333.669 80.4513C333.669 79.4789 333.196 79.0831 332.028 79.0831H330.809V81.9228ZM338.778 82.7404H341.861V81.6389H338.778V79.1175H342.076V77.9902H337.602V86.7935H342.11V85.6576H338.778V82.7404ZM354.175 82.3961C354.175 85.6662 353.351 87 351.315 87C349.315 87 348.456 85.6231 348.456 82.3961C348.456 79.1691 349.315 77.7923 351.315 77.7923C353.351 77.7923 354.175 79.1261 354.175 82.3961ZM352.947 82.3961C352.947 79.7371 352.552 78.8852 351.315 78.8852C350.096 78.8852 349.684 79.7715 349.684 82.3961C349.684 85.0294 350.096 85.9243 351.315 85.9243C352.552 85.9243 352.947 85.0638 352.947 82.3961ZM356.614 86.8021H357.825V82.749H360.581V81.6217H357.825V79.1003H360.787V77.9988H356.605V86.8021H356.614ZM368.172 82.7404H371.255V81.6389H368.172V79.1175H371.47V77.9902H366.996V86.7935H371.504V85.6576H368.172V82.7404ZM379.078 77.9988H377.713L376.064 81.1053L374.441 77.9988H373.007L375.334 82.2499L372.895 86.7935H374.269L376.03 83.3513L377.764 86.7935H379.181L376.717 82.224L379.078 77.9988ZM384.651 83.6697C384.651 85.0724 384.153 85.8555 383.26 85.8555C382.127 85.8555 381.689 84.8917 381.689 82.422C381.689 79.9006 382.127 78.8766 383.209 78.8766C384.093 78.8766 384.626 79.5306 384.626 80.632V80.7525H385.785V80.5288C385.785 78.7905 384.849 77.7923 383.226 77.7923C381.277 77.7923 380.452 79.1777 380.452 82.422C380.452 85.5457 381.311 87 383.157 87C384.866 87 385.819 85.7694 385.845 83.5321V83.4116H384.66V83.6697H384.651ZM389.529 82.7404H392.612V81.6389H389.529V79.1175H392.827V77.9902H388.353V86.7935H392.861V85.6576H389.529V82.7404ZM396.425 77.9988H395.231V86.8021H399.834V85.6404H396.425V77.9988ZM403.157 77.9988H401.963V86.8021H406.566V85.6404H403.157V77.9988ZM409.872 82.7404H412.955V81.6389H409.872V79.1175H413.17V77.9902H408.696V86.7935H413.204V85.6576H409.872V82.7404ZM419.816 84.8315L417.06 77.9988H415.591V86.8021H416.751L416.673 79.7543L419.481 86.8021H420.898V77.9988H419.739L419.816 84.8315ZM427.536 83.6697C427.536 85.0724 427.038 85.8555 426.145 85.8555C425.012 85.8555 424.574 84.8917 424.574 82.422C424.574 79.9006 425.012 78.8766 426.094 78.8766C426.978 78.8766 427.511 79.5306 427.511 80.632V80.7525H428.67V80.5288C428.67 78.7905 427.734 77.7923 426.111 77.7923C424.162 77.7923 423.337 79.1777 423.337 82.422C423.337 85.5457 424.196 87 426.051 87C427.76 87 428.713 85.7694 428.739 83.5321V83.4116H427.554V83.6697H427.536ZM432.414 85.6576V82.7404H435.497V81.6389H432.414V79.1175H435.712V77.9902H431.238V86.7935H435.746V85.6576H432.414Z" fill="#B0B7BC"/>
<path d="M23.8298 21.0918C23.8298 22.7526 22.4816 24.1036 20.8242 24.1036C19.1669 24.1036 17.8187 22.7612 17.8187 21.0918C17.8187 19.4309 19.1669 18.0885 20.8242 18.0885C22.4816 18.0885 23.8298 19.4309 23.8298 21.0918ZM29.7464 18.0885C28.0891 18.0885 26.7409 19.4395 26.7409 21.0918C26.7409 22.7526 28.0891 24.1036 29.7464 24.1036C31.4038 24.1036 32.752 22.7612 32.752 21.0918C32.7434 19.4309 31.4038 18.0885 29.7464 18.0885ZM38.66 18.0885C37.0027 18.0885 35.6545 19.4395 35.6545 21.0918C35.6545 22.7526 36.9941 24.1036 38.66 24.1036C40.3174 24.1036 41.6656 22.7612 41.6656 21.0918C41.657 19.4309 40.3088 18.0885 38.66 18.0885ZM47.5651 18.0885C45.9077 18.0885 44.5595 19.4395 44.5595 21.0918C44.5595 22.7526 45.8991 24.1036 47.5651 24.1036C49.2224 24.1036 50.562 22.7612 50.562 21.0918C50.5706 19.4309 49.2224 18.0885 47.5651 18.0885ZM56.4787 18.0885C54.8213 18.0885 53.4817 19.4395 53.4817 21.0918C53.4817 22.7526 54.8299 24.1036 56.4787 24.1036C58.136 24.1036 59.4842 22.7612 59.4842 21.0918C59.4842 19.4309 58.136 18.0885 56.4787 18.0885ZM65.3923 18.0885C63.735 18.0885 62.3867 19.4395 62.3867 21.0918C62.3867 22.7526 63.735 24.1036 65.3923 24.1036C67.0497 24.1036 68.3979 22.7612 68.3979 21.0918C68.3979 19.4309 67.0497 18.0885 65.3923 18.0885ZM74.3059 18.0885C72.6486 18.0885 71.3004 19.4395 71.3004 21.0918C71.3004 22.7526 72.64 24.1036 74.3059 24.1036C75.9633 24.1036 77.3115 22.7612 77.3115 21.0918C77.3115 19.4309 75.9633 18.0885 74.3059 18.0885ZM83.211 18.0885C81.5708 18.0885 80.2226 19.4395 80.2226 21.0918C80.2226 22.7526 81.5708 24.1036 83.211 24.1036C84.8769 24.1036 86.2165 22.7612 86.2165 21.0918C86.2165 19.4309 84.8769 18.0885 83.211 18.0885ZM20.8328 0.163574C19.1754 0.163574 17.8272 1.50601 17.8272 3.18405C17.8272 4.82767 19.1754 6.17871 20.8328 6.17871C22.4901 6.17871 23.8383 4.81906 23.8383 3.18405C23.8298 1.50601 22.4816 0.163574 20.8328 0.163574ZM29.7464 0.163574C28.0891 0.163574 26.7409 1.50601 26.7409 3.18405C26.7409 4.82767 28.0891 6.17871 29.7464 6.17871C31.4038 6.17871 32.752 4.81906 32.752 3.18405C32.7434 1.50601 31.4038 0.163574 29.7464 0.163574ZM38.66 0.163574C37.0027 0.163574 35.6545 1.50601 35.6545 3.18405C35.6545 4.82767 36.9941 6.17871 38.66 6.17871C40.3174 6.17871 41.6656 4.81906 41.6656 3.18405C41.657 1.50601 40.3088 0.163574 38.66 0.163574ZM47.5651 0.163574C45.9077 0.163574 44.5595 1.50601 44.5595 3.18405C44.5595 4.82767 45.8991 6.17871 47.5651 6.17871C49.2224 6.17871 50.562 4.81906 50.562 3.18405C50.5706 1.50601 49.2224 0.163574 47.5651 0.163574ZM56.4787 0.163574C54.8213 0.163574 53.4817 1.50601 53.4817 3.18405C53.4817 4.82767 54.8299 6.17871 56.4787 6.17871C58.136 6.17871 59.4842 4.81906 59.4842 3.18405C59.4842 1.50601 58.136 0.163574 56.4787 0.163574ZM65.3923 0.163574C63.735 0.163574 62.3867 1.50601 62.3867 3.18405C62.3867 4.82767 63.735 6.17871 65.3923 6.17871C67.0497 6.17871 68.3979 4.81906 68.3979 3.18405C68.3979 1.50601 67.0497 0.163574 65.3923 0.163574ZM74.3059 0.163574C72.6486 0.163574 71.3004 1.50601 71.3004 3.18405C71.3004 4.82767 72.64 6.17871 74.3059 6.17871C75.9633 6.17871 77.3115 4.81906 77.3115 3.18405C77.3115 1.50601 75.9633 0.163574 74.3059 0.163574ZM83.211 0.163574C81.5708 0.163574 80.2226 1.50601 80.2226 3.18405C80.2226 4.82767 81.5708 6.17871 83.211 6.17871C84.8769 6.17871 86.2165 4.81906 86.2165 3.18405C86.2165 1.50601 84.8769 0.163574 83.211 0.163574ZM20.8328 9.12174C19.1754 9.12174 17.8272 10.4642 17.8272 12.1336C17.8272 13.7944 19.1754 15.1369 20.8328 15.1369C22.4901 15.1369 23.8383 13.7944 23.8383 12.1336C23.8298 10.4728 22.4816 9.12174 20.8328 9.12174ZM29.7464 9.12174C28.0891 9.12174 26.7409 10.4642 26.7409 12.1336C26.7409 13.7944 28.0891 15.1369 29.7464 15.1369C31.4038 15.1369 32.752 13.7944 32.752 12.1336C32.7434 10.4728 31.4038 9.12174 29.7464 9.12174ZM38.66 9.12174C37.0027 9.12174 35.6545 10.4642 35.6545 12.1336C35.6545 13.7944 36.9941 15.1369 38.66 15.1369C40.3174 15.1369 41.6656 13.7944 41.6656 12.1336C41.657 10.4728 40.3088 9.12174 38.66 9.12174ZM47.5651 9.12174C45.9077 9.12174 44.5595 10.4642 44.5595 12.1336C44.5595 13.7944 45.8991 15.1369 47.5651 15.1369C49.2224 15.1369 50.562 13.7944 50.562 12.1336C50.5706 10.4728 49.2224 9.12174 47.5651 9.12174ZM56.4787 9.12174C54.8213 9.12174 53.4817 10.4642 53.4817 12.1336C53.4817 13.7944 54.8299 15.1369 56.4787 15.1369C58.136 15.1369 59.4842 13.7944 59.4842 12.1336C59.4842 10.4728 58.136 9.12174 56.4787 9.12174ZM65.3923 9.12174C63.735 9.12174 62.3867 10.4642 62.3867 12.1336C62.3867 13.7944 63.735 15.1369 65.3923 15.1369C67.0497 15.1369 68.3979 13.7944 68.3979 12.1336C68.3979 10.4728 67.0497 9.12174 65.3923 9.12174ZM74.3059 9.12174C72.6486 9.12174 71.3004 10.4642 71.3004 12.1336C71.3004 13.7944 72.64 15.1369 74.3059 15.1369C75.9633 15.1369 77.3115 13.7944 77.3115 12.1336C77.3115 10.4728 75.9633 9.12174 74.3059 9.12174ZM83.211 9.12174C81.5708 9.12174 80.2226 10.4642 80.2226 12.1336C80.2226 13.7944 81.5708 15.1369 83.211 15.1369C84.8769 15.1369 86.2165 13.7944 86.2165 12.1336C86.2165 10.4728 84.8769 9.12174 83.211 9.12174ZM20.8328 44.9716C19.1754 44.9716 17.8272 46.314 17.8272 47.9749C17.8272 49.6357 19.1754 50.9867 20.8328 50.9867C22.4901 50.9867 23.8383 49.6443 23.8383 47.9749C23.8298 46.3226 22.4816 44.9716 20.8328 44.9716ZM29.7464 44.9716C28.0891 44.9716 26.7409 46.314 26.7409 47.9749C26.7409 49.6357 28.0891 50.9867 29.7464 50.9867C31.4038 50.9867 32.752 49.6443 32.752 47.9749C32.7434 46.3226 31.4038 44.9716 29.7464 44.9716ZM38.66 44.9716C37.0027 44.9716 35.6545 46.314 35.6545 47.9749C35.6545 49.6357 36.9941 50.9867 38.66 50.9867C40.3174 50.9867 41.6656 49.6443 41.6656 47.9749C41.657 46.3226 40.3088 44.9716 38.66 44.9716ZM47.5651 44.9716C45.9077 44.9716 44.5595 46.314 44.5595 47.9749C44.5595 49.6357 45.8991 50.9867 47.5651 50.9867C49.2224 50.9867 50.562 49.6443 50.562 47.9749C50.5706 46.3226 49.2224 44.9716 47.5651 44.9716ZM56.4787 44.9716C54.8213 44.9716 53.4817 46.314 53.4817 47.9749C53.4817 49.6357 54.8299 50.9867 56.4787 50.9867C58.136 50.9867 59.4842 49.6443 59.4842 47.9749C59.4842 46.3226 58.136 44.9716 56.4787 44.9716ZM65.3923 44.9716C63.735 44.9716 62.3867 46.314 62.3867 47.9749C62.3867 49.6357 63.735 50.9867 65.3923 50.9867C67.0497 50.9867 68.3979 49.6443 68.3979 47.9749C68.3979 46.3226 67.0497 44.9716 65.3923 44.9716ZM74.3059 44.9716C72.6486 44.9716 71.3004 46.314 71.3004 47.9749C71.3004 49.6357 72.64 50.9867 74.3059 50.9867C75.9633 50.9867 77.3115 49.6443 77.3115 47.9749C77.3115 46.3226 75.9633 44.9716 74.3059 44.9716ZM83.211 44.9716C81.5708 44.9716 80.2226 46.314 80.2226 47.9749C80.2226 49.6357 81.5708 50.9867 83.211 50.9867C84.8769 50.9867 86.2165 49.6443 86.2165 47.9749C86.2165 46.3226 84.8769 44.9716 83.211 44.9716ZM20.8328 53.9297C19.1754 53.9297 17.8272 55.2722 17.8272 56.933C17.8272 58.5938 19.1754 59.9449 20.8328 59.9449C22.4901 59.9449 23.8383 58.6024 23.8383 56.933C23.8298 55.2808 22.4816 53.9297 20.8328 53.9297ZM29.7464 53.9297C28.0891 53.9297 26.7409 55.2722 26.7409 56.933C26.7409 58.5938 28.0891 59.9449 29.7464 59.9449C31.4038 59.9449 32.752 58.6024 32.752 56.933C32.7434 55.2808 31.4038 53.9297 29.7464 53.9297ZM38.66 53.9297C37.0027 53.9297 35.6545 55.2722 35.6545 56.933C35.6545 58.5938 36.9941 59.9449 38.66 59.9449C40.3174 59.9449 41.6656 58.6024 41.6656 56.933C41.657 55.2808 40.3088 53.9297 38.66 53.9297ZM47.5651 53.9297C45.9077 53.9297 44.5595 55.2722 44.5595 56.933C44.5595 58.5938 45.8991 59.9449 47.5651 59.9449C49.2224 59.9449 50.562 58.6024 50.562 56.933C50.5706 55.2808 49.2224 53.9297 47.5651 53.9297ZM56.4787 53.9297C54.8213 53.9297 53.4817 55.2722 53.4817 56.933C53.4817 58.5938 54.8299 59.9449 56.4787 59.9449C58.136 59.9449 59.4842 58.6024 59.4842 56.933C59.4842 55.2808 58.136 53.9297 56.4787 53.9297ZM65.3923 53.9297C63.735 53.9297 62.3867 55.2722 62.3867 56.933C62.3867 58.5938 63.735 59.9449 65.3923 59.9449C67.0497 59.9449 68.3979 58.6024 68.3979 56.933C68.3979 55.2808 67.0497 53.9297 65.3923 53.9297ZM74.3059 53.9297C72.6486 53.9297 71.3004 55.2722 71.3004 56.933C71.3004 58.5938 72.64 59.9449 74.3059 59.9449C75.9633 59.9449 77.3115 58.6024 77.3115 56.933C77.3115 55.2808 75.9633 53.9297 74.3059 53.9297ZM83.211 53.9297C81.5708 53.9297 80.2226 55.2722 80.2226 56.933C80.2226 58.5938 81.5708 59.9449 83.211 59.9449C84.8769 59.9449 86.2165 58.6024 86.2165 56.933C86.2165 55.2808 84.8769 53.9297 83.211 53.9297ZM20.8328 62.8965C19.1754 62.8965 17.8272 64.2475 17.8272 65.9084C17.8272 67.5692 19.1754 68.9202 20.8328 68.9202C22.4901 68.9202 23.8383 67.5778 23.8383 65.9084C23.8298 64.2389 22.4816 62.8965 20.8328 62.8965ZM29.7464 62.8965C28.0891 62.8965 26.7409 64.2475 26.7409 65.9084C26.7409 67.5692 28.0891 68.9202 29.7464 68.9202C31.4038 68.9202 32.752 67.5778 32.752 65.9084C32.7434 64.2389 31.4038 62.8965 29.7464 62.8965ZM38.66 62.8965C37.0027 62.8965 35.6545 64.2475 35.6545 65.9084C35.6545 67.5692 36.9941 68.9202 38.66 68.9202C40.3174 68.9202 41.6656 67.5778 41.6656 65.9084C41.657 64.2389 40.3088 62.8965 38.66 62.8965ZM47.5651 62.8965C45.9077 62.8965 44.5595 64.2475 44.5595 65.9084C44.5595 67.5692 45.8991 68.9202 47.5651 68.9202C49.2224 68.9202 50.562 67.5778 50.562 65.9084C50.5706 64.2389 49.2224 62.8965 47.5651 62.8965ZM56.4787 62.8965C54.8213 62.8965 53.4817 64.2475 53.4817 65.9084C53.4817 67.5692 54.8299 68.9202 56.4787 68.9202C58.136 68.9202 59.4842 67.5778 59.4842 65.9084C59.4842 64.2389 58.136 62.8965 56.4787 62.8965ZM65.3923 62.8965C63.735 62.8965 62.3867 64.2475 62.3867 65.9084C62.3867 67.5692 63.735 68.9202 65.3923 68.9202C67.0497 68.9202 68.3979 67.5778 68.3979 65.9084C68.3979 64.2389 67.0497 62.8965 65.3923 62.8965ZM74.3059 62.8965C72.6486 62.8965 71.3004 64.2475 71.3004 65.9084C71.3004 67.5692 72.64 68.9202 74.3059 68.9202C75.9633 68.9202 77.3115 67.5778 77.3115 65.9084C77.3115 64.2389 75.9633 62.8965 74.3059 62.8965ZM83.211 62.8965C81.5708 62.8965 80.2226 64.2475 80.2226 65.9084C80.2226 67.5692 81.5708 68.9202 83.211 68.9202C84.8769 68.9202 86.2165 67.5778 86.2165 65.9084C86.2165 64.2389 84.8769 62.8965 83.211 62.8965ZM20.8328 71.8547C19.1754 71.8547 17.8272 73.1971 17.8272 74.8665C17.8272 76.5274 19.1754 77.8698 20.8328 77.8698C22.4901 77.8698 23.8383 76.5274 23.8383 74.8665C23.8298 73.1971 22.4816 71.8547 20.8328 71.8547ZM29.7464 71.8547C28.0891 71.8547 26.7409 73.1971 26.7409 74.8665C26.7409 76.5274 28.0891 77.8698 29.7464 77.8698C31.4038 77.8698 32.752 76.5274 32.752 74.8665C32.7434 73.1971 31.4038 71.8547 29.7464 71.8547ZM38.66 71.8547C37.0027 71.8547 35.6545 73.1971 35.6545 74.8665C35.6545 76.5274 36.9941 77.8698 38.66 77.8698C40.3174 77.8698 41.6656 76.5274 41.6656 74.8665C41.657 73.1971 40.3088 71.8547 38.66 71.8547ZM47.5651 71.8547C45.9077 71.8547 44.5595 73.1971 44.5595 74.8665C44.5595 76.5274 45.8991 77.8698 47.5651 77.8698C49.2224 77.8698 50.562 76.5274 50.562 74.8665C50.5706 73.1971 49.2224 71.8547 47.5651 71.8547ZM56.4787 71.8547C54.8213 71.8547 53.4817 73.1971 53.4817 74.8665C53.4817 76.5274 54.8299 77.8698 56.4787 77.8698C58.136 77.8698 59.4842 76.5274 59.4842 74.8665C59.4842 73.1971 58.136 71.8547 56.4787 71.8547ZM65.3923 71.8547C63.735 71.8547 62.3867 73.1971 62.3867 74.8665C62.3867 76.5274 63.735 77.8698 65.3923 77.8698C67.0497 77.8698 68.3979 76.5274 68.3979 74.8665C68.3979 73.1971 67.0497 71.8547 65.3923 71.8547ZM74.3059 71.8547C72.6486 71.8547 71.3004 73.1971 71.3004 74.8665C71.3004 76.5274 72.64 77.8698 74.3059 77.8698C75.9633 77.8698 77.3115 76.5274 77.3115 74.8665C77.3115 73.1971 75.9633 71.8547 74.3059 71.8547ZM83.211 71.8547C81.5708 71.8547 80.2226 73.1971 80.2226 74.8665C80.2226 76.5274 81.5708 77.8698 83.211 77.8698C84.8769 77.8698 86.2165 76.5274 86.2165 74.8665C86.2165 73.1971 84.8769 71.8547 83.211 71.8547ZM20.8328 80.8214C19.1754 80.8214 17.8272 82.1639 17.8272 83.8247C17.8272 85.4855 19.1754 86.828 20.8328 86.828C22.4901 86.828 23.8383 85.4855 23.8383 83.8247C23.8298 82.1639 22.4816 80.8214 20.8328 80.8214ZM3.00556 18.0885C1.34821 18.0885 0 19.4395 0 21.0918C0 22.7526 1.34821 24.1036 3.00556 24.1036C4.6629 24.1036 6.00252 22.7612 6.00252 21.0918C6.00252 19.4309 4.6629 18.0885 3.00556 18.0885ZM11.9192 18.0885C10.2618 18.0885 8.91362 19.4395 8.91362 21.0918C8.91362 22.7526 10.2532 24.1036 11.9192 24.1036C13.5765 24.1036 14.9247 22.7612 14.9247 21.0918C14.9161 19.4309 13.5765 18.0885 11.9192 18.0885ZM3.00556 0.163574C1.34821 0.163574 0 1.50601 0 3.18405C0 4.81906 1.34821 6.17871 3.00556 6.17871C4.6629 6.17871 6.00252 4.81906 6.00252 3.18405C6.00252 1.50601 4.6629 0.163574 3.00556 0.163574ZM11.9192 0.163574C10.2618 0.163574 8.91362 1.50601 8.91362 3.18405C8.91362 4.82767 10.2532 6.17871 11.9192 6.17871C13.5765 6.17871 14.9247 4.81906 14.9247 3.18405C14.9161 1.50601 13.5765 0.163574 11.9192 0.163574ZM3.00556 9.12174C1.34821 9.12174 0 10.4642 0 12.1336C0 13.7944 1.34821 15.1369 3.00556 15.1369C4.6629 15.1369 6.00252 13.7944 6.00252 12.1336C6.00252 10.4728 4.6629 9.12174 3.00556 9.12174ZM11.9192 9.12174C10.2618 9.12174 8.91362 10.4642 8.91362 12.1336C8.91362 13.7944 10.2532 15.1369 11.9192 15.1369C13.5765 15.1369 14.9247 13.7944 14.9247 12.1336C14.9161 10.4728 13.5765 9.12174 11.9192 9.12174ZM3.00556 27.0467C1.34821 27.0467 0 28.3891 0 30.0499C0 31.7108 1.34821 33.0618 3.00556 33.0618C4.6629 33.0618 6.00252 31.7194 6.00252 30.0499C6.00252 28.3891 4.6629 27.0467 3.00556 27.0467ZM3.00556 36.0134C1.34821 36.0134 0 37.3559 0 39.0167C0 40.6775 1.34821 42.0286 3.00556 42.0286C4.6629 42.0286 6.00252 40.6861 6.00252 39.0167C6.00252 37.3559 4.6629 36.0134 3.00556 36.0134ZM3.00556 44.9716C1.34821 44.9716 0 46.314 0 47.9749C0 49.6357 1.34821 50.9867 3.00556 50.9867C4.6629 50.9867 6.00252 49.6443 6.00252 47.9749C6.00252 46.3226 4.6629 44.9716 3.00556 44.9716ZM11.9192 44.9716C10.2618 44.9716 8.91362 46.314 8.91362 47.9749C8.91362 49.6357 10.2532 50.9867 11.9192 50.9867C13.5765 50.9867 14.9247 49.6443 14.9247 47.9749C14.9161 46.3226 13.5765 44.9716 11.9192 44.9716ZM3.00556 53.9297C1.34821 53.9297 0 55.2722 0 56.933C0 58.5938 1.34821 59.9449 3.00556 59.9449C4.6629 59.9449 6.00252 58.6024 6.00252 56.933C6.00252 55.2808 4.6629 53.9297 3.00556 53.9297ZM11.9192 53.9297C10.2618 53.9297 8.91362 55.2722 8.91362 56.933C8.91362 58.5938 10.2532 59.9449 11.9192 59.9449C13.5765 59.9449 14.9247 58.6024 14.9247 56.933C14.9161 55.2808 13.5765 53.9297 11.9192 53.9297ZM3.00556 62.8965C1.34821 62.8965 0 64.2475 0 65.9084C0 67.5692 1.34821 68.9202 3.00556 68.9202C4.6629 68.9202 6.00252 67.5778 6.00252 65.9084C6.00252 64.2389 4.6629 62.8965 3.00556 62.8965ZM11.9192 62.8965C10.2618 62.8965 8.91362 64.2475 8.91362 65.9084C8.91362 67.5692 10.2532 68.9202 11.9192 68.9202C13.5765 68.9202 14.9247 67.5778 14.9247 65.9084C14.9161 64.2389 13.5765 62.8965 11.9192 62.8965ZM3.00556 71.8547C1.34821 71.8547 0 73.1971 0 74.8665C0 76.5274 1.34821 77.8698 3.00556 77.8698C4.6629 77.8698 6.00252 76.5274 6.00252 74.8665C6.00252 73.1971 4.6629 71.8547 3.00556 71.8547ZM11.9192 71.8547C10.2618 71.8547 8.91362 73.1971 8.91362 74.8665C8.91362 76.5274 10.2532 77.8698 11.9192 77.8698C13.5765 77.8698 14.9247 76.5274 14.9247 74.8665C14.9161 73.1971 13.5765 71.8547 11.9192 71.8547ZM3.00556 80.8214C1.34821 80.8214 0 82.1639 0 83.8247C0 85.4855 1.34821 86.828 3.00556 86.828C4.6629 86.828 6.00252 85.4855 6.00252 83.8247C6.00252 82.1639 4.6629 80.8214 3.00556 80.8214ZM11.9192 80.8214C10.2618 80.8214 8.91362 82.1639 8.91362 83.8247C8.91362 85.4855 10.2532 86.828 11.9192 86.828C13.5765 86.828 14.9247 85.4855 14.9247 83.8247C14.9161 82.1639 13.5765 80.8214 11.9192 80.8214ZM29.7464 80.8214C28.0891 80.8214 26.7409 82.1639 26.7409 83.8247C26.7409 85.4855 28.0891 86.828 29.7464 86.828C31.4038 86.828 32.752 85.4855 32.752 83.8247C32.7434 82.1639 31.4038 80.8214 29.7464 80.8214ZM38.66 80.8214C37.0027 80.8214 35.6545 82.1639 35.6545 83.8247C35.6545 85.4855 36.9941 86.828 38.66 86.828C40.3174 86.828 41.6656 85.4855 41.6656 83.8247C41.657 82.1639 40.3088 80.8214 38.66 80.8214ZM47.5651 80.8214C45.9077 80.8214 44.5595 82.1639 44.5595 83.8247C44.5595 85.4855 45.8991 86.828 47.5651 86.828C49.2224 86.828 50.562 85.4855 50.562 83.8247C50.5706 82.1639 49.2224 80.8214 47.5651 80.8214ZM56.4787 80.8214C54.8213 80.8214 53.4817 82.1639 53.4817 83.8247C53.4817 85.4855 54.8299 86.828 56.4787 86.828C58.136 86.828 59.4842 85.4855 59.4842 83.8247C59.4842 82.1639 58.136 80.8214 56.4787 80.8214ZM65.3923 80.8214C63.735 80.8214 62.3867 82.1639 62.3867 83.8247C62.3867 85.4855 63.735 86.828 65.3923 86.828C67.0497 86.828 68.3979 85.4855 68.3979 83.8247C68.3979 82.1639 67.0497 80.8214 65.3923 80.8214ZM74.3059 80.8214C72.6486 80.8214 71.3004 82.1639 71.3004 83.8247C71.3004 85.4855 72.64 86.828 74.3059 86.828C75.9633 86.828 77.3115 85.4855 77.3115 83.8247C77.3115 82.1639 75.9633 80.8214 74.3059 80.8214ZM83.211 80.8214C81.5708 80.8214 80.2226 82.1639 80.2226 83.8247C80.2226 85.4855 81.5708 86.828 83.211 86.828C84.8769 86.828 86.2165 85.4855 86.2165 83.8247C86.2165 82.1639 84.8769 80.8214 83.211 80.8214Z" fill="#B0B7BC"/>
<path d="M86.3286 34.5162L79.2355 27.4082C78.6429 26.8144 77.518 26.8144 76.9255 27.4082C76.6163 27.718 76.4446 28.1225 76.4446 28.5613C76.4446 29.0002 76.6163 29.4133 76.9255 29.7231L80.0942 32.8984C79.038 32.8984 71.8676 32.8984 70.2961 32.8984C70.1072 32.8984 69.9698 32.8984 69.9698 32.8984C69.4374 32.8984 68.4412 32.8984 68.4412 32.8984C64.2678 32.8984 62.8938 34.6453 61.8805 35.9361C61.2537 36.7278 61.039 36.9946 60.1545 36.9946C59.167 36.9946 58.48 35.764 57.4838 33.7417C56.3246 31.3753 55.0107 28.699 51.945 28.699C48.8965 28.699 47.5655 31.3753 46.389 33.7331C45.3757 35.7726 44.6888 37.0032 43.6755 37.0032C42.6879 37.0032 42.0095 35.7726 41.0048 33.7504C39.8455 31.3839 38.5317 28.7076 35.466 28.7076C32.4261 28.7076 31.0865 31.3753 29.9014 33.759C29.2144 35.1186 28.5103 36.5299 27.6945 36.9085C27.2995 37.0806 26.9989 37.399 26.8443 37.8035C26.6898 38.2079 26.6984 38.6468 26.8787 39.0512C27.2222 39.8171 28.2527 40.213 29.0169 39.8601C30.8976 39.0168 31.8679 37.072 32.8039 35.1874C33.8086 33.1738 34.4956 31.9518 35.466 31.9518C36.4449 31.9518 37.1148 33.1738 38.1109 35.196C39.2788 37.5625 40.6012 40.256 43.6755 40.256C46.7669 40.256 48.0979 37.5625 49.283 35.196C50.2877 33.1824 50.9661 31.9604 51.945 31.9604C52.924 31.9604 53.5938 33.1824 54.5899 35.2133C55.7578 37.5797 57.0802 40.256 60.1459 40.256C62.6105 40.256 63.6667 38.9222 64.431 37.9498C65.2382 36.9171 65.8221 36.1685 68.4326 36.1685H69.7122C69.7122 36.1685 69.8925 36.1685 70.2016 36.1685C72.0737 36.1685 79.038 36.1685 80.077 36.1685L76.9083 39.3438C76.5992 39.6536 76.4274 40.0667 76.4274 40.5055C76.4274 40.9444 76.5992 41.3575 76.9083 41.6587C77.5008 42.2524 78.6258 42.2524 79.2183 41.6587L86.3286 34.5162ZM14.9166 39.0168C14.9166 40.6777 13.577 42.0287 11.9196 42.0287C10.2623 42.0287 8.91406 40.6863 8.91406 39.0168C8.91406 37.356 10.2623 36.0136 11.9196 36.0136C13.577 36.0136 14.9166 37.356 14.9166 39.0168ZM23.8302 39.0168C23.8302 40.6777 22.4906 42.0287 20.8332 42.0287C19.1759 42.0287 17.8277 40.6863 17.8277 39.0168C17.8277 37.356 19.1759 36.0136 20.8332 36.0136C22.4906 36.0136 23.8302 37.356 23.8302 39.0168ZM14.9166 30.0501C14.9166 31.7109 13.577 33.0619 11.9196 33.0619C10.2623 33.0619 8.91406 31.7195 8.91406 30.0501C8.91406 28.3892 10.2623 27.0468 11.9196 27.0468C13.577 27.0468 14.9166 28.3978 14.9166 30.0501ZM23.8302 30.0501C23.8302 31.7109 22.4906 33.0619 20.8332 33.0619C19.1759 33.0619 17.8277 31.7195 17.8277 30.0501C17.8277 28.3892 19.1759 27.0468 20.8332 27.0468C22.4906 27.0468 23.8302 28.3978 23.8302 30.0501Z" fill="#00A0AF"/>
</g>
<defs>
<clipPath id="clip0">
<rect width="439" height="87" fill="white"/>
</clipPath>
</defs>
</svg>
