<?xml version="1.0" encoding="UTF-8"?>
<svg id="Layer_2" data-name="Layer 2" xmlns="http://www.w3.org/2000/svg" viewBox="0 0 519.71 151.84">
  <defs>
    <style>
      .cls-1 {
        fill: #ccc;
      }

      .cls-1, .cls-2, .cls-3, .cls-4, .cls-5, .cls-6, .cls-7, .cls-8 {
        stroke-width: 0px;
      }

      .cls-2 {
        fill: #000;
      }

      .cls-9 {
        isolation: isolate;
      }

      .cls-3 {
        fill: none;
      }

      .cls-4 {
        fill: #010101;
      }

      .cls-5 {
        fill: #686969;
      }

      .cls-6 {
        fill: #231f20;
      }

      .cls-7 {
        fill: #727373;
      }

      .cls-8 {
        fill: #fff;
      }
    </style>
  </defs>
  <rect class="cls-5" y=".08" width="151.76" height="151.76" rx="12" ry="12"/>
  <path class="cls-5" d="M80.54,49.18c.36-.2.73-.42,1.08-.66-.57-.6-1.15-1.19-1.73-1.78-1.3.84-2.61,1.27-3.93,1.27-1.19-.04-2.22-.48-3.07-1.29s-1.29-2.29-1.29-4.43c.04-.19.07-.48.07-.86v-.78c.06-.45.13-.89.2-1.34-1.92-1.62-3.9-3.18-5.92-4.65-.1.43-.18.87-.24,1.3,1.03.74,2.06,1.5,3.07,2.29.11.09.22.19.46.41-1.28-.32-2.5-.64-3.7-.94-.01.31-.03.62-.03.94,0,4.14,1,7.17,3,9.07.03.03.06.05.1.08,4.03-.11,8.02.12,11.91,1.38h.02Z"/>
  <path class="cls-1" d="M86.64,33.4c-.08.31-.15.64-.24.97-1.19,4.91-1.83,7.45-1.93,7.64-.33.86-1.38,2.07-3.14,3.64-.47.42-.95.78-1.43,1.09.58.59,1.15,1.18,1.73,1.78.81-.54,1.62-1.18,2.41-1.94l.29-.29c.14-.1.24-.12.29-.07l.43,1.07c.33.76,1.05,1.5,2.15,2.22s1.28.42,2.9.42l1.81-1.92c-.67-.04-1.16-.26-1.5-.64-.33-.38-.5-1.16-.5-2.36.04-.78.71-3.79,2.01-9.04-1.01-.67-2.11-1.27-3.31-1.8-.62-.27-1.27-.52-1.97-.77h.01-.01Z"/>
  <path class="cls-2" d="M118.78,68.34c-.83,2.85-1.59,5.71-2.51,8.53-4.25,12.98-10.57,24.82-19.41,35.28-6.86,8.1-15.3,14.11-24.78,18.73-4.86,2.37-9.88,4.3-15.06,5.81-.31.09-.77.04-1.02-.15-8.76-6.46-15.18-14.67-18.61-25.08-.1-.31-.19-.62-.32-1.03.42,0,.76-.02,1.1,0,5.24.35,10.48.36,15.72-.01,11.55-.83,22.71-3.23,32.99-8.78,10.03-5.4,18.05-13.06,24.75-22.18,2.5-3.41,4.75-6.98,6.72-10.73.08-.15.18-.3.27-.45l.17.06h-.01Z"/>
  <path class="cls-4" d="M123.31,41.53c.25.52.52,1.02.75,1.54,2.23,4.98,3.37,10.23,3.83,15.64,1.04,12.44-1.2,24.43-5.25,36.14-3.14,9.09-7.21,17.71-13.22,25.31-8.79,11.11-19.67,19.6-32.37,25.81-.83.4-1.59.49-2.48.29-3.99-.92-7.62-2.65-11.11-4.73-1-.59-1.97-1.23-3.08-1.94,1.21-.4,2.26-.74,3.3-1.11,15.44-5.46,27.84-15,37.58-28.08,8.36-11.23,13.98-23.76,17.61-37.22,1.19-4.42,2.1-8.91,2.69-13.46.26-2.01.83-3.98,1.15-5.99.63-3.86.73-7.75.5-11.65-.01-.17,0-.33,0-.5.04,0,.08-.03.12-.04h-.02Z"/>
  <path class="cls-4" d="M114.01,73.7c-.04.09-.07.18-.12.26-6.31,9.86-14.11,18.27-24.06,24.56-6.9,4.37-14.44,7.11-22.38,8.8-9.93,2.12-19.97,2.51-30.08,1.85-.51-.03-.74-.2-.87-.73-1.73-6.47-2.61-13.02-2.07-19.71.29-3.53.94-7,1.88-10.42.03-.12.09-.23.13-.34,1.81,1.21,3.58,2.46,5.41,3.6,8.7,5.37,18.17,8.31,28.36,9.02,8.86.62,17.47-.41,25.73-3.83,6.84-2.83,12.7-7.04,17.53-12.67.15-.17.3-.34.45-.5l.1.1h0Z"/>
  <path class="cls-4" d="M62.73,51.9c5.14,1.19,9.87,3.16,13.62,6.89,4.51,4.5,7.89,9.77,9.87,15.86.81,2.5.89,1.91-1.17,3.1-6.94,4-14.39,6.66-22.36,7.71-.9.12-1.88-.03-2.78-.25-8.06-1.99-15.51-5.33-22.23-10.25-.23-.17-.4-.42-.6-.63.27-.15.52-.36.8-.46,5.11-1.66,10.01-3.78,14.23-7.17,2.16-1.73,4.2-3.63,6.15-5.6,2.82-2.85,3.88-5.22,4.46-9.21h0Z"/>
  <path class="cls-8" d="M78.79,36.47c-.29-.06-.74-.11-1.18-.24-2.08-.62-3.35-2.49-2.99-4.36.4-2.05,2.58-3.54,4.85-3.3,1.18.13,2.22.56,3.04,1.44,1.34,1.44,1.36,3.53.01,4.97-.95,1.03-2.18,1.44-3.73,1.48h0Z"/>
  <path class="cls-8" d="M83.56,29.93c-2.35-2.81-5.64-3.07-8.46-.76.51-1.41,2.02-2.22,4.12-2.2,2.2.03,3.69,1.01,4.34,2.95h0Z"/>
  <path class="cls-8" d="M82.74,36.24c-.92,1.56-2.63,2.22-4.51,1.86-2.19-.42-3.51-1.48-3.75-3,2.19,2.69,5.23,3.15,8.26,1.15h0Z"/>
  <path class="cls-3" d="M86.25,22.37c-.86-.9-1.95-1.38-3.28-1.43-1.67,0-3.26.74-4.79,2.22-1.52,1.48-2.71,3.41-3.57,5.79-1.38,3.76-2.36,7.66-2.93,11.71v.78c0,.38-.03.67-.07.86,0,2.15.43,3.62,1.29,4.43s1.88,1.23,3.07,1.29c1.81,0,3.6-.78,5.36-2.36s2.81-2.79,3.14-3.64c.1-.19.74-2.74,1.93-7.64s1.81-7.55,1.86-7.93c0-.29-.12-.81-.36-1.57s-.78-1.6-1.64-2.5h-.01Z"/>
  <path class="cls-3" d="M77.62,36.24c.43.13.89.18,1.18.24,1.55-.04,2.78-.45,3.73-1.48,1.34-1.44,1.33-3.53-.01-4.97-.82-.88-1.86-1.31-3.04-1.44-2.27-.24-4.45,1.25-4.85,3.3-.37,1.87.9,3.74,2.99,4.36h0Z"/>
  <path class="cls-3" d="M83.56,29.93c-.66-1.95-2.15-2.93-4.34-2.95-2.1-.02-3.61.78-4.12,2.2,2.82-2.31,6.11-2.06,8.46.76h0Z"/>
  <path class="cls-3" d="M71.68,41.44c0,.38-.03.67-.07.86,0,2.15.43,3.62,1.29,4.43s1.88,1.23,3.07,1.29c1.32,0,2.64-.43,3.93-1.27-2.57-2.62-5.24-5.09-8.01-7.43-.07.45-.15.89-.2,1.34v.78h-.01Z"/>
  <path class="cls-3" d="M82.74,36.24c-3.04,2.01-6.07,1.55-8.26-1.15.24,1.52,1.56,2.58,3.75,3,1.88.36,3.59-.3,4.51-1.86h0Z"/>
  <path class="cls-3" d="M85.48,32.97c.41.16.79.3,1.16.43.02-.08.03-.15.05-.22-.03,0-.06-.02-.09-.03-.29-.06-.6-.11-1.12-.2h0v.02Z"/>
  <path class="cls-3" d="M83.22,50.22c-.53-.57-1.06-1.14-1.59-1.7-.36.24-.72.46-1.08.66.9.29,1.79.63,2.67,1.04Z"/>
  <path class="cls-4" d="M78.9,19.1c-2.29.29-4.6.73-6.93,1.31-1.58.39-3.09,1.1-4.69,1.69.75,1.53,1.76,2.77,2.85,3.91.27-.36.55-.72.85-1.08,2.44-2.92,5.08-4.86,7.92-5.83h0Z"/>
  <path class="cls-4" d="M121.71,39.15c-.03-.31-.17-.64-.35-.9-3.37-5.03-7.49-9.33-12.59-12.61-6.58-4.23-13.47-6.38-20.59-6.84.78.29,1.51.76,2.13,1.54.76-1.43,0,0,1.39.48.59.2,1.55.36,2.03.74.48.38.74,1.97.74,2.55,0,.62-.1,2.06-1.85,9.06-.18.71-.35,1.39-.51,2.04,2.99,1.58,5.42,3.89,7.05,7.17,2.58,5.21,2.94,10.71,1.6,16.3-2.04,8.49-6.98,14.97-14.26,19.63-5.57,3.56-11.72,5.83-18.14,7.39-.88.21-1.76.4-2.64.6.1.13.18.16.27.17,3.09.27,6.17.66,9.27.8,6.81.3,13.55-.29,20.03-2.51,12.44-4.25,20.81-12.65,24.86-25.16,2.15-6.64,2.19-13.53,1.57-20.42h0v-.03Z"/>
  <path class="cls-4" d="M66.3,22.95c-7.07.99-14.09-.08-21.13.04,7.52,3.09,14.42,7.02,20.8,11.67.57-2.63,1.72-5.18,3.44-7.66-1.23-1.14-2.24-2.53-3.11-4.06h0Z"/>
  <path class="cls-4" d="M79.9,46.74c.48-.31.95-.67,1.43-1.09,1.76-1.57,2.81-2.79,3.14-3.64.1-.19.74-2.74,1.93-7.64.08-.33.16-.66.24-.97-.37-.13-.75-.28-1.16-.43.52.09.83.13,1.12.2.03,0,.06.02.09.03,1-4.14,1.53-6.4,1.57-6.75,0-.29-.12-.81-.36-1.57s-.78-1.6-1.64-2.5-1.95-1.38-3.28-1.43c-1.67,0-3.26.74-4.79,2.22-1.52,1.48-2.71,3.41-3.57,5.79-1.23,3.35-2.13,6.8-2.72,10.38,2.77,2.34,5.44,4.81,8.01,7.43h0v-.03ZM79.21,26.98c2.2.03,3.69,1.01,4.34,2.95-2.35-2.81-5.64-3.07-8.46-.76.51-1.41,2.02-2.22,4.12-2.2h0ZM74.62,31.88c.4-2.05,2.58-3.54,4.85-3.3,1.18.13,2.22.56,3.04,1.44,1.34,1.44,1.36,3.53.01,4.97-.95,1.03-2.18,1.44-3.73,1.48-.29-.06-.74-.11-1.18-.24-2.08-.62-3.35-2.49-2.99-4.36h0ZM78.23,38.09c-2.19-.42-3.51-1.48-3.75-3,2.19,2.69,5.23,3.15,8.26,1.15-.92,1.56-2.63,2.22-4.51,1.86h0Z"/>
  <path class="cls-4" d="M90.4,47.36c.33.38.83.6,1.5.64l-1.81,1.92c-1.62,0-1.8.29-2.9-.42s-1.81-1.45-2.15-2.22l-.43-1.07s-.14-.03-.29.07l-.29.29c-.8.76-1.6,1.4-2.41,1.94.53.56,1.06,1.13,1.59,1.7-.88-.41-1.78-.75-2.67-1.04-1.67.92-3.37,1.39-5.07,1.39-2.58,0-4.86-.93-6.84-2.78-1.85.05-3.69.17-5.54.29,14.34,3.77,22.22,13.31,25,27.71,1.04-.93,2.13-1.81,3.1-2.8,6.23-6.36,9.75-13.82,8.88-22.9-.59-6.2-3.32-10.94-8.17-14.12-1.3,5.25-1.97,8.26-2.01,9.04,0,1.19.17,1.97.5,2.36h.01Z"/>
  <path class="cls-1" d="M88.18,18.79c-1.57-.59-3.37-.43-4.99-.43-1.48.01-2.91.27-4.29.74,3.13-.4,6.23-.51,9.28-.31Z"/>
  <path class="cls-1" d="M80.54,49.18c-3.89-1.26-7.88-1.49-11.91-1.38,1.98,1.85,4.26,2.78,6.84,2.78,1.71,0,3.4-.47,5.07-1.39h0Z"/>
  <path class="cls-1" d="M94.46,24.09c0-.57-.27-2.16-.74-2.55-.48-.38-1.44-.53-2.03-.74-1.39-.48-.64-1.91-1.39-.48-.62-.78-1.34-1.25-2.13-1.54-3.05-.2-6.15-.08-9.28.31-2.85.97-5.49,2.92-7.92,5.83-.3.36-.58.72-.85,1.08,1.11,1.17,2.3,2.24,3.39,3.4-1.62-.52-2.96-1.36-4.1-2.41-1.71,2.48-2.86,5.03-3.44,7.66,2.02,1.48,4,3.03,5.92,4.65.59-3.57,1.5-7.03,2.72-10.38.86-2.38,2.05-4.31,3.57-5.79s3.12-2.22,4.79-2.22c1.33.04,2.43.52,3.28,1.43.85.9,1.41,1.74,1.64,2.5s.36,1.29.36,1.57c-.04.35-.57,2.6-1.57,6.75.34.08.68.17,1.02.26,1.57.45,3.04,1.02,4.4,1.74.16-.65.33-1.32.51-2.04,1.76-7,1.85-8.44,1.85-9.06h0v.03Z"/>
  <path class="cls-1" d="M74.22,12.72l.57-.43c.38-.33.88-.78,1.5-1.36.62-.57,1.24-1.12,1.86-1.64l3.93-3.35,3.79,3.28c2.67,2.34,4.05,3.53,4.14,3.57l1.86-2.07c0-.1-3.09-3.09-9.29-9l-.57-.57-9.78,9.57.93,1c.62.76.97,1.09,1.07,1h-.01Z"/>
  <path class="cls-4" d="M45.13,24.35c-2.36-.99-4.66-1.48-7.24-1.19-5.13.57-10.17,1.46-14.91,3.57-3.27,1.44-6.26,3.29-8.62,6.03-.27.31-.5.66-.79,1.06,1.5-.16,2.86-.27,4.22-.45,7.6-1.04,15.22-1.11,22.84-.35,7.48.74,14.83,2.23,22.13,4,.93.23,1.87.46,2.81.7.03-.59.08-1.17.17-1.75-6.42-4.63-13.25-8.55-20.6-11.62h0Z"/>
  <path class="cls-4" d="M68.81,38.25c-1.01-.78-2.04-1.54-3.07-2.29-.08.58-.14,1.16-.17,1.75,1.2.31,2.43.62,3.7.94-.24-.22-.35-.32-.46-.41h0Z"/>
  <path class="cls-4" d="M79.21,47.5c-4.11-.95-8.27-1.06-12.45-.92-1.65.06-3.3.28-4.95.38-.62.04-1.28.03-1.88-.1-9.34-2.02-18.69-4.03-28.01-6.12-3.88-.87-7.63-2.16-11.07-4.23-.93-.56-1.81-1.19-2.72-1.8.01-.07.03-.14.04-.21,1.16-.15,2.32-.32,3.49-.43,4.98-.49,9.97-.51,14.95-.06,4.05.36,8.08.96,12.1,1.59,4.67.73,9.35,1.46,13.97,2.44,6.3,1.34,11.68,4.49,16.27,9.01.11.1.26.16.39.24-.04.08-.08.15-.13.23h0v-.02Z"/>
  <path class="cls-1" d="M91.9,48.01c.22.06,1.96.19,3.22-.59,1.03-.64,1.38-1.64,1.55-2.11.48-1.39.15-2.62,0-3.17-.1-.34-.39-1.25-2.11-3.33-1.57-1.89-2.69-2.79-2.64-2.84.06-.08,2.56,1.59,4.72,4.45,1.36,1.8,1.79,3.01,1.92,3.41.41,1.24.88,2.65.24,4.01-.6,1.29-1.87,1.83-2.52,2.11-.36.16-1.99.65-4.25.64-1.15,0-2.33,0-3.97-.66"/>
  <path class="cls-1" d="M84.85,86.89c3.41-.8,8.03-2.31,13.68-6.35,2.46-1.76,6.84-4.95,10.32-10.81,4-6.72,4.49-12.97,4.71-16.17.24-3.55.61-8.99-2.03-15.28-2.86-6.8-8.49-10.29-10.19-11.63-4.14-3.26-7.79-4.88-10.2-5.72-3.21-1.11-3.51-2.32-5.56-2.58,2.05.27,2.9.16,6.12,1.27,2.41.83,8.15,3.24,12.29,6.5,1.71,1.34,6.4,5.14,9.26,11.95,2.64,6.29,2.27,11.73,2.03,15.28-.22,3.2-.71,9.45-4.71,16.17-3.48,5.86-7.91,9.62-10.36,11.37-5.65,4.04-12.07,6.05-15.35,6h-.01Z"/>
  <g class="cls-9">
    <path class="cls-6" d="M200.53,34.75c.95.64,1.98,1.27,3.11,1.87,1.12.61,1.87,1.09,2.23,1.44.37.36.55.87.55,1.52,0,.47-.22.93-.65,1.4-.43.47-.95.7-1.56.7-.5,0-1.1-.16-1.81-.48-.71-.32-1.54-.79-2.5-1.4-.96-.61-2-1.33-3.14-2.14-2.12,1.08-4.71,1.62-7.79,1.62-2.5,0-4.73-.4-6.71-1.19-1.98-.8-3.64-1.94-4.98-3.44s-2.35-3.27-3.03-5.33-1.02-4.3-1.02-6.72.35-4.73,1.06-6.79c.71-2.06,1.73-3.81,3.08-5.25s2.98-2.55,4.9-3.32c1.93-.77,4.12-1.15,6.57-1.15,3.33,0,6.18.68,8.57,2.03s4.19,3.27,5.42,5.76c1.23,2.49,1.84,5.41,1.84,8.77,0,5.09-1.38,9.13-4.14,12.1ZM195.43,31.2c.91-1.04,1.57-2.26,2-3.68.43-1.42.65-3.06.65-4.93,0-2.35-.38-4.38-1.14-6.11-.76-1.72-1.84-3.02-3.25-3.91-1.41-.88-3.02-1.32-4.85-1.32-1.3,0-2.5.25-3.6.73-1.1.49-2.05,1.2-2.85,2.13-.8.93-1.42,2.13-1.88,3.58-.46,1.45-.69,3.08-.69,4.89,0,3.69.86,6.53,2.58,8.53s3.9,2.99,6.52,2.99c1.08,0,2.19-.23,3.33-.68-.69-.51-1.54-1.02-2.57-1.53-1.03-.51-1.73-.91-2.11-1.18s-.57-.67-.57-1.18c0-.44.18-.82.55-1.16.36-.34.77-.5,1.2-.5,1.33,0,3.55,1.11,6.68,3.33Z"/>
    <path class="cls-6" d="M225.33,35.91v-.77c-.71.91-1.47,1.66-2.25,2.28s-1.65,1.07-2.58,1.37-2,.45-3.2.45c-1.45,0-2.74-.3-3.89-.9-1.15-.6-2.03-1.42-2.66-2.47-.74-1.27-1.12-3.09-1.12-5.47v-11.84c0-1.2.27-2.09.81-2.68.54-.59,1.25-.89,2.14-.89s1.63.3,2.19.9.83,1.49.83,2.67v9.57c0,1.39.12,2.55.35,3.49s.65,1.68,1.26,2.21,1.43.8,2.46.8,1.96-.3,2.85-.9c.89-.6,1.54-1.38,1.95-2.34.33-.85.5-2.7.5-5.56v-7.27c0-1.18.28-2.07.83-2.67s1.28-.9,2.17-.9,1.61.29,2.15.89c.54.59.81,1.48.81,2.68v17.32c0,1.14-.26,1.99-.78,2.56-.52.57-1.19.85-2,.85s-1.49-.29-2.03-.89c-.53-.59-.8-1.42-.8-2.49Z"/>
  </g>
  <g class="cls-9">
    <path class="cls-6" d="M251.43,6.1c3.33,0,6.18.68,8.57,2.03,2.39,1.35,4.19,3.27,5.42,5.76,1.23,2.49,1.84,5.41,1.84,8.77,0,2.48-.34,4.74-1.01,6.76-.67,2.03-1.68,3.79-3.02,5.28-1.34,1.49-2.99,2.63-4.95,3.42s-4.2,1.18-6.72,1.18-4.76-.4-6.74-1.21c-1.98-.81-3.64-1.95-4.97-3.43-1.33-1.47-2.33-3.25-3.01-5.32s-1.02-4.31-1.02-6.72.35-4.73,1.06-6.79c.71-2.06,1.73-3.81,3.08-5.25s2.98-2.55,4.9-3.32,4.12-1.15,6.57-1.15ZM260.67,22.6c0-2.35-.38-4.38-1.14-6.11-.76-1.72-1.84-3.02-3.25-3.91-1.41-.88-3.02-1.32-4.85-1.32-1.3,0-2.5.25-3.6.73-1.1.49-2.05,1.2-2.85,2.13-.8.93-1.42,2.13-1.88,3.58-.46,1.45-.69,3.08-.69,4.89s.23,3.47.69,4.95c.46,1.47,1.11,2.7,1.95,3.67.84.97,1.8,1.7,2.89,2.18,1.09.48,2.28.72,3.58.72,1.66,0,3.19-.42,4.59-1.25s2.5-2.12,3.33-3.85c.82-1.74,1.24-3.88,1.24-6.41Z"/>
  </g>
  <g class="cls-9">
    <path class="cls-6" d="M291.95,12.01h-7.09v23.31c0,1.34-.3,2.34-.9,2.99-.6.65-1.37.97-2.32.97s-1.75-.33-2.35-.98c-.61-.66-.91-1.65-.91-2.98V12.01h-7.09c-1.11,0-1.93-.24-2.47-.73-.54-.49-.81-1.13-.81-1.94s.28-1.49.84-1.97c.56-.48,1.38-.72,2.44-.72h20.66c1.12,0,1.96.25,2.51.74.55.5.82,1.15.82,1.95s-.28,1.45-.83,1.94c-.56.49-1.39.73-2.5.73Z"/>
  </g>
  <g class="cls-9">
    <path class="cls-6" d="M303.96,9.73v8.87c.76-.88,1.5-1.57,2.22-2.08s1.52-.89,2.4-1.15c.88-.25,1.82-.38,2.82-.38,1.52,0,2.86.32,4.04.96,1.17.64,2.1,1.58,2.77,2.8.42.71.71,1.51.85,2.4.15.88.22,1.9.22,3.05v11.45c0,1.2-.27,2.1-.82,2.71s-1.27.92-2.18.92c-1.97,0-2.96-1.21-2.96-3.63v-10.09c0-1.91-.29-3.38-.85-4.41-.57-1.03-1.65-1.54-3.24-1.54-1.07,0-2.02.3-2.88.91-.85.61-1.49,1.43-1.92,2.48-.32.89-.48,2.47-.48,4.75v7.9c0,1.18-.27,2.08-.8,2.7-.53.62-1.27.93-2.22.93-1.97,0-2.96-1.21-2.96-3.63V9.73c0-1.21.26-2.12.78-2.73.52-.6,1.24-.91,2.18-.91s1.69.31,2.22.92c.53.61.8,1.52.8,2.71Z"/>
    <path class="cls-6" d="M333.05,29.71h-6.92c-1.05,0-1.85-.24-2.4-.73-.55-.49-.82-1.12-.82-1.89s.27-1.43.8-1.92c.53-.49,1.34-.73,2.42-.73h6.92c1.08,0,1.89.24,2.42.73.53.49.8,1.13.8,1.92s-.26,1.41-.79,1.89c-.53.49-1.33.73-2.43.73Z"/>
    <path class="cls-6" d="M366.35,34.75c.95.64,1.98,1.27,3.11,1.87,1.12.61,1.87,1.09,2.23,1.44.37.36.55.87.55,1.52,0,.47-.22.93-.65,1.4-.43.47-.95.7-1.56.7-.5,0-1.1-.16-1.81-.48-.71-.32-1.54-.79-2.5-1.4-.96-.61-2-1.33-3.14-2.14-2.12,1.08-4.71,1.62-7.79,1.62-2.5,0-4.73-.4-6.71-1.19-1.98-.8-3.64-1.94-4.98-3.44s-2.35-3.27-3.03-5.33-1.02-4.3-1.02-6.72.35-4.73,1.06-6.79c.71-2.06,1.73-3.81,3.08-5.25s2.98-2.55,4.9-3.32c1.93-.77,4.12-1.15,6.57-1.15,3.33,0,6.18.68,8.57,2.03s4.19,3.27,5.42,5.76c1.23,2.49,1.84,5.41,1.84,8.77,0,5.09-1.38,9.13-4.14,12.1ZM361.25,31.2c.91-1.04,1.57-2.26,2-3.68.43-1.42.65-3.06.65-4.93,0-2.35-.38-4.38-1.14-6.11-.76-1.72-1.84-3.02-3.25-3.91-1.41-.88-3.02-1.32-4.85-1.32-1.3,0-2.5.25-3.6.73-1.1.49-2.05,1.2-2.85,2.13-.8.93-1.42,2.13-1.88,3.58-.46,1.45-.69,3.08-.69,4.89,0,3.69.86,6.53,2.58,8.53s3.9,2.99,6.52,2.99c1.08,0,2.19-.23,3.33-.68-.69-.51-1.54-1.02-2.57-1.53-1.03-.51-1.73-.91-2.11-1.18s-.57-.67-.57-1.18c0-.44.18-.82.55-1.16.36-.34.77-.5,1.2-.5,1.33,0,3.55,1.11,6.68,3.33Z"/>
    <path class="cls-6" d="M376.31,35.32V10.04c0-1.31.3-2.3.9-2.96.6-.66,1.37-.99,2.32-.99s1.77.33,2.38.97c.61.65.91,1.64.91,2.97v25.28c0,1.33-.3,2.32-.91,2.98-.61.66-1.4.98-2.38.98s-1.7-.33-2.31-1c-.61-.66-.91-1.65-.91-2.97Z"/>
  </g>
  <g class="cls-9">
    <path class="cls-6" d="M186.91,62.4c.51.34,1.06.68,1.66,1s1,.58,1.2.77.29.46.29.81c0,.25-.12.5-.35.75s-.51.38-.84.38c-.27,0-.59-.09-.97-.26s-.82-.42-1.34-.75-1.07-.71-1.68-1.15c-1.13.58-2.52.87-4.17.87-1.34,0-2.53-.21-3.59-.64s-1.95-1.04-2.67-1.84-1.26-1.75-1.62-2.85-.54-2.3-.54-3.6.19-2.53.57-3.63.93-2.04,1.65-2.81,1.59-1.37,2.62-1.78,2.2-.62,3.52-.62c1.78,0,3.31.36,4.59,1.08s2.24,1.75,2.9,3.08.98,2.9.98,4.69c0,2.73-.74,4.89-2.21,6.48ZM184.18,60.5c.48-.55.84-1.21,1.07-1.97s.35-1.64.35-2.64c0-1.26-.2-2.35-.61-3.27s-.99-1.62-1.74-2.09-1.62-.71-2.6-.71c-.7,0-1.34.13-1.93.39s-1.1.64-1.52,1.14-.76,1.14-1.01,1.92-.37,1.65-.37,2.62c0,1.98.46,3.5,1.38,4.56s2.09,1.6,3.49,1.6c.58,0,1.17-.12,1.78-.36-.37-.27-.83-.55-1.38-.82s-.93-.48-1.13-.63-.3-.36-.3-.63c0-.23.1-.44.29-.62s.41-.27.64-.27c.71,0,1.9.59,3.57,1.78Z"/>
    <path class="cls-6" d="M200.19,63.02v-.41c-.38.48-.79.89-1.21,1.22s-.88.57-1.38.73-1.07.24-1.71.24c-.77,0-1.47-.16-2.08-.48s-1.09-.76-1.42-1.32c-.4-.68-.6-1.66-.6-2.93v-6.34c0-.64.14-1.12.43-1.44s.67-.47,1.15-.47.88.16,1.17.48.45.8.45,1.43v5.12c0,.74.06,1.37.19,1.87s.35.9.67,1.18.76.43,1.32.43,1.05-.16,1.52-.48.82-.74,1.04-1.25c.18-.45.27-1.45.27-2.98v-3.89c0-.63.15-1.11.45-1.43s.68-.48,1.16-.48.86.16,1.15.47.43.79.43,1.44v9.27c0,.61-.14,1.07-.42,1.37s-.63.46-1.07.46-.8-.16-1.08-.47-.43-.76-.43-1.33Z"/>
    <path class="cls-6" d="M214.46,63.02c-.77.6-1.52,1.05-2.24,1.35s-1.53.45-2.43.45c-.82,0-1.54-.16-2.16-.49s-1.1-.76-1.44-1.32-.5-1.16-.5-1.8c0-.88.28-1.62.83-2.24s1.32-1.03,2.29-1.24c.2-.05.71-.15,1.51-.32s1.49-.31,2.07-.45,1.2-.3,1.87-.5c-.04-.84-.21-1.46-.51-1.86s-.92-.59-1.87-.59c-.81,0-1.42.11-1.83.34s-.76.57-1.05,1.02-.5.75-.62.9-.38.22-.78.22c-.36,0-.67-.12-.93-.35s-.39-.53-.39-.88c0-.56.2-1.11.6-1.64s1.02-.97,1.86-1.31,1.89-.52,3.15-.52c1.41,0,2.51.17,3.32.5s1.37.86,1.71,1.58.5,1.67.5,2.86c0,.75,0,1.39,0,1.91s0,1.11-.02,1.75c0,.6.1,1.23.3,1.88s.3,1.07.3,1.26c0,.33-.15.63-.46.9s-.66.4-1.05.4c-.33,0-.65-.15-.97-.46s-.66-.76-1.02-1.34ZM214.25,58.39c-.47.17-1.15.35-2.04.54s-1.51.33-1.86.42-.67.27-.98.53-.47.63-.47,1.1.18.9.55,1.24.85.51,1.44.51c.63,0,1.22-.14,1.75-.42s.93-.63,1.18-1.07c.29-.48.43-1.28.43-2.39v-.46Z"/>
    <path class="cls-6" d="M223.54,53.59v.39c.56-.74,1.18-1.29,1.85-1.63s1.44-.52,2.3-.52,1.6.18,2.26.55,1.16.89,1.49,1.56c.21.39.35.81.41,1.27s.09,1.03.09,1.73v5.95c0,.64-.15,1.12-.44,1.45s-.67.49-1.14.49-.86-.17-1.16-.5-.45-.82-.45-1.44v-5.33c0-1.05-.15-1.86-.44-2.42s-.88-.84-1.75-.84c-.57,0-1.09.17-1.56.51s-.81.81-1.03,1.4c-.16.48-.23,1.37-.23,2.67v4.01c0,.65-.15,1.13-.45,1.46s-.69.49-1.17.49-.84-.17-1.14-.5-.45-.82-.45-1.44v-9.25c0-.61.13-1.06.4-1.37s.63-.45,1.09-.45c.28,0,.54.07.76.2s.41.33.54.6.21.59.21.97Z"/>
    <path class="cls-6" d="M235.31,52.1h.35v-1.92c0-.52.01-.92.04-1.21s.1-.54.23-.76c.12-.22.3-.4.54-.53s.5-.21.79-.21c.41,0,.77.15,1.1.46.22.2.36.45.42.74s.09.71.09,1.25v2.18h1.17c.45,0,.8.11,1.04.32s.36.49.36.83c0,.43-.17.73-.51.9s-.83.26-1.46.26h-.6v5.88c0,.5.02.88.05,1.15s.13.49.28.66.4.25.74.25c.19,0,.44-.03.76-.1s.57-.1.75-.1c.26,0,.49.1.7.31s.31.46.31.77c0,.52-.28.91-.84,1.18s-1.37.41-2.43.41c-1,0-1.76-.17-2.27-.5s-.85-.8-1.01-1.39-.24-1.39-.24-2.38v-6.14h-.42c-.46,0-.81-.11-1.05-.33s-.36-.5-.36-.83.13-.61.38-.83.62-.32,1.11-.32Z"/>
    <path class="cls-6" d="M251.94,63.02v-.41c-.38.48-.79.89-1.21,1.22s-.88.57-1.38.73-1.07.24-1.71.24c-.77,0-1.47-.16-2.08-.48s-1.09-.76-1.42-1.32c-.4-.68-.6-1.66-.6-2.93v-6.34c0-.64.14-1.12.43-1.44s.67-.47,1.15-.47.88.16,1.17.48.45.8.45,1.43v5.12c0,.74.06,1.37.19,1.87s.35.9.67,1.18.76.43,1.32.43,1.05-.16,1.52-.48.82-.74,1.04-1.25c.18-.45.27-1.45.27-2.98v-3.89c0-.63.15-1.11.45-1.43s.68-.48,1.16-.48.86.16,1.15.47.43.79.43,1.44v9.27c0,.61-.14,1.07-.42,1.37s-.63.46-1.07.46-.8-.16-1.08-.47-.43-.76-.43-1.33Z"/>
    <path class="cls-6" d="M268.77,58.56v4.25c0,.67-.15,1.18-.46,1.51s-.71.5-1.21.5-.88-.17-1.18-.5-.45-.84-.45-1.51v-5.1c0-.8-.03-1.43-.08-1.88s-.2-.81-.45-1.1-.62-.43-1.15-.43c-1.05,0-1.74.36-2.07,1.08s-.5,1.75-.5,3.09v4.32c0,.66-.15,1.17-.45,1.51s-.7.51-1.19.51-.88-.17-1.19-.51-.46-.84-.46-1.51v-9.15c0-.6.14-1.06.42-1.37s.64-.47,1.1-.47.8.15,1.1.44.44.7.44,1.21v.3c.55-.66,1.15-1.15,1.78-1.46s1.34-.47,2.11-.47,1.5.16,2.07.48,1.05.8,1.43,1.45c.54-.66,1.12-1.14,1.73-1.46s1.3-.47,2.05-.47c.88,0,1.63.17,2.26.52s1.11.84,1.42,1.48c.27.58.41,1.49.41,2.73v6.25c0,.67-.15,1.18-.46,1.51s-.71.5-1.21.5-.88-.17-1.19-.51-.46-.84-.46-1.51v-5.38c0-.69-.03-1.24-.09-1.65s-.22-.76-.47-1.04-.65-.42-1.17-.42c-.42,0-.82.12-1.2.38s-.67.59-.88,1.01c-.23.54-.35,1.49-.35,2.86Z"/>
    <path class="cls-6" d="M297.34,58.32c0,.95-.15,1.83-.45,2.64s-.73,1.5-1.29,2.07-1.23,1.02-2.02,1.33-1.66.46-2.64.46-1.84-.16-2.61-.47-1.44-.76-2.01-1.34-1-1.27-1.29-2.06-.44-1.67-.44-2.63.15-1.86.45-2.66.72-1.49,1.28-2.06,1.23-1.01,2.02-1.32,1.66-.46,2.61-.46,1.85.16,2.64.47,1.46.76,2.03,1.34.99,1.27,1.28,2.06.44,1.68.44,2.64ZM294.13,58.32c0-1.3-.29-2.32-.86-3.05s-1.35-1.09-2.31-1.09c-.62,0-1.18.16-1.65.49s-.84.8-1.1,1.44-.39,1.37-.39,2.21.13,1.57.38,2.19.62,1.1,1.09,1.44,1.03.5,1.67.5c.97,0,1.74-.37,2.31-1.1s.86-1.74.86-3.03Z"/>
    <path class="cls-6" d="M302.81,53.61v.39c.6-.74,1.23-1.29,1.88-1.63s1.38-.52,2.2-.52c.98,0,1.89.25,2.72.76s1.48,1.25,1.96,2.23.72,2.13.72,3.47c0,.98-.14,1.89-.42,2.71s-.66,1.52-1.14,2.07-1.06.99-1.72,1.29-1.37.45-2.13.45c-.91,0-1.68-.18-2.3-.55s-1.21-.91-1.78-1.62v4.8c0,1.41-.51,2.11-1.54,2.11-.6,0-1-.18-1.2-.54s-.29-.89-.29-1.59v-13.8c0-.61.13-1.06.4-1.37s.63-.45,1.09-.45.82.15,1.11.46.43.75.43,1.33ZM309.08,58.26c0-.84-.13-1.57-.39-2.17s-.62-1.07-1.07-1.39-.96-.49-1.52-.49c-.88,0-1.63.35-2.23,1.04s-.91,1.72-.91,3.07c0,1.27.3,2.26.9,2.97s1.35,1.06,2.24,1.06c.53,0,1.02-.15,1.48-.46s.82-.77,1.09-1.39.41-1.36.41-2.24Z"/>
    <path class="cls-6" d="M315.03,52.1h.35v-1.92c0-.52.01-.92.04-1.21s.1-.54.23-.76c.12-.22.3-.4.54-.53s.5-.21.79-.21c.41,0,.77.15,1.1.46.22.2.36.45.42.74s.09.71.09,1.25v2.18h1.17c.45,0,.8.11,1.04.32s.36.49.36.83c0,.43-.17.73-.51.9s-.83.26-1.46.26h-.6v5.88c0,.5.02.88.05,1.15s.13.49.28.66.4.25.74.25c.19,0,.44-.03.76-.1s.57-.1.75-.1c.26,0,.49.1.7.31s.31.46.31.77c0,.52-.28.91-.84,1.18s-1.37.41-2.43.41c-1,0-1.76-.17-2.27-.5s-.85-.8-1.01-1.39-.24-1.39-.24-2.38v-6.14h-.42c-.46,0-.81-.11-1.05-.33s-.36-.5-.36-.83.13-.61.38-.83.62-.32,1.11-.32Z"/>
    <path class="cls-6" d="M324.97,50.33c-.45,0-.83-.14-1.14-.41s-.47-.66-.47-1.16c0-.45.16-.83.49-1.12s.7-.44,1.13-.44.78.13,1.1.4.48.65.48,1.16-.16.88-.47,1.15-.68.42-1.11.42ZM326.55,53.63v9.25c0,.64-.15,1.12-.46,1.45s-.69.49-1.16.49-.85-.17-1.14-.5-.44-.82-.44-1.44v-9.15c0-.63.15-1.11.44-1.43s.67-.48,1.14-.48.86.16,1.16.48.46.77.46,1.34Z"/>
    <path class="cls-6" d="M341.33,60.87c0,.4-.12.82-.36,1.28s-.6.88-1.09,1.29-1.1.74-1.85.99-1.58.38-2.51.38c-1.98,0-3.52-.58-4.63-1.73s-1.66-2.7-1.66-4.63c0-1.31.25-2.47.76-3.48s1.24-1.79,2.2-2.34,2.11-.83,3.45-.83c.83,0,1.59.12,2.28.36s1.28.55,1.76.94.85.79,1.1,1.22.38.84.38,1.21-.14.71-.43.97-.63.4-1.04.4c-.27,0-.49-.07-.66-.21s-.37-.36-.59-.66c-.39-.59-.8-1.04-1.22-1.34s-.97-.45-1.62-.45c-.95,0-1.71.37-2.29,1.11s-.87,1.75-.87,3.03c0,.6.07,1.15.22,1.66s.36.93.64,1.29.62.62,1.02.81.84.28,1.31.28c.64,0,1.19-.15,1.65-.45s.86-.75,1.21-1.36c.2-.36.41-.64.63-.84s.5-.3.83-.3c.39,0,.71.15.97.45s.39.61.39.95Z"/>
    <path class="cls-6" d="M354.42,60.64c0,.88-.21,1.64-.64,2.27s-1.06,1.11-1.9,1.43-1.86.49-3.06.49-2.13-.18-2.95-.53-1.43-.79-1.82-1.32-.59-1.06-.59-1.59c0-.35.12-.65.38-.9s.57-.38.95-.38c.34,0,.59.08.77.25s.35.39.52.69c.33.57.72,1,1.18,1.28s1.08.42,1.87.42c.64,0,1.17-.14,1.58-.43s.62-.61.62-.98c0-.56-.21-.97-.64-1.23s-1.13-.5-2.1-.74c-1.1-.27-2-.56-2.69-.86s-1.24-.7-1.66-1.19-.62-1.1-.62-1.82c0-.64.19-1.25.57-1.82s.95-1.03,1.69-1.37,1.65-.51,2.7-.51c.83,0,1.57.09,2.23.26s1.21.4,1.65.69.78.61,1.01.96.35.7.35,1.03c0,.37-.12.67-.37.9s-.6.35-1.05.35c-.33,0-.61-.09-.84-.28s-.49-.47-.79-.84c-.24-.31-.53-.56-.86-.75s-.77-.28-1.34-.28-1.06.12-1.44.37-.57.55-.57.92c0,.34.14.61.42.83s.66.39,1.14.53,1.13.31,1.97.52c.99.24,1.8.53,2.43.87s1.11.73,1.43,1.19.49.98.49,1.56Z"/>
    <path class="cls-6" d="M371.21,63.02c-.77.6-1.52,1.05-2.24,1.35s-1.53.45-2.43.45c-.82,0-1.54-.16-2.16-.49s-1.1-.76-1.44-1.32-.5-1.16-.5-1.8c0-.88.28-1.62.83-2.24s1.32-1.03,2.29-1.24c.2-.05.71-.15,1.51-.32s1.49-.31,2.07-.45,1.2-.3,1.87-.5c-.04-.84-.21-1.46-.51-1.86s-.92-.59-1.87-.59c-.81,0-1.42.11-1.83.34s-.76.57-1.05,1.02-.5.75-.62.9-.38.22-.78.22c-.36,0-.67-.12-.93-.35s-.39-.53-.39-.88c0-.56.2-1.11.6-1.64s1.02-.97,1.86-1.31,1.89-.52,3.15-.52c1.41,0,2.51.17,3.32.5s1.37.86,1.71,1.58.5,1.67.5,2.86c0,.75,0,1.39,0,1.91s0,1.11-.02,1.75c0,.6.1,1.23.3,1.88s.3,1.07.3,1.26c0,.33-.15.63-.46.9s-.66.4-1.05.4c-.33,0-.65-.15-.97-.46s-.66-.76-1.02-1.34ZM371,58.39c-.47.17-1.15.35-2.04.54s-1.51.33-1.86.42-.67.27-.98.53-.47.63-.47,1.1.18.9.55,1.24.85.51,1.44.51c.63,0,1.22-.14,1.75-.42s.93-.63,1.18-1.07c.29-.48.43-1.28.43-2.39v-.46Z"/>
    <path class="cls-6" d="M380.29,53.59v.39c.56-.74,1.18-1.29,1.85-1.63s1.44-.52,2.3-.52,1.6.18,2.26.55,1.16.89,1.49,1.56c.21.39.35.81.41,1.27s.09,1.03.09,1.73v5.95c0,.64-.15,1.12-.44,1.45s-.67.49-1.14.49-.86-.17-1.16-.5-.45-.82-.45-1.44v-5.33c0-1.05-.15-1.86-.44-2.42s-.88-.84-1.75-.84c-.57,0-1.09.17-1.56.51s-.81.81-1.03,1.4c-.16.48-.23,1.37-.23,2.67v4.01c0,.65-.15,1.13-.45,1.46s-.69.49-1.17.49-.84-.17-1.14-.5-.45-.82-.45-1.44v-9.25c0-.61.13-1.06.4-1.37s.63-.45,1.09-.45c.28,0,.54.07.76.2s.41.33.54.6.21.59.21.97Z"/>
    <path class="cls-6" d="M400.65,63v-.32c-.43.49-.85.89-1.27,1.2s-.87.54-1.36.7-1.02.24-1.6.24c-.77,0-1.47-.16-2.13-.49s-1.22-.79-1.69-1.39-.84-1.31-1.08-2.12-.37-1.69-.37-2.64c0-2,.49-3.56,1.46-4.68s2.26-1.68,3.86-1.68c.92,0,1.7.16,2.33.47s1.25.8,1.85,1.46v-4.72c0-.66.13-1.15.39-1.49s.63-.5,1.12-.5.86.15,1.12.46.39.76.39,1.37v14.11c0,.61-.14,1.07-.42,1.37s-.64.46-1.09.46-.8-.16-1.08-.47-.43-.77-.43-1.35ZM394.36,58.3c0,.87.13,1.61.4,2.21s.64,1.07,1.11,1.38.98.46,1.54.46,1.08-.15,1.54-.44.84-.74,1.11-1.35.42-1.36.42-2.27c0-.85-.14-1.58-.42-2.2s-.65-1.08-1.12-1.41-.99-.49-1.55-.49-1.11.17-1.57.5-.82.81-1.07,1.43-.38,1.34-.38,2.16Z"/>
    <path class="cls-6" d="M421.65,67.44v-4.51c-.62.62-1.26,1.09-1.93,1.41s-1.41.49-2.22.49c-.99,0-1.9-.26-2.71-.79s-1.46-1.28-1.92-2.26-.7-2.13-.7-3.46.23-2.53.7-3.5,1.12-1.71,1.95-2.22,1.76-.76,2.77-.76c.86,0,1.63.18,2.31.53s1.26.9,1.75,1.62v-.39c0-.59.14-1.03.42-1.34s.64-.46,1.09-.46.81.15,1.09.45.42.75.42,1.34v13.83c0,1.42-.5,2.13-1.51,2.13-.62,0-1.03-.19-1.22-.57s-.29-.9-.29-1.56ZM415.38,58.3c0,.86.14,1.6.42,2.22s.64,1.08,1.1,1.38.94.45,1.46.45c.57,0,1.09-.15,1.57-.45s.86-.76,1.15-1.38.43-1.38.43-2.29c0-.64-.08-1.22-.25-1.73s-.4-.94-.69-1.28-.62-.59-1-.76-.77-.25-1.2-.25c-.86,0-1.57.36-2.14,1.07s-.86,1.72-.86,3.02Z"/>
    <path class="cls-6" d="M436.19,63.02v-.41c-.38.48-.79.89-1.21,1.22s-.88.57-1.38.73-1.07.24-1.71.24c-.77,0-1.47-.16-2.08-.48s-1.09-.76-1.42-1.32c-.4-.68-.6-1.66-.6-2.93v-6.34c0-.64.14-1.12.43-1.44s.67-.47,1.15-.47.88.16,1.17.48.45.8.45,1.43v5.12c0,.74.06,1.37.19,1.87s.35.9.67,1.18.76.43,1.32.43,1.05-.16,1.52-.48.82-.74,1.04-1.25c.18-.45.27-1.45.27-2.98v-3.89c0-.63.15-1.11.45-1.43s.68-.48,1.16-.48.86.16,1.15.47.43.79.43,1.44v9.27c0,.61-.14,1.07-.42,1.37s-.63.46-1.07.46-.8-.16-1.08-.47-.43-.76-.43-1.33Z"/>
    <path class="cls-6" d="M450.47,63.02c-.77.6-1.52,1.05-2.24,1.35s-1.53.45-2.43.45c-.82,0-1.54-.16-2.16-.49s-1.1-.76-1.44-1.32-.5-1.16-.5-1.8c0-.88.28-1.62.83-2.24s1.32-1.03,2.29-1.24c.2-.05.71-.15,1.51-.32s1.49-.31,2.07-.45,1.2-.3,1.87-.5c-.04-.84-.21-1.46-.51-1.86s-.92-.59-1.87-.59c-.81,0-1.42.11-1.83.34s-.76.57-1.05,1.02-.5.75-.62.9-.38.22-.78.22c-.36,0-.67-.12-.93-.35s-.39-.53-.39-.88c0-.56.2-1.11.6-1.64s1.02-.97,1.86-1.31,1.89-.52,3.15-.52c1.41,0,2.51.17,3.32.5s1.37.86,1.71,1.58.5,1.67.5,2.86c0,.75,0,1.39,0,1.91s0,1.11-.02,1.75c0,.6.1,1.23.3,1.88s.3,1.07.3,1.26c0,.33-.15.63-.46.9s-.66.4-1.05.4c-.33,0-.65-.15-.97-.46s-.66-.76-1.02-1.34ZM450.25,58.39c-.47.17-1.15.35-2.04.54s-1.51.33-1.86.42-.67.27-.98.53-.47.63-.47,1.1.18.9.55,1.24.85.51,1.44.51c.63,0,1.22-.14,1.75-.42s.93-.63,1.18-1.07c.29-.48.43-1.28.43-2.39v-.46Z"/>
    <path class="cls-6" d="M459.55,53.59v.39c.56-.74,1.18-1.29,1.85-1.63s1.44-.52,2.3-.52,1.6.18,2.26.55,1.16.89,1.49,1.56c.21.39.35.81.41,1.27s.09,1.03.09,1.73v5.95c0,.64-.15,1.12-.44,1.45s-.67.49-1.14.49-.86-.17-1.16-.5-.45-.82-.45-1.44v-5.33c0-1.05-.15-1.86-.44-2.42s-.88-.84-1.75-.84c-.57,0-1.09.17-1.56.51s-.81.81-1.03,1.4c-.16.48-.23,1.37-.23,2.67v4.01c0,.65-.15,1.13-.45,1.46s-.69.49-1.17.49-.84-.17-1.14-.5-.45-.82-.45-1.44v-9.25c0-.61.13-1.06.4-1.37s.63-.45,1.09-.45c.28,0,.54.07.76.2s.41.33.54.6.21.59.21.97Z"/>
    <path class="cls-6" d="M471.31,52.1h.35v-1.92c0-.52.01-.92.04-1.21s.1-.54.23-.76c.12-.22.3-.4.54-.53s.5-.21.79-.21c.41,0,.77.15,1.1.46.22.2.36.45.42.74s.09.71.09,1.25v2.18h1.17c.45,0,.8.11,1.04.32s.36.49.36.83c0,.43-.17.73-.51.9s-.83.26-1.46.26h-.6v5.88c0,.5.02.88.05,1.15s.13.49.28.66.4.25.74.25c.19,0,.44-.03.76-.1s.57-.1.75-.1c.26,0,.49.1.7.31s.31.46.31.77c0,.52-.28.91-.84,1.18s-1.37.41-2.43.41c-1,0-1.76-.17-2.27-.5s-.85-.8-1.01-1.39-.24-1.39-.24-2.38v-6.14h-.42c-.46,0-.81-.11-1.05-.33s-.36-.5-.36-.83.13-.61.38-.83.62-.32,1.11-.32Z"/>
    <path class="cls-6" d="M487.94,63.02v-.41c-.38.48-.79.89-1.21,1.22s-.88.57-1.38.73-1.07.24-1.71.24c-.77,0-1.47-.16-2.08-.48s-1.09-.76-1.42-1.32c-.4-.68-.6-1.66-.6-2.93v-6.34c0-.64.14-1.12.43-1.44s.67-.47,1.15-.47.88.16,1.17.48.45.8.45,1.43v5.12c0,.74.06,1.37.19,1.87s.35.9.67,1.18.76.43,1.32.43,1.05-.16,1.52-.48.82-.74,1.04-1.25c.18-.45.27-1.45.27-2.98v-3.89c0-.63.15-1.11.45-1.43s.68-.48,1.16-.48.86.16,1.15.47.43.79.43,1.44v9.27c0,.61-.14,1.07-.42,1.37s-.63.46-1.07.46-.8-.16-1.08-.47-.43-.76-.43-1.33Z"/>
    <path class="cls-6" d="M504.77,58.56v4.25c0,.67-.15,1.18-.46,1.51s-.71.5-1.21.5-.88-.17-1.18-.5-.45-.84-.45-1.51v-5.1c0-.8-.03-1.43-.08-1.88s-.2-.81-.45-1.1-.62-.43-1.15-.43c-1.05,0-1.74.36-2.07,1.08s-.5,1.75-.5,3.09v4.32c0,.66-.15,1.17-.45,1.51s-.7.51-1.19.51-.88-.17-1.19-.51-.46-.84-.46-1.51v-9.15c0-.6.14-1.06.42-1.37s.64-.47,1.1-.47.8.15,1.1.44.44.7.44,1.21v.3c.55-.66,1.15-1.15,1.78-1.46s1.34-.47,2.11-.47,1.5.16,2.07.48,1.05.8,1.43,1.45c.54-.66,1.12-1.14,1.73-1.46s1.3-.47,2.05-.47c.88,0,1.63.17,2.26.52s1.11.84,1.42,1.48c.27.58.41,1.49.41,2.73v6.25c0,.67-.15,1.18-.46,1.51s-.71.5-1.21.5-.88-.17-1.19-.51-.46-.84-.46-1.51v-5.38c0-.69-.03-1.24-.09-1.65s-.22-.76-.47-1.04-.65-.42-1.17-.42c-.42,0-.82.12-1.2.38s-.67.59-.88,1.01c-.23.54-.35,1.49-.35,2.86Z"/>
  </g>
  <g class="cls-9">
    <path class="cls-6" d="M174.49,79.13c-.45,0-.83-.14-1.14-.41s-.47-.66-.47-1.16c0-.45.16-.83.49-1.12s.7-.44,1.13-.44.78.13,1.1.4.48.65.48,1.16-.16.88-.47,1.15-.68.42-1.11.42ZM176.07,82.44v9.25c0,.64-.15,1.12-.46,1.45s-.69.49-1.16.49-.85-.17-1.14-.5-.44-.82-.44-1.44v-9.15c0-.63.15-1.11.44-1.43s.67-.48,1.14-.48.86.16,1.16.48.46.77.46,1.34Z"/>
    <path class="cls-6" d="M182.28,82.39v.39c.56-.74,1.18-1.29,1.85-1.63s1.44-.52,2.3-.52,1.6.18,2.26.55,1.16.89,1.49,1.56c.21.39.35.81.41,1.27s.09,1.03.09,1.73v5.95c0,.64-.15,1.12-.44,1.45s-.67.49-1.14.49-.86-.17-1.16-.5-.45-.82-.45-1.44v-5.33c0-1.05-.15-1.86-.44-2.42s-.88-.84-1.75-.84c-.57,0-1.09.17-1.56.51s-.81.81-1.03,1.4c-.16.48-.23,1.37-.23,2.67v4.01c0,.65-.15,1.13-.45,1.46s-.69.49-1.17.49-.84-.17-1.14-.5-.45-.82-.45-1.44v-9.25c0-.61.13-1.06.4-1.37s.63-.45,1.09-.45c.28,0,.54.07.76.2s.41.33.54.6.21.59.21.97Z"/>
  </g>
  <g class="cls-9">
    <path class="cls-6" d="M193.61,80.9h.76v-.96c0-1,.13-1.79.38-2.38s.68-1.02,1.29-1.29,1.44-.4,2.49-.4c1.87,0,2.8.46,2.8,1.37,0,.3-.1.55-.29.76s-.43.32-.69.32c-.12,0-.34-.02-.64-.07s-.56-.07-.77-.07c-.58,0-.95.17-1.11.51s-.25.83-.25,1.46v.76h.79c1.22,0,1.83.37,1.83,1.1,0,.52-.16.86-.49,1s-.77.21-1.34.21h-.79v8.47c0,.63-.15,1.12-.45,1.45s-.69.5-1.17.5-.83-.17-1.13-.5-.45-.81-.45-1.45v-8.47h-.88c-.48,0-.84-.11-1.1-.32s-.39-.49-.39-.84c0-.77.54-1.15,1.61-1.15Z"/>
  </g>
  <g class="cls-9">
    <path class="cls-6" d="M213.53,87.12c0,.95-.15,1.83-.45,2.64s-.73,1.5-1.29,2.07-1.23,1.02-2.02,1.33-1.66.46-2.64.46-1.84-.16-2.61-.47-1.44-.76-2.01-1.34-1-1.27-1.29-2.06-.44-1.67-.44-2.63.15-1.86.45-2.66c.3-.8.72-1.49,1.28-2.06s1.23-1.01,2.02-1.32,1.66-.46,2.61-.46,1.85.16,2.64.47,1.46.76,2.03,1.34.99,1.27,1.28,2.06c.29.8.44,1.68.44,2.64ZM210.32,87.12c0-1.3-.29-2.32-.86-3.05s-1.35-1.09-2.31-1.09c-.62,0-1.18.16-1.65.49s-.84.8-1.1,1.44c-.26.63-.39,1.37-.39,2.21s.13,1.57.38,2.19.62,1.1,1.09,1.44,1.03.5,1.67.5c.97,0,1.74-.37,2.31-1.1s.86-1.74.86-3.03Z"/>
    <path class="cls-6" d="M219.22,89.01v2.67c0,.65-.15,1.13-.46,1.46s-.69.49-1.16.49-.84-.16-1.14-.49-.45-.81-.45-1.45v-8.91c0-1.44.52-2.16,1.56-2.16.53,0,.91.17,1.15.5s.36.83.39,1.49c.38-.66.78-1.15,1.18-1.49s.94-.5,1.61-.5,1.32.17,1.96.5.95.78.95,1.34c0,.39-.13.71-.4.97s-.56.38-.87.38c-.12,0-.4-.07-.85-.22s-.85-.22-1.19-.22c-.47,0-.85.12-1.15.37s-.53.61-.69,1.1c-.16.48-.28,1.06-.34,1.73s-.09,1.48-.09,2.44Z"/>
    <path class="cls-6" d="M237.2,87.36v4.25c0,.67-.15,1.18-.46,1.51s-.71.5-1.21.5-.88-.17-1.18-.5-.45-.84-.45-1.51v-5.1c0-.8-.03-1.43-.08-1.87-.05-.45-.2-.81-.45-1.1s-.62-.43-1.15-.43c-1.05,0-1.74.36-2.07,1.08s-.5,1.75-.5,3.09v4.32c0,.66-.15,1.17-.45,1.51s-.7.51-1.19.51-.88-.17-1.19-.51-.46-.84-.46-1.51v-9.15c0-.6.14-1.06.42-1.37s.64-.47,1.1-.47.8.15,1.1.44.44.7.44,1.21v.3c.55-.66,1.15-1.15,1.78-1.46s1.34-.47,2.11-.47,1.5.16,2.07.48,1.05.8,1.43,1.45c.54-.66,1.12-1.14,1.73-1.46s1.3-.47,2.05-.47c.88,0,1.63.17,2.26.52s1.11.84,1.42,1.48c.27.58.41,1.49.41,2.73v6.25c0,.67-.15,1.18-.46,1.51s-.71.5-1.21.5-.88-.17-1.19-.51-.46-.84-.46-1.51v-5.38c0-.69-.03-1.24-.09-1.65-.06-.41-.22-.76-.47-1.04s-.65-.42-1.17-.42c-.42,0-.82.12-1.2.38s-.67.59-.88,1.01c-.23.54-.35,1.49-.35,2.86Z"/>
  </g>
  <g class="cls-9">
    <path class="cls-6" d="M255.88,91.82c-.77.6-1.52,1.05-2.24,1.35s-1.53.45-2.43.45c-.82,0-1.54-.16-2.16-.49s-1.1-.76-1.44-1.32-.5-1.16-.5-1.8c0-.88.28-1.62.83-2.24s1.32-1.03,2.29-1.24c.2-.05.71-.15,1.51-.32s1.49-.31,2.07-.45,1.2-.3,1.87-.5c-.04-.84-.21-1.46-.51-1.86s-.92-.59-1.87-.59c-.81,0-1.42.11-1.83.34s-.76.57-1.05,1.02-.5.75-.62.9c-.12.14-.38.22-.78.22-.36,0-.67-.12-.93-.35-.26-.23-.39-.52-.39-.88,0-.56.2-1.11.6-1.64s1.02-.97,1.86-1.31,1.89-.52,3.15-.52c1.41,0,2.51.17,3.32.5s1.37.86,1.71,1.58.5,1.67.5,2.86c0,.75,0,1.39,0,1.91s0,1.11-.02,1.75c0,.6.1,1.23.3,1.88s.3,1.07.3,1.26c0,.33-.15.63-.46.9s-.66.4-1.05.4c-.33,0-.65-.15-.97-.46s-.66-.76-1.02-1.34ZM255.67,87.19c-.47.17-1.15.35-2.04.54s-1.51.33-1.86.42-.67.27-.98.53-.47.63-.47,1.1.18.9.55,1.24.85.51,1.44.51c.63,0,1.22-.14,1.75-.42s.93-.63,1.18-1.07c.29-.48.43-1.28.43-2.39v-.46Z"/>
  </g>
  <g class="cls-9">
    <path class="cls-6" d="M261.63,80.9h.35v-1.92c0-.52.01-.92.04-1.21s.1-.54.23-.76c.12-.22.3-.4.54-.53s.5-.21.79-.21c.41,0,.77.15,1.1.46.22.2.36.45.42.74s.09.71.09,1.25v2.18h1.17c.45,0,.8.11,1.04.32s.36.49.36.83c0,.43-.17.73-.51.9s-.83.26-1.46.26h-.6v5.88c0,.5.02.88.05,1.15s.13.49.28.66.4.25.74.25c.19,0,.44-.03.76-.1s.57-.1.75-.1c.26,0,.49.1.7.31s.31.46.31.77c0,.52-.28.91-.84,1.18s-1.37.41-2.43.41c-1,0-1.76-.17-2.27-.5s-.85-.8-1.01-1.39-.24-1.39-.24-2.38v-6.14h-.42c-.46,0-.81-.11-1.05-.33s-.36-.5-.36-.83.13-.61.38-.83.62-.32,1.11-.32Z"/>
    <path class="cls-6" d="M271.57,79.13c-.45,0-.83-.14-1.14-.41s-.47-.66-.47-1.16c0-.45.16-.83.49-1.12s.7-.44,1.13-.44.78.13,1.1.4.48.65.48,1.16-.16.88-.47,1.15-.68.42-1.11.42ZM273.15,82.44v9.25c0,.64-.15,1.12-.46,1.45s-.69.49-1.16.49-.85-.17-1.14-.5-.44-.82-.44-1.44v-9.15c0-.63.15-1.11.44-1.43s.67-.48,1.14-.48.86.16,1.16.48.46.77.46,1.34Z"/>
    <path class="cls-6" d="M288.43,87.12c0,.95-.15,1.83-.45,2.64s-.73,1.5-1.29,2.07-1.23,1.02-2.02,1.33-1.66.46-2.64.46-1.84-.16-2.61-.47-1.44-.76-2.01-1.34-1-1.27-1.29-2.06-.44-1.67-.44-2.63.15-1.86.45-2.66c.3-.8.72-1.49,1.28-2.06s1.23-1.01,2.02-1.32,1.66-.46,2.61-.46,1.85.16,2.64.47,1.46.76,2.03,1.34.99,1.27,1.28,2.06c.29.8.44,1.68.44,2.64ZM285.22,87.12c0-1.3-.29-2.32-.86-3.05s-1.35-1.09-2.31-1.09c-.62,0-1.18.16-1.65.49s-.84.8-1.1,1.44c-.26.63-.39,1.37-.39,2.21s.13,1.57.38,2.19.62,1.1,1.09,1.44,1.03.5,1.67.5c.97,0,1.74-.37,2.31-1.1s.86-1.74.86-3.03Z"/>
    <path class="cls-6" d="M293.85,82.39v.39c.56-.74,1.18-1.29,1.85-1.63s1.44-.52,2.3-.52,1.6.18,2.26.55,1.16.89,1.49,1.56c.21.39.35.81.41,1.27s.09,1.03.09,1.73v5.95c0,.64-.15,1.12-.44,1.45s-.67.49-1.14.49-.86-.17-1.16-.5-.45-.82-.45-1.44v-5.33c0-1.05-.15-1.86-.44-2.42s-.88-.84-1.75-.84c-.57,0-1.09.17-1.56.51s-.81.81-1.03,1.4c-.16.48-.23,1.37-.23,2.67v4.01c0,.65-.15,1.13-.45,1.46s-.69.49-1.17.49-.84-.17-1.14-.5-.45-.82-.45-1.44v-9.25c0-.61.13-1.06.4-1.37s.63-.45,1.09-.45c.28,0,.54.07.76.2s.41.33.54.6.21.59.21.97Z"/>
  </g>
  <g class="cls-9">
    <path class="cls-6" d="M314.62,89.01v2.67c0,.65-.15,1.13-.46,1.46s-.69.49-1.16.49-.84-.16-1.14-.49-.45-.81-.45-1.45v-8.91c0-1.44.52-2.16,1.56-2.16.53,0,.91.17,1.15.5s.36.83.39,1.49c.38-.66.78-1.15,1.18-1.49s.94-.5,1.61-.5,1.32.17,1.96.5.95.78.95,1.34c0,.39-.13.71-.4.97s-.56.38-.87.38c-.12,0-.4-.07-.85-.22s-.85-.22-1.19-.22c-.47,0-.85.12-1.15.37s-.53.61-.69,1.1c-.16.48-.28,1.06-.34,1.73s-.09,1.48-.09,2.44Z"/>
  </g>
  <g class="cls-9">
    <path class="cls-6" d="M330.29,87.91h-6.26c0,.73.15,1.37.44,1.92s.66.97,1.14,1.25.99.42,1.56.42c.38,0,.73-.04,1.05-.13s.62-.23.92-.42.57-.4.82-.62.57-.52.97-.89c.16-.14.4-.21.7-.21.33,0,.59.09.8.27s.3.43.3.76c0,.29-.11.63-.34,1.01s-.57.76-1.03,1.11-1.03.65-1.72.88-1.49.35-2.38.35c-2.05,0-3.65-.59-4.79-1.76s-1.71-2.76-1.71-4.77c0-.95.14-1.82.42-2.63.28-.81.69-1.5,1.23-2.08s1.2-1.02,1.99-1.33,1.66-.46,2.62-.46c1.25,0,2.32.26,3.22.79s1.56,1.21,2.01,2.04.67,1.69.67,2.55c0,.8-.23,1.33-.69,1.56s-1.11.36-1.95.36ZM324.03,86.09h5.8c-.08-1.09-.37-1.91-.88-2.45s-1.19-.81-2.02-.81-1.45.28-1.96.83-.82,1.36-.93,2.44Z"/>
    <path class="cls-6" d="M345.92,89.44c0,.88-.21,1.64-.64,2.27s-1.06,1.11-1.9,1.43-1.86.49-3.06.49-2.13-.18-2.95-.53-1.43-.79-1.82-1.32-.59-1.06-.59-1.59c0-.35.12-.65.38-.9s.57-.38.95-.38c.34,0,.59.08.77.25s.35.39.52.69c.33.57.72,1,1.18,1.28s1.08.42,1.87.42c.64,0,1.17-.14,1.58-.43s.62-.61.62-.98c0-.56-.21-.97-.64-1.23s-1.13-.5-2.1-.74c-1.1-.27-2-.56-2.69-.86s-1.24-.7-1.66-1.19-.62-1.1-.62-1.82c0-.64.19-1.25.57-1.82s.95-1.03,1.69-1.37,1.65-.51,2.7-.51c.83,0,1.57.09,2.23.26s1.21.4,1.65.69.78.61,1.01.96.35.7.35,1.03c0,.37-.12.67-.37.9s-.6.35-1.05.35c-.33,0-.61-.09-.84-.28s-.49-.47-.79-.84c-.24-.31-.53-.56-.86-.75s-.77-.28-1.34-.28-1.06.12-1.44.37-.57.55-.57.92c0,.34.14.61.42.83.28.21.66.39,1.14.53s1.13.31,1.97.52c.99.24,1.8.53,2.43.87s1.11.73,1.43,1.19.49.98.49,1.56Z"/>
    <path class="cls-6" d="M357.56,87.91h-6.26c0,.73.15,1.37.44,1.92s.66.97,1.14,1.25.99.42,1.56.42c.38,0,.73-.04,1.05-.13s.62-.23.92-.42.57-.4.82-.62.57-.52.97-.89c.16-.14.4-.21.7-.21.33,0,.59.09.8.27s.3.43.3.76c0,.29-.11.63-.34,1.01s-.57.76-1.03,1.11-1.03.65-1.72.88-1.49.35-2.38.35c-2.05,0-3.65-.59-4.79-1.76s-1.71-2.76-1.71-4.77c0-.95.14-1.82.42-2.63.28-.81.69-1.5,1.23-2.08s1.2-1.02,1.99-1.33,1.66-.46,2.62-.46c1.25,0,2.32.26,3.22.79s1.56,1.21,2.01,2.04.67,1.69.67,2.55c0,.8-.23,1.33-.69,1.56s-1.11.36-1.95.36ZM351.3,86.09h5.8c-.08-1.09-.37-1.91-.88-2.45s-1.19-.81-2.02-.81-1.45.28-1.96.83-.82,1.36-.93,2.44Z"/>
    <path class="cls-6" d="M370.98,91.82c-.77.6-1.52,1.05-2.24,1.35s-1.53.45-2.43.45c-.82,0-1.54-.16-2.16-.49s-1.1-.76-1.44-1.32-.5-1.16-.5-1.8c0-.88.28-1.62.83-2.24s1.32-1.03,2.29-1.24c.2-.05.71-.15,1.51-.32s1.49-.31,2.07-.45,1.2-.3,1.87-.5c-.04-.84-.21-1.46-.51-1.86s-.92-.59-1.87-.59c-.81,0-1.42.11-1.83.34s-.76.57-1.05,1.02-.5.75-.62.9c-.12.14-.38.22-.78.22-.36,0-.67-.12-.93-.35-.26-.23-.39-.52-.39-.88,0-.56.2-1.11.6-1.64s1.02-.97,1.86-1.31,1.89-.52,3.15-.52c1.41,0,2.51.17,3.32.5s1.37.86,1.71,1.58.5,1.67.5,2.86c0,.75,0,1.39,0,1.91s0,1.11-.02,1.75c0,.6.1,1.23.3,1.88s.3,1.07.3,1.26c0,.33-.15.63-.46.9s-.66.4-1.05.4c-.33,0-.65-.15-.97-.46s-.66-.76-1.02-1.34ZM370.77,87.19c-.47.17-1.15.35-2.04.54s-1.51.33-1.86.42-.67.27-.98.53-.47.63-.47,1.1.18.9.55,1.24.85.51,1.44.51c.63,0,1.22-.14,1.75-.42s.93-.63,1.18-1.07c.29-.48.43-1.28.43-2.39v-.46Z"/>
  </g>
  <g class="cls-9">
    <path class="cls-6" d="M380.33,89.01v2.67c0,.65-.15,1.13-.46,1.46s-.69.49-1.16.49-.84-.16-1.14-.49-.45-.81-.45-1.45v-8.91c0-1.44.52-2.16,1.56-2.16.53,0,.91.17,1.15.5s.36.83.39,1.49c.38-.66.78-1.15,1.18-1.49s.94-.5,1.61-.5,1.32.17,1.96.5.95.78.95,1.34c0,.39-.13.71-.4.97s-.56.38-.87.38c-.12,0-.4-.07-.85-.22s-.85-.22-1.19-.22c-.47,0-.85.12-1.15.37s-.53.61-.69,1.1c-.16.48-.28,1.06-.34,1.73s-.09,1.48-.09,2.44Z"/>
  </g>
  <g class="cls-9">
    <path class="cls-6" d="M398.51,89.67c0,.4-.12.82-.36,1.28s-.6.88-1.09,1.29-1.1.74-1.85.99-1.58.38-2.51.38c-1.98,0-3.52-.58-4.63-1.73s-1.66-2.7-1.66-4.63c0-1.31.25-2.47.76-3.48s1.24-1.79,2.2-2.34,2.11-.83,3.45-.83c.83,0,1.59.12,2.28.36s1.28.55,1.76.94.85.79,1.1,1.22.38.84.38,1.21-.14.71-.43.97-.63.4-1.04.4c-.27,0-.49-.07-.66-.21s-.37-.36-.59-.66c-.39-.59-.8-1.04-1.22-1.34s-.97-.45-1.62-.45c-.95,0-1.71.37-2.29,1.11s-.87,1.75-.87,3.03c0,.6.07,1.15.22,1.66s.36.93.64,1.29.62.62,1.02.81.84.28,1.31.28c.64,0,1.19-.15,1.65-.45s.86-.75,1.21-1.36c.2-.36.41-.64.63-.84s.5-.3.83-.3c.39,0,.71.15.97.45s.39.61.39.95Z"/>
  </g>
  <g class="cls-9">
    <path class="cls-6" d="M403.84,77.81v4.75c.41-.47.8-.84,1.19-1.11s.81-.48,1.28-.62.97-.21,1.51-.21c.81,0,1.53.17,2.16.52s1.12.84,1.48,1.5c.23.38.38.81.46,1.28s.12,1.02.12,1.63v6.13c0,.64-.15,1.12-.44,1.45s-.68.49-1.17.49c-1.05,0-1.58-.65-1.58-1.95v-5.4c0-1.02-.15-1.81-.46-2.36s-.88-.83-1.73-.83c-.57,0-1.08.16-1.54.49s-.8.77-1.03,1.33c-.17.48-.26,1.32-.26,2.54v4.23c0,.63-.14,1.12-.43,1.45s-.68.5-1.19.5c-1.05,0-1.58-.65-1.58-1.95v-13.87c0-.65.14-1.13.42-1.46s.67-.49,1.17-.49.9.16,1.19.49.43.81.43,1.45Z"/>
  </g>
  <g class="cls-9">
    <path class="cls-7" d="M181.64,148.84v-4.51c-.62.62-1.26,1.09-1.93,1.41s-1.41.49-2.22.49c-.99,0-1.9-.26-2.71-.79s-1.46-1.28-1.92-2.26-.7-2.13-.7-3.46.23-2.53.7-3.5,1.12-1.71,1.95-2.22,1.76-.76,2.77-.76c.86,0,1.63.18,2.31.53s1.26.9,1.75,1.62v-.39c0-.59.14-1.03.42-1.34s.64-.46,1.09-.46.81.15,1.09.45.42.75.42,1.34v13.83c0,1.42-.5,2.13-1.51,2.13-.62,0-1.03-.19-1.22-.57s-.29-.9-.29-1.56ZM175.37,139.7c0,.86.14,1.6.42,2.22s.64,1.08,1.1,1.38.94.45,1.46.45c.57,0,1.09-.15,1.57-.45s.86-.76,1.15-1.38.43-1.38.43-2.29c0-.64-.08-1.22-.25-1.73s-.4-.94-.69-1.28-.62-.59-1-.76-.77-.25-1.2-.25c-.86,0-1.57.36-2.14,1.07s-.86,1.72-.86,3.02Z"/>
    <path class="cls-7" d="M196.18,144.42v-.41c-.38.48-.79.89-1.21,1.22s-.88.57-1.38.73-1.07.24-1.71.24c-.77,0-1.47-.16-2.08-.48s-1.09-.76-1.42-1.32c-.4-.68-.6-1.66-.6-2.93v-6.34c0-.64.14-1.12.43-1.44s.67-.47,1.15-.47.88.16,1.17.48.45.8.45,1.43v5.12c0,.74.06,1.37.19,1.87s.35.9.67,1.18.76.43,1.32.43,1.05-.16,1.52-.48.82-.74,1.04-1.25c.18-.45.27-1.45.27-2.98v-3.89c0-.63.15-1.11.45-1.43s.68-.48,1.16-.48.86.16,1.15.47.43.79.43,1.44v9.27c0,.61-.14,1.07-.42,1.37s-.63.46-1.07.46-.8-.16-1.08-.47-.43-.76-.43-1.33Z"/>
    <path class="cls-7" d="M210.45,144.42c-.77.6-1.52,1.05-2.24,1.35s-1.53.45-2.43.45c-.82,0-1.54-.16-2.16-.49s-1.1-.76-1.44-1.32-.5-1.16-.5-1.8c0-.88.28-1.62.83-2.24s1.32-1.03,2.29-1.24c.2-.05.71-.15,1.51-.32s1.49-.31,2.07-.45,1.2-.3,1.87-.5c-.04-.84-.21-1.46-.51-1.86s-.92-.59-1.87-.59c-.81,0-1.42.11-1.83.34s-.76.57-1.05,1.02-.5.75-.62.9-.38.22-.78.22c-.36,0-.67-.12-.93-.35s-.39-.53-.39-.88c0-.56.2-1.11.6-1.64s1.02-.97,1.86-1.31,1.89-.52,3.15-.52c1.41,0,2.51.17,3.32.5s1.37.86,1.71,1.58.5,1.67.5,2.86c0,.75,0,1.39,0,1.91s0,1.11-.02,1.75c0,.6.1,1.23.3,1.88s.3,1.07.3,1.26c0,.33-.15.63-.46.9s-.66.4-1.05.4c-.33,0-.65-.15-.97-.46s-.66-.76-1.02-1.34ZM210.24,139.79c-.47.17-1.15.35-2.04.54s-1.51.33-1.86.42-.67.27-.98.53-.47.63-.47,1.1.18.9.55,1.24.85.51,1.44.51c.63,0,1.22-.14,1.75-.42s.93-.63,1.18-1.07c.29-.48.43-1.28.43-2.39v-.46Z"/>
    <path class="cls-7" d="M219.54,134.99v.39c.56-.74,1.18-1.29,1.85-1.63s1.44-.52,2.3-.52,1.6.18,2.26.55,1.16.89,1.49,1.56c.21.39.35.81.41,1.27s.09,1.03.09,1.73v5.95c0,.64-.15,1.12-.44,1.45s-.67.49-1.14.49-.86-.17-1.16-.5-.45-.82-.45-1.44v-5.33c0-1.05-.15-1.86-.44-2.42s-.88-.84-1.75-.84c-.57,0-1.09.17-1.56.51s-.81.81-1.03,1.4c-.16.48-.23,1.37-.23,2.67v4.01c0,.65-.15,1.13-.45,1.46s-.69.49-1.17.49-.84-.17-1.14-.5-.45-.82-.45-1.44v-9.25c0-.61.13-1.06.4-1.37s.63-.45,1.09-.45c.28,0,.54.07.76.2s.41.33.54.6.21.59.21.97Z"/>
    <path class="cls-7" d="M231.3,133.5h.35v-1.92c0-.52.01-.92.04-1.21s.1-.54.23-.76c.12-.22.3-.4.54-.53s.5-.21.79-.21c.41,0,.77.15,1.1.46.22.2.36.45.42.74s.09.71.09,1.25v2.18h1.17c.45,0,.8.11,1.04.32s.36.49.36.83c0,.43-.17.73-.51.9s-.83.26-1.46.26h-.6v5.88c0,.5.02.88.05,1.15s.13.49.28.66.4.25.74.25c.19,0,.44-.03.76-.1s.57-.1.75-.1c.26,0,.49.1.7.31s.31.46.31.77c0,.52-.28.91-.84,1.18s-1.37.41-2.43.41c-1,0-1.76-.17-2.27-.5s-.85-.8-1.01-1.39-.24-1.39-.24-2.38v-6.14h-.42c-.46,0-.81-.11-1.05-.33s-.36-.5-.36-.83.13-.61.38-.83.62-.32,1.11-.32Z"/>
    <path class="cls-7" d="M247.93,144.42v-.41c-.38.48-.79.89-1.21,1.22s-.88.57-1.38.73-1.07.24-1.71.24c-.77,0-1.47-.16-2.08-.48s-1.09-.76-1.42-1.32c-.4-.68-.6-1.66-.6-2.93v-6.34c0-.64.14-1.12.43-1.44s.67-.47,1.15-.47.88.16,1.17.48.45.8.45,1.43v5.12c0,.74.06,1.37.19,1.87s.35.9.67,1.18.76.43,1.32.43,1.05-.16,1.52-.48.82-.74,1.04-1.25c.18-.45.27-1.45.27-2.98v-3.89c0-.63.15-1.11.45-1.43s.68-.48,1.16-.48.86.16,1.15.47.43.79.43,1.44v9.27c0,.61-.14,1.07-.42,1.37s-.63.46-1.07.46-.8-.16-1.08-.47-.43-.76-.43-1.33Z"/>
    <path class="cls-7" d="M264.76,139.96v4.25c0,.67-.15,1.18-.46,1.51s-.71.5-1.21.5-.88-.17-1.18-.5-.45-.84-.45-1.51v-5.1c0-.8-.03-1.43-.08-1.88s-.2-.81-.45-1.1-.62-.43-1.15-.43c-1.05,0-1.74.36-2.07,1.08s-.5,1.75-.5,3.09v4.32c0,.66-.15,1.17-.45,1.51s-.7.51-1.19.51-.88-.17-1.19-.51-.46-.84-.46-1.51v-9.15c0-.6.14-1.06.42-1.37s.64-.47,1.1-.47.8.15,1.1.44.44.7.44,1.21v.3c.55-.66,1.15-1.15,1.78-1.46s1.34-.47,2.11-.47,1.5.16,2.07.48,1.05.8,1.43,1.45c.54-.66,1.12-1.14,1.73-1.46s1.3-.47,2.05-.47c.88,0,1.63.17,2.26.52s1.11.84,1.42,1.48c.27.58.41,1.49.41,2.73v6.25c0,.67-.15,1.18-.46,1.51s-.71.5-1.21.5-.88-.17-1.19-.51-.46-.84-.46-1.51v-5.38c0-.69-.03-1.24-.09-1.65s-.22-.76-.47-1.04-.65-.42-1.17-.42c-.42,0-.82.12-1.2.38s-.67.59-.88,1.01c-.23.54-.35,1.49-.35,2.86Z"/>
    <path class="cls-7" d="M287.33,139.72c0,.95-.15,1.83-.45,2.64s-.73,1.5-1.29,2.07-1.23,1.02-2.02,1.33-1.66.46-2.64.46-1.84-.16-2.61-.47-1.44-.76-2.01-1.34-1-1.27-1.29-2.06-.44-1.67-.44-2.63.15-1.86.45-2.66.72-1.49,1.28-2.06,1.23-1.01,2.02-1.32,1.66-.46,2.61-.46,1.85.16,2.64.47,1.46.76,2.03,1.34.99,1.27,1.28,2.06.44,1.68.44,2.64ZM284.12,139.72c0-1.3-.29-2.32-.86-3.05s-1.35-1.09-2.31-1.09c-.62,0-1.18.16-1.65.49s-.84.8-1.1,1.44-.39,1.37-.39,2.21.13,1.57.38,2.19.62,1.1,1.09,1.44,1.03.5,1.67.5c.97,0,1.74-.37,2.31-1.1s.86-1.74.86-3.03Z"/>
    <path class="cls-7" d="M292.8,135.01v.39c.6-.74,1.23-1.29,1.88-1.63s1.38-.52,2.2-.52c.98,0,1.89.25,2.72.76s1.48,1.25,1.96,2.23.72,2.13.72,3.47c0,.98-.14,1.89-.42,2.71s-.66,1.52-1.14,2.07-1.06.99-1.72,1.29-1.37.45-2.13.45c-.91,0-1.68-.18-2.3-.55s-1.21-.91-1.78-1.62v4.8c0,1.41-.51,2.11-1.54,2.11-.6,0-1-.18-1.2-.54s-.29-.89-.29-1.59v-13.8c0-.61.13-1.06.4-1.37s.63-.45,1.09-.45.82.15,1.11.46.43.75.43,1.33ZM299.07,139.66c0-.84-.13-1.57-.39-2.17s-.62-1.07-1.07-1.39-.96-.49-1.52-.49c-.88,0-1.63.35-2.23,1.04s-.91,1.72-.91,3.07c0,1.27.3,2.26.9,2.97s1.35,1.06,2.24,1.06c.53,0,1.02-.15,1.48-.46s.82-.77,1.09-1.39.41-1.36.41-2.24Z"/>
    <path class="cls-7" d="M305.02,133.5h.35v-1.92c0-.52.01-.92.04-1.21s.1-.54.23-.76c.12-.22.3-.4.54-.53s.5-.21.79-.21c.41,0,.77.15,1.1.46.22.2.36.45.42.74s.09.71.09,1.25v2.18h1.17c.45,0,.8.11,1.04.32s.36.49.36.83c0,.43-.17.73-.51.9s-.83.26-1.46.26h-.6v5.88c0,.5.02.88.05,1.15s.13.49.28.66.4.25.74.25c.19,0,.44-.03.76-.1s.57-.1.75-.1c.26,0,.49.1.7.31s.31.46.31.77c0,.52-.28.91-.84,1.18s-1.37.41-2.43.41c-1,0-1.76-.17-2.27-.5s-.85-.8-1.01-1.39-.24-1.39-.24-2.38v-6.14h-.42c-.46,0-.81-.11-1.05-.33s-.36-.5-.36-.83.13-.61.38-.83.62-.32,1.11-.32Z"/>
    <path class="cls-7" d="M314.96,131.73c-.45,0-.83-.14-1.14-.41s-.47-.66-.47-1.16c0-.45.16-.83.49-1.12s.7-.44,1.13-.44.78.13,1.1.4.48.65.48,1.16-.16.88-.47,1.15-.68.42-1.11.42ZM316.54,135.04v9.25c0,.64-.15,1.12-.46,1.45s-.69.49-1.16.49-.85-.17-1.14-.5-.44-.82-.44-1.44v-9.15c0-.63.15-1.11.44-1.43s.67-.48,1.14-.48.86.16,1.16.48.46.77.46,1.34Z"/>
    <path class="cls-7" d="M331.32,142.27c0,.4-.12.82-.36,1.28s-.6.88-1.09,1.29-1.1.74-1.85.99-1.58.38-2.51.38c-1.98,0-3.52-.58-4.63-1.73s-1.66-2.7-1.66-4.63c0-1.31.25-2.47.76-3.48s1.24-1.79,2.2-2.34,2.11-.83,3.45-.83c.83,0,1.59.12,2.28.36s1.28.55,1.76.94.85.79,1.1,1.22.38.84.38,1.21-.14.71-.43.97-.63.4-1.04.4c-.27,0-.49-.07-.66-.21s-.37-.36-.59-.66c-.39-.59-.8-1.04-1.22-1.34s-.97-.45-1.62-.45c-.95,0-1.71.37-2.29,1.11s-.87,1.75-.87,3.03c0,.6.07,1.15.22,1.66s.36.93.64,1.29.62.62,1.02.81.84.28,1.31.28c.64,0,1.19-.15,1.65-.45s.86-.75,1.21-1.36c.2-.36.41-.64.63-.84s.5-.3.83-.3c.39,0,.71.15.97.45s.39.61.39.95Z"/>
    <path class="cls-7" d="M344.41,142.04c0,.88-.21,1.64-.64,2.27s-1.06,1.11-1.9,1.43-1.86.49-3.06.49-2.13-.18-2.95-.53-1.43-.79-1.82-1.32-.59-1.06-.59-1.59c0-.35.12-.65.38-.9s.57-.38.95-.38c.34,0,.59.08.77.25s.35.39.52.69c.33.57.72,1,1.18,1.28s1.08.42,1.87.42c.64,0,1.17-.14,1.58-.43s.62-.61.62-.98c0-.56-.21-.97-.64-1.23s-1.13-.5-2.1-.74c-1.1-.27-2-.56-2.69-.86s-1.24-.7-1.66-1.19-.62-1.1-.62-1.82c0-.64.19-1.25.57-1.82s.95-1.03,1.69-1.37,1.65-.51,2.7-.51c.83,0,1.57.09,2.23.26s1.21.4,1.65.69.78.61,1.01.96.35.7.35,1.03c0,.37-.12.67-.37.9s-.6.35-1.05.35c-.33,0-.61-.09-.84-.28s-.49-.47-.79-.84c-.24-.31-.53-.56-.86-.75s-.77-.28-1.34-.28-1.06.12-1.44.37-.57.55-.57.92c0,.34.14.61.42.83s.66.39,1.14.53,1.13.31,1.97.52c.99.24,1.8.53,2.43.87s1.11.73,1.43,1.19.49.98.49,1.56Z"/>
    <path class="cls-7" d="M347.29,133.5h.35v-1.92c0-.52.01-.92.04-1.21s.1-.54.23-.76c.12-.22.3-.4.54-.53s.5-.21.79-.21c.41,0,.77.15,1.1.46.22.2.36.45.42.74s.09.71.09,1.25v2.18h1.17c.45,0,.8.11,1.04.32s.36.49.36.83c0,.43-.17.73-.51.9s-.83.26-1.46.26h-.6v5.88c0,.5.02.88.05,1.15s.13.49.28.66.4.25.74.25c.19,0,.44-.03.76-.1s.57-.1.75-.1c.26,0,.49.1.7.31s.31.46.31.77c0,.52-.28.91-.84,1.18s-1.37.41-2.43.41c-1,0-1.76-.17-2.27-.5s-.85-.8-1.01-1.39-.24-1.39-.24-2.38v-6.14h-.42c-.46,0-.81-.11-1.05-.33s-.36-.5-.36-.83.13-.61.38-.83.62-.32,1.11-.32Z"/>
    <path class="cls-7" d="M358.74,130.41v4.75c.41-.47.8-.84,1.19-1.11s.81-.48,1.28-.62.97-.21,1.51-.21c.81,0,1.53.17,2.16.52s1.12.84,1.48,1.5c.23.38.38.81.46,1.28s.12,1.02.12,1.63v6.13c0,.64-.15,1.12-.44,1.45s-.68.49-1.17.49c-1.05,0-1.58-.65-1.58-1.95v-5.4c0-1.02-.15-1.81-.46-2.36s-.88-.83-1.73-.83c-.57,0-1.08.16-1.54.49s-.8.77-1.03,1.33c-.17.48-.26,1.32-.26,2.54v4.23c0,.63-.14,1.12-.43,1.45s-.68.5-1.19.5c-1.05,0-1.58-.65-1.58-1.95v-13.88c0-.65.14-1.13.42-1.46s.67-.49,1.17-.49.9.16,1.19.49.43.81.43,1.45Z"/>
    <path class="cls-7" d="M379.04,140.51h-6.26c0,.73.15,1.37.44,1.92s.66.97,1.14,1.25.99.42,1.56.42c.38,0,.73-.04,1.05-.13s.62-.23.92-.42.57-.4.82-.62.57-.52.97-.89c.16-.14.4-.21.7-.21.33,0,.59.09.8.27s.3.43.3.76c0,.29-.11.63-.34,1.01s-.57.76-1.03,1.11-1.03.65-1.72.88-1.49.35-2.38.35c-2.05,0-3.65-.59-4.79-1.76s-1.71-2.76-1.71-4.77c0-.95.14-1.82.42-2.63s.69-1.5,1.23-2.08,1.2-1.02,1.99-1.33,1.66-.46,2.62-.46c1.25,0,2.32.26,3.22.79s1.56,1.21,2.01,2.04.67,1.69.67,2.55c0,.8-.23,1.33-.69,1.56s-1.11.36-1.95.36ZM372.78,138.69h5.8c-.08-1.09-.37-1.91-.88-2.46s-1.19-.81-2.02-.81-1.45.28-1.96.83-.82,1.37-.93,2.44Z"/>
    <path class="cls-7" d="M396.35,139.72c0,.95-.15,1.83-.45,2.64s-.73,1.5-1.29,2.07-1.23,1.02-2.02,1.33-1.66.46-2.64.46-1.84-.16-2.61-.47-1.44-.76-2.01-1.34-1-1.27-1.29-2.06-.44-1.67-.44-2.63.15-1.86.45-2.66.72-1.49,1.28-2.06,1.23-1.01,2.02-1.32,1.66-.46,2.61-.46,1.85.16,2.64.47,1.46.76,2.03,1.34.99,1.27,1.28,2.06.44,1.68.44,2.64ZM393.14,139.72c0-1.3-.29-2.32-.86-3.05s-1.35-1.09-2.31-1.09c-.62,0-1.18.16-1.65.49s-.84.8-1.1,1.44-.39,1.37-.39,2.21.13,1.57.38,2.19.62,1.1,1.09,1.44,1.03.5,1.67.5c.97,0,1.74-.37,2.31-1.1s.86-1.74.86-3.03Z"/>
    <path class="cls-7" d="M402.04,141.61v2.67c0,.65-.15,1.13-.46,1.46s-.69.49-1.16.49-.84-.16-1.14-.49-.45-.81-.45-1.45v-8.91c0-1.44.52-2.16,1.56-2.16.53,0,.91.17,1.15.5s.36.83.39,1.49c.38-.66.78-1.15,1.18-1.49s.94-.5,1.61-.5,1.32.17,1.96.5.95.78.95,1.34c0,.39-.13.71-.4.97s-.56.38-.87.38c-.12,0-.4-.07-.85-.22s-.85-.22-1.19-.22c-.47,0-.85.12-1.15.37s-.53.61-.69,1.1-.28,1.06-.34,1.73-.09,1.48-.09,2.44Z"/>
    <path class="cls-7" d="M412.33,146.62l.29-.71-3.94-9.91c-.24-.57-.36-.98-.36-1.24,0-.27.07-.53.21-.76s.33-.42.58-.56.5-.21.77-.21c.46,0,.81.15,1.04.44s.44.71.62,1.26l2.71,7.88,2.57-7.32c.2-.59.39-1.06.55-1.39s.34-.56.52-.68.44-.18.78-.18c.24,0,.47.06.7.19s.39.3.52.52.18.45.18.69c-.03.15-.08.36-.15.63s-.16.55-.26.83l-4.17,10.92c-.36.96-.71,1.71-1.05,2.26s-.8.97-1.37,1.26-1.33.44-2.29.44-1.64-.1-2.11-.3-.7-.57-.7-1.11c0-.37.11-.65.33-.85s.55-.3.99-.3c.17,0,.34.02.5.07.2.05.38.07.53.07.37,0,.66-.05.87-.16s.4-.3.57-.57.36-.67.58-1.19Z"/>
    <path class="cls-7" d="M426.59,141.11h-3.7c-.56,0-.99-.13-1.28-.39s-.44-.6-.44-1.01.14-.76.43-1.03.72-.39,1.29-.39h3.7c.58,0,1.01.13,1.29.39s.43.6.43,1.03-.14.75-.42,1.01-.71.39-1.3.39Z"/>
    <path class="cls-7" d="M438.69,144.42v-.41c-.38.48-.79.89-1.21,1.22s-.88.57-1.38.73-1.07.24-1.71.24c-.77,0-1.47-.16-2.08-.48s-1.09-.76-1.42-1.32c-.4-.68-.6-1.66-.6-2.93v-6.34c0-.64.14-1.12.43-1.44s.67-.47,1.15-.47.88.16,1.17.48.45.8.45,1.43v5.12c0,.74.06,1.37.19,1.87s.35.9.67,1.18.76.43,1.32.43,1.05-.16,1.52-.48.82-.74,1.04-1.25c.18-.45.27-1.45.27-2.98v-3.89c0-.63.15-1.11.45-1.43s.68-.48,1.16-.48.86.16,1.15.47.43.79.43,1.44v9.27c0,.61-.14,1.07-.42,1.37s-.63.46-1.07.46-.8-.16-1.08-.47-.43-.76-.43-1.33Z"/>
    <path class="cls-7" d="M453.64,148.84v-4.51c-.62.62-1.26,1.09-1.93,1.41s-1.41.49-2.22.49c-.99,0-1.9-.26-2.71-.79s-1.46-1.28-1.92-2.26-.7-2.13-.7-3.46.23-2.53.7-3.5,1.12-1.71,1.95-2.22,1.76-.76,2.77-.76c.86,0,1.63.18,2.31.53s1.26.9,1.75,1.62v-.39c0-.59.14-1.03.42-1.34s.64-.46,1.09-.46.81.15,1.09.45.42.75.42,1.34v13.83c0,1.42-.5,2.13-1.51,2.13-.62,0-1.03-.19-1.22-.57s-.29-.9-.29-1.56ZM447.37,139.7c0,.86.14,1.6.42,2.22s.64,1.08,1.1,1.38.94.45,1.46.45c.57,0,1.09-.15,1.57-.45s.86-.76,1.15-1.38.43-1.38.43-2.29c0-.64-.08-1.22-.25-1.73s-.4-.94-.69-1.28-.62-.59-1-.76-.77-.25-1.2-.25c-.86,0-1.57.36-2.14,1.07s-.86,1.72-.86,3.02Z"/>
    <path class="cls-7" d="M462,146.23c-.48,0-.9-.16-1.25-.47s-.53-.75-.53-1.31c0-.48.17-.89.5-1.23s.75-.52,1.24-.52.91.17,1.26.51.52.75.52,1.24c0,.55-.17.99-.52,1.31s-.76.47-1.22.47Z"/>
    <path class="cls-7" d="M478.86,142.27c0,.4-.12.82-.36,1.28s-.6.88-1.09,1.29-1.1.74-1.85.99-1.58.38-2.51.38c-1.98,0-3.52-.58-4.63-1.73s-1.66-2.7-1.66-4.63c0-1.31.25-2.47.76-3.48s1.24-1.79,2.2-2.34,2.11-.83,3.45-.83c.83,0,1.59.12,2.28.36s1.28.55,1.76.94.85.79,1.1,1.22.38.84.38,1.21-.14.71-.43.97-.63.4-1.04.4c-.27,0-.49-.07-.66-.21s-.37-.36-.59-.66c-.39-.59-.8-1.04-1.22-1.34s-.97-.45-1.62-.45c-.95,0-1.71.37-2.29,1.11s-.87,1.75-.87,3.03c0,.6.07,1.15.22,1.66s.36.93.64,1.29.62.62,1.02.81.84.28,1.31.28c.64,0,1.19-.15,1.65-.45s.86-.75,1.21-1.36c.2-.36.41-.64.63-.84s.5-.3.83-.3c.39,0,.71.15.97.45s.39.61.39.95Z"/>
    <path class="cls-7" d="M493.63,139.72c0,.95-.15,1.83-.45,2.64s-.73,1.5-1.29,2.07-1.23,1.02-2.02,1.33-1.66.46-2.64.46-1.84-.16-2.61-.47-1.44-.76-2.01-1.34-1-1.27-1.29-2.06-.44-1.67-.44-2.63.15-1.86.45-2.66.72-1.49,1.28-2.06,1.23-1.01,2.02-1.32,1.66-.46,2.61-.46,1.85.16,2.64.47,1.46.76,2.03,1.34.99,1.27,1.28,2.06.44,1.68.44,2.64ZM490.42,139.72c0-1.3-.29-2.32-.86-3.05s-1.35-1.09-2.31-1.09c-.62,0-1.18.16-1.65.49s-.84.8-1.1,1.44-.39,1.37-.39,2.21.13,1.57.38,2.19.62,1.1,1.09,1.44,1.03.5,1.67.5c.97,0,1.74-.37,2.31-1.1s.86-1.74.86-3.03Z"/>
    <path class="cls-7" d="M506.79,139.96v4.25c0,.67-.15,1.18-.46,1.51s-.71.5-1.21.5-.88-.17-1.18-.5-.45-.84-.45-1.51v-5.1c0-.8-.03-1.43-.08-1.88s-.2-.81-.45-1.1-.62-.43-1.15-.43c-1.05,0-1.74.36-2.07,1.08s-.5,1.75-.5,3.09v4.32c0,.66-.15,1.17-.45,1.51s-.7.51-1.19.51-.88-.17-1.19-.51-.46-.84-.46-1.51v-9.15c0-.6.14-1.06.42-1.37s.64-.47,1.1-.47.8.15,1.1.44.44.7.44,1.21v.3c.55-.66,1.15-1.15,1.78-1.46s1.34-.47,2.11-.47,1.5.16,2.07.48,1.05.8,1.43,1.45c.54-.66,1.12-1.14,1.73-1.46s1.3-.47,2.05-.47c.88,0,1.63.17,2.26.52s1.11.84,1.42,1.48c.27.58.41,1.49.41,2.73v6.25c0,.67-.15,1.18-.46,1.51s-.71.5-1.21.5-.88-.17-1.19-.51-.46-.84-.46-1.51v-5.38c0-.69-.03-1.24-.09-1.65s-.22-.76-.47-1.04-.65-.42-1.17-.42c-.42,0-.82.12-1.2.38s-.67.59-.88,1.01c-.23.54-.35,1.49-.35,2.86Z"/>
  </g>
</svg>