<?xml version="1.0" encoding="UTF-8"?>
<svg id="Layer_2" data-name="Layer 2" xmlns="http://www.w3.org/2000/svg" viewBox="0 0 560.22 165.02">
  <defs>
    <style>
      .cls-1 {
        letter-spacing: -.03em;
      }

      .cls-2 {
        fill: #000;
      }

      .cls-2, .cls-3, .cls-4, .cls-5, .cls-6, .cls-7 {
        stroke-width: 0px;
      }

      .cls-8 {
        letter-spacing: -.01em;
      }

      .cls-9 {
        letter-spacing: -.02em;
      }

      .cls-10 {
        letter-spacing: -.01em;
      }

      .cls-3 {
        fill: none;
      }

      .cls-11 {
        font-size: 24px;
      }

      .cls-4 {
        fill: #010101;
      }

      .cls-12 {
        letter-spacing: -.04em;
      }

      .cls-5 {
        fill: #686969;
      }

      .cls-13 {
        fill: #231f20;
        font-family: ArialRoundedMTBold, 'Arial Rounded MT Bold';
      }

      .cls-6 {
        fill: #fff;
      }

      .cls-7 {
        fill: #ccc;
      }

      .cls-14 {
        font-size: 44.83px;
      }
    </style>
  </defs>
  <g id="Layer_1-2" data-name="Layer 1">
    <rect class="cls-5" y="3.08" width="151.76" height="151.76" rx="12" ry="12"/>
    <path class="cls-5" d="M80.54,52.18c.36-.2.73-.42,1.08-.66-.57-.6-1.15-1.19-1.73-1.78-1.3.84-2.61,1.27-3.93,1.27-1.19-.04-2.22-.48-3.07-1.29s-1.29-2.29-1.29-4.43c.04-.19.07-.48.07-.86v-.78c.06-.45.13-.89.2-1.34-1.92-1.62-3.9-3.18-5.92-4.65-.1.43-.18.87-.24,1.3,1.03.74,2.06,1.5,3.07,2.29.11.09.22.19.46.41-1.28-.32-2.5-.64-3.7-.94-.01.31-.03.62-.03.94,0,4.14,1,7.17,3,9.07.03.03.06.05.1.08,4.03-.11,8.02.12,11.91,1.38h.01Z"/>
    <path class="cls-7" d="M86.64,36.4c-.08.31-.15.64-.24.97-1.19,4.91-1.83,7.45-1.93,7.64-.33.86-1.38,2.07-3.14,3.64-.47.42-.95.78-1.43,1.09.58.59,1.15,1.18,1.73,1.78.81-.54,1.62-1.18,2.41-1.94l.29-.29c.14-.1.24-.12.29-.07l.43,1.07c.33.76,1.05,1.5,2.15,2.22s1.28.42,2.9.42l1.81-1.92c-.67-.04-1.16-.26-1.5-.64-.33-.38-.5-1.16-.5-2.36.04-.78.71-3.79,2.01-9.04-1.01-.67-2.11-1.27-3.31-1.8-.62-.27-1.27-.52-1.97-.77h.01Z"/>
    <path class="cls-2" d="M118.78,71.34c-.83,2.85-1.59,5.71-2.51,8.53-4.25,12.98-10.57,24.82-19.41,35.28-6.86,8.1-15.3,14.11-24.78,18.73-4.86,2.37-9.88,4.3-15.06,5.81-.31.09-.77.04-1.02-.15-8.76-6.46-15.18-14.67-18.61-25.08-.1-.31-.19-.62-.32-1.03.42,0,.76-.02,1.1,0,5.24.35,10.48.36,15.72-.01,11.55-.83,22.71-3.23,32.99-8.78,10.03-5.4,18.05-13.06,24.75-22.18,2.5-3.41,4.75-6.98,6.72-10.73.08-.15.18-.3.27-.45l.17.06h0Z"/>
    <path class="cls-4" d="M123.31,44.53c.25.52.52,1.02.75,1.54,2.23,4.98,3.37,10.23,3.83,15.64,1.04,12.44-1.2,24.43-5.25,36.14-3.14,9.09-7.21,17.71-13.22,25.31-8.79,11.11-19.67,19.6-32.37,25.81-.83.4-1.59.49-2.48.29-3.99-.92-7.62-2.65-11.11-4.73-1-.59-1.97-1.23-3.08-1.94,1.21-.4,2.26-.74,3.3-1.11,15.44-5.46,27.84-15,37.58-28.08,8.36-11.23,13.98-23.76,17.61-37.22,1.19-4.42,2.1-8.91,2.69-13.46.26-2.01.83-3.98,1.15-5.99.63-3.86.73-7.75.5-11.65-.01-.17,0-.33,0-.5.04-.01.08-.03.12-.04h-.01Z"/>
    <path class="cls-4" d="M114.01,76.7c-.04.09-.07.18-.12.26-6.31,9.86-14.11,18.27-24.06,24.56-6.9,4.37-14.44,7.11-22.38,8.8-9.93,2.12-19.97,2.51-30.08,1.85-.51-.03-.74-.2-.87-.73-1.73-6.47-2.61-13.02-2.07-19.71.29-3.53.94-7,1.88-10.42.03-.12.09-.23.13-.34,1.81,1.21,3.58,2.46,5.41,3.6,8.7,5.37,18.17,8.31,28.36,9.02,8.86.62,17.47-.41,25.73-3.83,6.84-2.83,12.7-7.04,17.53-12.67.15-.17.3-.34.45-.5l.1.1h0Z"/>
    <path class="cls-4" d="M62.73,54.9c5.14,1.19,9.87,3.16,13.62,6.89,4.51,4.5,7.89,9.77,9.87,15.86.81,2.5.89,1.91-1.17,3.1-6.94,4-14.39,6.66-22.36,7.71-.9.12-1.88-.03-2.78-.25-8.06-1.99-15.51-5.33-22.23-10.25-.23-.17-.4-.42-.6-.63.27-.15.52-.36.8-.46,5.11-1.66,10.01-3.78,14.23-7.17,2.16-1.73,4.2-3.63,6.15-5.6,2.82-2.85,3.88-5.22,4.46-9.21h0Z"/>
    <path class="cls-6" d="M78.79,39.47c-.29-.06-.74-.11-1.18-.24-2.08-.62-3.35-2.49-2.99-4.36.4-2.05,2.58-3.54,4.85-3.3,1.18.13,2.22.56,3.04,1.44,1.34,1.44,1.36,3.53.01,4.97-.95,1.03-2.18,1.44-3.73,1.48h0Z"/>
    <path class="cls-6" d="M83.56,32.93c-2.35-2.81-5.64-3.07-8.46-.76.51-1.41,2.02-2.22,4.12-2.2,2.2.03,3.69,1.01,4.34,2.95Z"/>
    <path class="cls-6" d="M82.74,39.24c-.92,1.56-2.63,2.22-4.51,1.86-2.19-.42-3.51-1.48-3.75-3,2.19,2.69,5.23,3.15,8.26,1.15h0Z"/>
    <path class="cls-3" d="M86.25,25.37c-.86-.9-1.95-1.38-3.28-1.43-1.67,0-3.26.74-4.79,2.22-1.52,1.48-2.71,3.41-3.57,5.79-1.38,3.76-2.36,7.66-2.93,11.71v.78c0,.38-.03.67-.07.86,0,2.15.43,3.62,1.29,4.43s1.88,1.23,3.07,1.29c1.81,0,3.6-.78,5.36-2.36s2.81-2.79,3.14-3.64c.1-.19.74-2.74,1.93-7.64s1.81-7.55,1.86-7.93c0-.29-.12-.81-.36-1.57-.24-.76-.78-1.6-1.64-2.5h-.01Z"/>
    <path class="cls-3" d="M77.62,39.24c.43.13.89.18,1.18.24,1.55-.04,2.78-.45,3.73-1.48,1.34-1.44,1.33-3.53-.01-4.97-.82-.88-1.86-1.31-3.04-1.44-2.27-.24-4.45,1.25-4.85,3.3-.37,1.87.9,3.74,2.99,4.36h0Z"/>
    <path class="cls-3" d="M83.56,32.93c-.66-1.95-2.15-2.93-4.34-2.95-2.1-.02-3.61.78-4.12,2.2,2.82-2.31,6.11-2.06,8.46.76Z"/>
    <path class="cls-3" d="M71.68,44.44c0,.38-.03.67-.07.86,0,2.15.43,3.62,1.29,4.43s1.88,1.23,3.07,1.29c1.32,0,2.64-.43,3.93-1.27-2.57-2.62-5.24-5.09-8.01-7.43-.07.45-.15.89-.2,1.34v.78h0Z"/>
    <path class="cls-3" d="M82.74,39.24c-3.04,2.01-6.07,1.55-8.26-1.15.24,1.52,1.56,2.58,3.75,3,1.88.36,3.59-.3,4.51-1.86h0Z"/>
    <path class="cls-3" d="M85.48,35.97c.41.16.79.3,1.16.43.02-.08.03-.15.05-.22-.03,0-.06-.02-.09-.03-.29-.06-.6-.11-1.12-.2h0Z"/>
    <path class="cls-3" d="M83.22,53.22c-.53-.57-1.06-1.14-1.59-1.7-.36.24-.72.46-1.08.66.9.29,1.79.63,2.67,1.04Z"/>
    <path class="cls-4" d="M78.9,22.1c-2.29.29-4.6.73-6.93,1.31-1.58.39-3.09,1.1-4.69,1.69.75,1.53,1.76,2.77,2.85,3.91.27-.36.55-.72.85-1.08,2.44-2.92,5.08-4.86,7.92-5.83h0Z"/>
    <path class="cls-4" d="M121.71,42.15c-.03-.31-.17-.64-.35-.9-3.37-5.03-7.49-9.33-12.59-12.61-6.58-4.23-13.47-6.38-20.59-6.84.78.29,1.51.76,2.13,1.54.76-1.43,0,0,1.39.48.59.2,1.55.36,2.03.74.48.38.74,1.97.74,2.55,0,.62-.1,2.06-1.85,9.06-.18.71-.35,1.39-.51,2.04,2.99,1.58,5.42,3.89,7.05,7.17,2.58,5.21,2.94,10.71,1.6,16.3-2.04,8.49-6.98,14.97-14.26,19.63-5.57,3.56-11.72,5.83-18.14,7.39-.88.21-1.76.4-2.64.6.1.13.18.16.27.17,3.09.27,6.17.66,9.27.8,6.81.3,13.55-.29,20.03-2.51,12.44-4.25,20.81-12.65,24.86-25.16,2.15-6.64,2.19-13.53,1.57-20.42h0Z"/>
    <path class="cls-4" d="M66.3,25.95c-7.07.99-14.09-.08-21.13.04,7.52,3.09,14.42,7.02,20.8,11.67.57-2.63,1.72-5.18,3.44-7.66-1.23-1.14-2.24-2.53-3.11-4.06h0Z"/>
    <path class="cls-4" d="M79.9,49.74c.48-.31.95-.67,1.43-1.09,1.76-1.57,2.81-2.79,3.14-3.64.1-.19.74-2.74,1.93-7.64.08-.33.16-.66.24-.97-.37-.13-.75-.28-1.16-.43.52.09.83.13,1.12.2.03,0,.06.02.09.03,1-4.14,1.53-6.4,1.57-6.75,0-.29-.12-.81-.36-1.57-.24-.76-.78-1.6-1.64-2.5s-1.95-1.38-3.28-1.43c-1.67,0-3.26.74-4.79,2.22-1.52,1.48-2.71,3.41-3.57,5.79-1.23,3.35-2.13,6.8-2.72,10.38,2.77,2.34,5.44,4.81,8.01,7.43h0ZM79.21,29.98c2.2.03,3.69,1.01,4.34,2.95-2.35-2.81-5.64-3.07-8.46-.76.51-1.41,2.02-2.22,4.12-2.2ZM74.62,34.88c.4-2.05,2.58-3.54,4.85-3.3,1.18.13,2.22.56,3.04,1.44,1.34,1.44,1.36,3.53.01,4.97-.95,1.03-2.18,1.44-3.73,1.48-.29-.06-.74-.11-1.18-.24-2.08-.62-3.35-2.49-2.99-4.36h0ZM78.23,41.09c-2.19-.42-3.51-1.48-3.75-3,2.19,2.69,5.23,3.15,8.26,1.15-.92,1.56-2.63,2.22-4.51,1.86h0Z"/>
    <path class="cls-4" d="M90.4,50.36c.33.38.83.6,1.5.64l-1.81,1.92c-1.62,0-1.8.29-2.9-.42s-1.81-1.45-2.15-2.22l-.43-1.07s-.14-.03-.29.07l-.29.29c-.8.76-1.6,1.4-2.41,1.94.53.56,1.06,1.13,1.59,1.7-.88-.41-1.78-.75-2.67-1.04-1.67.92-3.37,1.39-5.07,1.39-2.58,0-4.86-.93-6.84-2.78-1.85.05-3.69.17-5.54.29,14.34,3.77,22.22,13.31,25,27.71,1.04-.93,2.13-1.81,3.1-2.8,6.23-6.36,9.75-13.82,8.88-22.9-.59-6.2-3.32-10.94-8.17-14.12-1.3,5.25-1.97,8.26-2.01,9.04,0,1.19.17,1.97.5,2.36h0Z"/>
    <path class="cls-7" d="M88.18,21.79c-1.57-.59-3.37-.43-4.99-.43-1.48.01-2.91.27-4.29.74,3.13-.4,6.23-.51,9.28-.31Z"/>
    <path class="cls-7" d="M80.54,52.18c-3.89-1.26-7.88-1.49-11.91-1.38,1.98,1.85,4.26,2.78,6.84,2.78,1.71,0,3.4-.47,5.07-1.39Z"/>
    <path class="cls-7" d="M94.46,27.09c0-.57-.27-2.16-.74-2.55-.48-.38-1.44-.53-2.03-.74-1.39-.48-.64-1.91-1.39-.48-.62-.78-1.34-1.25-2.13-1.54-3.05-.2-6.15-.08-9.28.31-2.85.97-5.49,2.92-7.92,5.83-.3.36-.58.72-.85,1.08,1.11,1.17,2.3,2.24,3.39,3.4-1.62-.52-2.96-1.36-4.1-2.41-1.71,2.48-2.86,5.03-3.44,7.66,2.02,1.48,4,3.03,5.92,4.65.59-3.57,1.5-7.03,2.72-10.38.86-2.38,2.05-4.31,3.57-5.79s3.12-2.22,4.79-2.22c1.33.04,2.43.52,3.28,1.43.85.9,1.41,1.74,1.64,2.5s.36,1.29.36,1.57c-.04.35-.57,2.6-1.57,6.75.34.08.68.17,1.02.26,1.57.45,3.04,1.02,4.4,1.74.16-.65.33-1.32.51-2.04,1.76-7,1.85-8.44,1.85-9.06h0Z"/>
    <path class="cls-7" d="M74.22,15.72l.57-.43c.38-.33.88-.78,1.5-1.36.62-.57,1.24-1.12,1.86-1.64l3.93-3.35,3.79,3.28c2.67,2.34,4.05,3.53,4.14,3.57l1.86-2.07c0-.1-3.09-3.09-9.29-9l-.57-.57-9.78,9.57.93,1c.62.76.97,1.09,1.07,1h0Z"/>
    <path class="cls-4" d="M45.13,27.35c-2.36-.99-4.66-1.48-7.24-1.19-5.13.57-10.17,1.46-14.91,3.57-3.27,1.44-6.26,3.29-8.62,6.03-.27.31-.5.66-.79,1.06,1.5-.16,2.86-.27,4.22-.45,7.6-1.04,15.22-1.11,22.84-.35,7.48.74,14.83,2.23,22.13,4,.93.23,1.87.46,2.81.7.03-.59.08-1.17.17-1.75-6.42-4.63-13.25-8.55-20.6-11.62Z"/>
    <path class="cls-4" d="M68.81,41.25c-1.01-.78-2.04-1.54-3.07-2.29-.08.58-.14,1.16-.17,1.75,1.2.31,2.43.62,3.7.94-.24-.22-.35-.32-.46-.41Z"/>
    <path class="cls-4" d="M79.21,50.5c-4.11-.95-8.27-1.06-12.45-.92-1.65.06-3.3.28-4.95.38-.62.04-1.28.03-1.88-.1-9.34-2.02-18.69-4.03-28.01-6.12-3.88-.87-7.63-2.16-11.07-4.23-.93-.56-1.81-1.19-2.72-1.8.01-.07.03-.14.04-.21,1.16-.15,2.32-.32,3.49-.43,4.98-.49,9.97-.51,14.95-.06,4.05.36,8.08.96,12.1,1.59,4.67.73,9.35,1.46,13.97,2.44,6.3,1.34,11.68,4.49,16.27,9.01.11.1.26.16.39.24-.04.08-.08.15-.13.23h0Z"/>
    <path class="cls-7" d="M91.9,51.01c.22.06,1.96.19,3.22-.59,1.03-.64,1.38-1.64,1.55-2.11.48-1.39.15-2.62,0-3.17-.1-.34-.39-1.25-2.11-3.33-1.57-1.89-2.69-2.79-2.64-2.84.06-.08,2.56,1.59,4.72,4.45,1.36,1.8,1.79,3.01,1.92,3.41.41,1.24.88,2.65.24,4.01-.6,1.29-1.87,1.83-2.52,2.11-.36.16-1.99.65-4.25.64-1.15,0-2.33,0-3.97-.66"/>
    <path class="cls-7" d="M84.85,89.89c3.41-.8,8.03-2.31,13.68-6.35,2.46-1.76,6.84-4.95,10.32-10.81,4-6.72,4.49-12.97,4.71-16.17.24-3.55.61-8.99-2.03-15.28-2.86-6.8-8.49-10.29-10.19-11.63-4.14-3.26-7.79-4.88-10.2-5.72-3.21-1.11-3.51-2.32-5.56-2.58,2.05.27,2.9.16,6.12,1.27,2.41.83,8.15,3.24,12.29,6.5,1.71,1.34,6.4,5.14,9.26,11.95,2.64,6.29,2.27,11.73,2.03,15.28-.22,3.2-.71,9.45-4.71,16.17-3.48,5.86-7.91,9.62-10.36,11.37-5.65,4.04-12.07,6.05-15.35,6h0Z"/>
    <text class="cls-13" transform="translate(171.22 38.73)"><tspan class="cls-14"><tspan x="0" y="0">Qu</tspan><tspan class="cls-12" x="62.59" y="0">O</tspan><tspan class="cls-8" x="96.39" y="0">T</tspan><tspan x="123.81" y="0">h-QI</tspan></tspan><tspan class="cls-11"><tspan x="0" y="28.8">Quantum optics and quantum </tspan></tspan><tspan class="cls-11"><tspan x="0" y="57.6">in</tspan><tspan class="cls-10" x="21" y="57.6">f</tspan><tspan x="28.68" y="57.6">orm</tspan><tspan class="cls-9" x="74.92" y="57.6">a</tspan><tspan x="88.58" y="57.6">tion </tspan><tspan class="cls-9" x="138.57" y="57.6">r</tspan><tspan x="148.49" y="57.6">esea</tspan><tspan class="cls-1" x="204.28" y="57.6">r</tspan><tspan class="cls-9" x="214.17" y="57.6">c</tspan><tspan x="227.84" y="57.6">h</tspan></tspan></text>
  </g>
</svg>