<?xml version="1.0" encoding="UTF-8"?>
<svg id="Layer_2" data-name="Layer 2" xmlns="http://www.w3.org/2000/svg" viewBox="0 0 232.17 298.06">
  <defs>
    <style>
      .cls-1 {
        fill: #ccc;
      }

      .cls-1, .cls-2, .cls-3, .cls-4, .cls-5 {
        stroke-width: 0px;
      }

      .cls-2 {
        fill: #000;
      }

      .cls-3 {
        fill: none;
      }

      .cls-4 {
        fill: #686868;
      }

      .cls-5 {
        fill: #fff;
      }
    </style>
  </defs>
  <g id="Layer_1-2" data-name="Layer 1">
    <ellipse class="cls-4" cx="116.09" cy="149.03" rx="116.09" ry="149.03"/>
    <path class="cls-2" d="M183.01,144.58c-1.31,4.47-2.5,8.97-3.95,13.4-6.67,20.39-16.6,39-30.49,55.42-10.77,12.73-24.03,22.17-38.93,29.43-7.63,3.72-15.52,6.76-23.66,9.13-.48.14-1.21.06-1.6-.23-13.76-10.15-23.84-23.04-29.23-39.4-.16-.49-.3-.98-.5-1.62.66,0,1.2-.03,1.73,0,8.23.55,16.46.57,24.69-.02,18.15-1.3,35.67-5.08,51.83-13.8,15.75-8.49,28.36-20.52,38.88-34.85,3.93-5.36,7.46-10.97,10.55-16.86.13-.24.28-.47.42-.71l.26.09Z"/>
    <path class="cls-2" d="M190.13,102.46c.39.81.81,1.6,1.18,2.42,3.5,7.82,5.3,16.07,6.01,24.57,1.63,19.55-1.89,38.38-8.25,56.77-4.94,14.28-11.32,27.82-20.77,39.76-13.81,17.46-30.9,30.79-50.85,40.55-1.3.63-2.5.77-3.9.45-6.27-1.44-11.97-4.17-17.46-7.43-1.57-.93-3.09-1.94-4.84-3.05,1.9-.63,3.55-1.16,5.18-1.74,24.26-8.57,43.74-23.56,59.04-44.11,13.13-17.64,21.97-37.32,27.67-58.48,1.87-6.95,3.3-13.99,4.23-21.14.41-3.16,1.3-6.25,1.81-9.41.99-6.06,1.14-12.17.78-18.3-.02-.26,0-.52,0-.78.06-.02.12-.05.19-.07Z"/>
    <path class="cls-2" d="M175.51,153c-.06.14-.11.28-.19.41-9.92,15.49-22.17,28.7-37.8,38.59-10.84,6.86-22.68,11.17-35.16,13.83-15.6,3.33-31.38,3.95-47.26,2.91-.8-.05-1.16-.32-1.37-1.14-2.71-10.16-4.1-20.45-3.25-30.97.45-5.55,1.48-11,2.95-16.37.05-.19.14-.36.21-.53,2.85,1.9,5.62,3.87,8.5,5.65,13.66,8.44,28.55,13.05,44.55,14.17,13.92.97,27.45-.64,40.42-6.01,10.75-4.45,19.95-11.06,27.54-19.9.23-.27.47-.53.71-.79l.16.16Z"/>
    <path class="cls-2" d="M94.95,118.75c8.08,1.87,15.51,4.96,21.39,10.83,7.09,7.07,12.4,15.35,15.5,24.92,1.27,3.92,1.4,3-1.84,4.87-10.91,6.29-22.6,10.46-35.12,12.11-1.42.19-2.95-.04-4.36-.39-12.67-3.12-24.37-8.38-34.92-16.11-.36-.26-.63-.66-.94-.99.42-.24.81-.57,1.26-.72,8.03-2.61,15.73-5.94,22.36-11.26,3.39-2.72,6.6-5.7,9.66-8.79,4.43-4.47,6.1-8.2,7-14.47Z"/>
    <path class="cls-5" d="M120.19,94.52c-.45-.09-1.17-.17-1.86-.37-3.27-.97-5.27-3.91-4.7-6.85.63-3.22,4.06-5.56,7.62-5.18,1.85.2,3.48.88,4.77,2.26,2.11,2.27,2.13,5.54.02,7.81-1.5,1.62-3.43,2.27-5.86,2.33Z"/>
    <path class="cls-5" d="M127.68,84.24c-3.69-4.42-8.86-4.82-13.29-1.19.8-2.22,3.17-3.48,6.47-3.45,3.45.04,5.79,1.58,6.82,4.64Z"/>
    <path class="cls-5" d="M126.39,94.15c-1.45,2.45-4.13,3.49-7.09,2.92-3.44-.66-5.52-2.32-5.89-4.71,3.44,4.23,8.21,4.95,12.98,1.8Z"/>
    <path class="cls-3" d="M131.91,72.36c-1.35-1.42-3.07-2.17-5.16-2.24-2.62,0-5.12,1.16-7.52,3.48-2.39,2.32-4.26,5.35-5.61,9.09-2.17,5.91-3.7,12.04-4.6,18.4v1.23c0,.6-.04,1.05-.11,1.35,0,3.37.67,5.69,2.02,6.96,1.35,1.27,2.95,1.94,4.83,2.02,2.84,0,5.65-1.23,8.42-3.7s4.41-4.38,4.94-5.72c.15-.3,1.16-4.3,3.03-12.01,1.87-7.71,2.84-11.86,2.92-12.46,0-.45-.19-1.27-.56-2.47-.37-1.2-1.23-2.51-2.58-3.93Z"/>
    <path class="cls-3" d="M118.34,94.15c.68.2,1.4.28,1.86.37,2.43-.06,4.36-.7,5.86-2.33,2.11-2.27,2.09-5.54-.02-7.81-1.29-1.38-2.92-2.06-4.77-2.26-3.56-.38-6.99,1.96-7.62,5.18-.58,2.94,1.42,5.88,4.7,6.85Z"/>
    <path class="cls-3" d="M127.68,84.24c-1.03-3.06-3.38-4.6-6.82-4.64-3.3-.03-5.67,1.23-6.47,3.45,4.43-3.63,9.6-3.23,13.29,1.19Z"/>
    <path class="cls-3" d="M109.02,102.32c0,.6-.04,1.05-.11,1.35,0,3.37.67,5.69,2.02,6.96,1.35,1.27,2.95,1.94,4.83,2.02,2.08,0,4.14-.67,6.18-1.99-4.04-4.11-8.23-8-12.59-11.67-.11.7-.23,1.4-.32,2.1v1.23Z"/>
    <path class="cls-3" d="M126.39,94.15c-4.77,3.16-9.53,2.43-12.98-1.8.37,2.39,2.45,4.05,5.89,4.71,2.96.57,5.64-.47,7.09-2.92Z"/>
    <path class="cls-3" d="M130.69,89.01c.64.25,1.24.47,1.82.68.03-.12.05-.23.08-.34-.05-.01-.09-.03-.14-.04-.46-.1-.94-.17-1.76-.31Z"/>
    <path class="cls-3" d="M127.14,116.12c-.83-.9-1.66-1.79-2.5-2.67-.57.38-1.13.73-1.7,1.04,1.41.46,2.81.99,4.2,1.63Z"/>
    <path class="cls-2" d="M120.35,67.23c-3.6.46-7.23,1.15-10.89,2.06-2.49.62-4.85,1.73-7.37,2.65,1.18,2.4,2.77,4.35,4.47,6.15.43-.57.87-1.13,1.34-1.69,3.83-4.58,7.98-7.63,12.45-9.16Z"/>
    <path class="cls-2" d="M187.61,98.72c-.04-.49-.27-1.01-.55-1.42-5.29-7.9-11.76-14.66-19.78-19.81-10.34-6.64-21.16-10.03-32.35-10.75,1.23.46,2.37,1.2,3.34,2.42,1.2-2.24,0,0,2.19.75.92.32,2.44.56,3.19,1.16.75.6,1.16,3.1,1.16,4,0,.97-.15,3.23-2.91,14.23-.28,1.12-.55,2.18-.8,3.2,4.7,2.49,8.52,6.11,11.08,11.26,4.06,8.18,4.62,16.83,2.51,25.61-3.2,13.33-10.97,23.52-22.4,30.84-8.75,5.6-18.42,9.16-28.5,11.61-1.38.33-2.77.63-4.15.94.16.21.29.25.43.26,4.86.43,9.7,1.04,14.57,1.25,10.7.47,21.28-.46,31.47-3.94,19.55-6.67,32.7-19.87,39.05-39.53,3.37-10.43,3.44-21.25,2.46-32.08Z"/>
    <path class="cls-2" d="M100.56,73.27c-11.11,1.55-22.13-.13-33.19.06,11.81,4.85,22.65,11.03,32.68,18.34.9-4.13,2.7-8.14,5.4-12.03-1.94-1.79-3.52-3.98-4.89-6.38Z"/>
    <path class="cls-2" d="M121.93,110.65c.75-.48,1.49-1.05,2.24-1.71,2.77-2.47,4.41-4.38,4.94-5.72.15-.3,1.16-4.3,3.03-12.01.13-.52.25-1.03.37-1.52-.58-.21-1.18-.44-1.82-.68.82.14,1.3.2,1.76.31.05.01.09.03.14.04,1.57-6.51,2.4-10.05,2.47-10.6,0-.45-.19-1.27-.56-2.47-.37-1.2-1.23-2.51-2.58-3.93s-3.07-2.17-5.16-2.24c-2.62,0-5.12,1.16-7.52,3.48-2.39,2.32-4.26,5.35-5.61,9.09-1.93,5.26-3.35,10.69-4.28,16.3,4.35,3.67,8.54,7.56,12.59,11.67ZM120.85,79.6c3.45.04,5.79,1.58,6.82,4.64-3.69-4.42-8.86-4.82-13.29-1.19.8-2.22,3.17-3.48,6.47-3.45ZM113.64,87.3c.63-3.22,4.06-5.56,7.62-5.18,1.85.2,3.48.88,4.77,2.26,2.11,2.27,2.13,5.54.02,7.81-1.5,1.62-3.43,2.27-5.86,2.33-.45-.09-1.17-.17-1.86-.37-3.27-.97-5.27-3.91-4.7-6.85ZM119.31,97.06c-3.44-.66-5.52-2.32-5.89-4.71,3.44,4.23,8.21,4.95,12.98,1.8-1.45,2.45-4.13,3.49-7.09,2.92Z"/>
    <path class="cls-2" d="M138.42,111.63c.52.6,1.31.94,2.36,1.01l-2.85,3.02c-2.54,0-2.83.46-4.55-.66-1.72-1.12-2.84-2.28-3.37-3.48l-.67-1.68c-.07-.07-.22-.04-.45.11l-.45.45c-1.26,1.19-2.52,2.2-3.79,3.05.84.88,1.67,1.77,2.5,2.67-1.39-.64-2.79-1.18-4.2-1.63-2.63,1.45-5.29,2.19-7.97,2.19-4.05,0-7.63-1.46-10.74-4.36-2.9.08-5.8.26-8.71.45,22.53,5.93,34.91,20.91,39.27,43.53,1.63-1.46,3.35-2.84,4.87-4.4,9.78-9.99,15.31-21.71,13.95-35.98-.93-9.74-5.21-17.19-12.83-22.19-2.04,8.24-3.09,12.98-3.16,14.2,0,1.87.26,3.1.79,3.7Z"/>
    <path class="cls-1" d="M134.93,66.74c-2.47-.92-5.29-.67-7.84-.67-2.32.02-4.57.42-6.74,1.16,4.92-.63,9.79-.8,14.58-.49Z"/>
    <path class="cls-4" d="M122.94,114.49c.57-.31,1.14-.66,1.7-1.04-.89-.94-1.8-1.87-2.71-2.8-2.04,1.32-4.1,1.99-6.18,1.99-1.87-.07-3.48-.75-4.83-2.02-1.35-1.27-2.02-3.59-2.02-6.96.07-.3.11-.75.11-1.35v-1.23c.1-.7.21-1.4.32-2.1-3.02-2.55-6.12-4.99-9.3-7.31-.15.68-.28,1.36-.38,2.05,1.62,1.17,3.23,2.36,4.83,3.59.18.14.35.3.73.64-2.01-.51-3.93-1-5.82-1.48-.02.49-.04.98-.04,1.47,0,6.51,1.57,11.26,4.71,14.25.05.05.1.08.15.13,6.33-.17,12.6.19,18.71,2.17Z"/>
    <path class="cls-1" d="M132.51,89.69c-.12.49-.24,1-.37,1.52-1.87,7.71-2.88,11.71-3.03,12.01-.52,1.35-2.17,3.25-4.94,5.72-.74.66-1.49,1.23-2.24,1.71.91.92,1.81,1.85,2.71,2.8,1.27-.85,2.54-1.86,3.79-3.05l.45-.45c.22-.15.37-.19.45-.11l.67,1.68c.52,1.2,1.65,2.36,3.37,3.48,1.72,1.12,2.01.66,4.55.66l2.85-3.02c-1.05-.07-1.83-.41-2.36-1.01-.52-.6-.79-1.83-.79-3.7.06-1.22,1.12-5.96,3.16-14.2-1.59-1.05-3.32-1.99-5.2-2.83-.98-.43-1.99-.81-3.09-1.21Z"/>
    <path class="cls-1" d="M122.94,114.49c-6.11-1.98-12.38-2.34-18.71-2.17,3.11,2.9,6.69,4.36,10.74,4.36,2.68,0,5.34-.74,7.97-2.19Z"/>
    <path class="cls-1" d="M144.81,75.07c0-.9-.42-3.4-1.16-4-.75-.6-2.27-.84-3.19-1.16-2.19-.75-1-3-2.19-.75-.97-1.22-2.11-1.96-3.34-2.42-4.79-.31-9.66-.13-14.58.49-4.47,1.53-8.62,4.58-12.45,9.16-.47.56-.91,1.13-1.34,1.69,1.74,1.84,3.62,3.52,5.32,5.34-2.55-.82-4.65-2.13-6.44-3.78-2.69,3.89-4.5,7.9-5.4,12.03,3.18,2.32,6.28,4.76,9.3,7.31.92-5.61,2.35-11.05,4.28-16.3,1.35-3.74,3.22-6.77,5.61-9.09,2.39-2.32,4.9-3.48,7.52-3.48,2.09.07,3.82.82,5.16,2.24s2.21,2.73,2.58,3.93c.37,1.2.56,2.02.56,2.47-.07.55-.89,4.09-2.47,10.6.54.12,1.07.26,1.6.41,2.46.71,4.78,1.61,6.91,2.74.25-1.02.52-2.08.8-3.2,2.77-11,2.91-13.26,2.91-14.23Z"/>
    <path class="cls-1" d="M113,54.07l.9-.67c.6-.52,1.38-1.23,2.36-2.13.97-.9,1.95-1.76,2.92-2.58l6.17-5.27,5.95,5.16c4.19,3.67,6.36,5.54,6.51,5.61l2.92-3.25c0-.15-4.86-4.86-14.59-14.14l-.9-.9-15.37,15.04,1.46,1.57c.97,1.2,1.53,1.72,1.68,1.57Z"/>
    <path class="cls-2" d="M67.31,75.47c-3.7-1.55-7.32-2.33-11.37-1.87-8.06.9-15.97,2.3-23.43,5.61-5.13,2.27-9.83,5.17-13.54,9.47-.42.49-.78,1.04-1.24,1.67,2.35-.25,4.5-.42,6.63-.71,11.94-1.64,23.91-1.74,35.88-.55,11.75,1.16,23.3,3.51,34.76,6.28,1.46.36,2.93.72,4.41,1.1.05-.92.13-1.84.26-2.75-10.09-7.27-20.82-13.43-32.36-18.25Z"/>
    <path class="cls-2" d="M104.5,97.31c-1.59-1.23-3.2-2.42-4.83-3.59-.13.91-.22,1.83-.26,2.75,1.89.48,3.81.97,5.82,1.48-.38-.34-.55-.5-.73-.64Z"/>
    <path class="cls-2" d="M120.84,111.85c-6.45-1.49-12.99-1.67-19.56-1.45-2.59.09-5.18.44-7.77.59-.98.06-2.01.05-2.96-.16-14.68-3.18-29.36-6.33-44.01-9.62-6.1-1.37-11.99-3.4-17.39-6.64-1.46-.88-2.85-1.87-4.28-2.82.02-.11.04-.22.07-.33,1.83-.23,3.65-.5,5.49-.68,7.82-.77,15.67-.8,23.48-.1,6.36.57,12.69,1.51,19.01,2.5,7.34,1.14,14.69,2.29,21.95,3.84,9.9,2.11,18.35,7.06,25.56,14.15.17.16.41.25.62.37-.07.12-.13.24-.2.36Z"/>
    <path class="cls-1" d="M140.78,112.64c.34.09,3.08.3,5.06-.93,1.62-1.01,2.17-2.58,2.43-3.32.76-2.19.24-4.12,0-4.98-.15-.54-.61-1.96-3.32-5.23-2.46-2.97-4.22-4.38-4.15-4.46.1-.12,4.02,2.5,7.41,6.99,2.13,2.82,2.81,4.73,3.01,5.35.65,1.95,1.38,4.16.37,6.3-.95,2.02-2.94,2.88-3.96,3.32-.57.25-3.13,1.02-6.68,1.01-1.8,0-3.66,0-6.24-1.03"/>
    <path class="cls-1" d="M129.7,173.73c5.35-1.25,12.61-3.63,21.49-9.98,3.86-2.76,10.74-7.78,16.21-16.98,6.28-10.55,7.06-20.37,7.4-25.4.38-5.57.96-14.12-3.19-24-4.49-10.69-13.33-16.16-16.01-18.27-6.5-5.12-12.24-7.67-16.02-8.98-5.05-1.75-5.52-3.64-8.74-4.06,3.22.42,4.56.25,9.61,2,3.78,1.31,12.8,5.09,19.3,10.21,2.68,2.11,10.06,8.07,14.55,18.77,4.15,9.88,3.57,18.43,3.19,24-.34,5.03-1.12,14.85-7.4,25.4-5.47,9.2-12.42,15.11-16.28,17.87-8.88,6.35-18.96,9.51-24.12,9.42Z"/>
  </g>
</svg>