<?xml version="1.0" encoding="UTF-8"?>
<svg id="Layer_2" data-name="Layer 2" xmlns="http://www.w3.org/2000/svg" viewBox="0 0 522.69 137.01">
  <defs>
    <style>
      .cls-1 {
        fill: #512c7b;
        stroke-width: 0px;
      }
    </style>
  </defs>
  <g id="Layer_2-2" data-name="Layer 2">
    <g id="Layer_1-2" data-name="Layer 1-2">
      <g>
        <path class="cls-1" d="M115.67,0c.01,16.94.02,33.88.03,50.83,0,6.5-.02,13,0,19.5.03,7.91-1.63,15.45-4.83,22.66-2.96,6.67-6.98,12.62-11.78,18.11-7.8,8.93-17.22,15.67-27.82,20.8-3.51,1.7-7.26,2.92-10.89,4.38-.48.19-.92.48-1.38.72h-2c-.07-.08-.12-.22-.21-.24-7.36-2.28-14.31-5.46-20.89-9.45-5.97-3.62-11.56-7.81-16.29-12.91-3.85-4.14-7.32-8.69-10.51-13.36-3.85-5.64-6.4-11.94-7.78-18.67-.41-2.01-.88-4.02-1.32-6.03C0,50.92,0,25.5,0,0h115.67ZM112.78,3.12H2.96v2.29c0,21.71,0,43.43,0,65.14,0,1.82.15,3.64.31,5.45.51,5.95,2.27,11.56,4.84,16.91,6.05,12.58,15.32,22.37,26.8,30.1,6.75,4.55,14.05,8.11,21.86,10.52.71.22,1.64.21,2.33-.04,3.06-1.11,6.1-2.28,9.08-3.56,9.13-3.93,17.14-9.57,24.33-16.36,4.42-4.18,8.21-8.94,11.45-14.12,5.62-9.01,8.84-18.77,8.88-29.42.08-21.66.03-43.32.02-64.97,0-.65-.05-1.3-.08-1.93h0Z"/>
        <path class="cls-1" d="M264,0c-.07.6-.15,1.19-.22,1.76-3.32.76-3.59,1.11-3.59,4.58v19.15c0,5.57,4.88,9.34,10.35,8.24,4.99-1,8.15-4.63,7.96-9.98-.21-5.88-.05-11.77-.05-17.65,0-2.53-1.28-3.94-3.83-4.23-.09-.6-.19-1.24-.29-1.88h11.67c-.04.6-.08,1.2-.12,1.89-.49.04-.92.09-1.35.11-1.64.08-2.24.69-2.24,2.38-.01,6.66-.17,13.33.04,19.98.2,6.22-3.56,11.34-9.62,12.72-5.19,1.19-10.19.88-14.69-2.38-2.75-1.99-4.52-4.67-4.64-8.05-.25-6.98-.26-13.96-.35-20.94-.03-2.67-.78-3.53-3.69-3.84V0h14.66Z"/>
        <path class="cls-1" d="M171.67,0c.09.26.26.51.26.77.02,2.91,0,5.82,0,8.8h-1.12c-.61-1.55-1-2.99-1.73-4.22-.39-.66-1.35-1.3-2.11-1.36-2.25-.18-4.52-.06-7.02-.06v26.91c0,3.58.76,4.39,4.3,4.58.16,0,.31.07.56.12v1.69h-16.46c-.04-.53-.09-1.04-.14-1.65.49-.07.86-.14,1.23-.17,2.31-.13,3.32-1.16,3.32-3.43V3.97c-2.47,0-4.9-.32-7.16.14-1.09.22-1.99,1.86-2.74,3.01-.42.64-.37,1.59-.54,2.48h-1.33V0h30.67Z"/>
        <path class="cls-1" d="M522.67,80.34c-1.12,2.12-2.04,4.36-3.39,6.32-2.3,3.32-5.79,5.04-9.69,5.28-5.08.31-10.2.06-15.3.05-.16,0-.31-.09-.99-.3.55-.56.86-1.12,1.3-1.26,1.25-.4,1.78-1.18,1.78-2.44v-21.47c0-1.27-.56-2.04-1.8-2.45-.45-.15-.75-.77-.94-1.42,6.6.26,13.09-1.14,19.45.72,4.8,1.41,7.73,4.68,9.21,9.37.07.22.26.41.39.61v7h-.02ZM502.72,89.16c1.35,0,2.63.02,3.92,0,4.03-.09,7.11-1.95,9.19-5.31,1.51-2.44,1.5-5.25,1.45-8.04-.08-4.9-3.52-9.39-8.27-10.48-1.43-.33-2.95-.28-4.41-.48-1.52-.2-1.98.14-1.98,1.7v21.12c0,.43.06.87.1,1.49h0Z"/>
        <path class="cls-1" d="M522.67,9.01c-3.28.68-3.97,3.74-5.45,6.03-1.71,2.64-3.26,5.38-4.76,8.15-.5.93-.81,2.05-.88,3.1-.13,2.16-.04,4.33-.04,6.49,0,1.48.53,2.52,2.1,2.95.45.12.78.72,1.16,1.1-.11.14-.22.28-.33.43h-11.21c-.47-1.02-.07-1.53.84-1.74,1.33-.3,1.74-1.24,1.75-2.46,0-2.44.06-4.89-.03-7.32-.03-.72-.34-1.51-.73-2.13-2.69-4.24-5.41-8.46-8.2-12.64-.46-.68-1.24-1.26-2.01-1.6-.93-.41-1.2-.87-.75-1.84h11.38c-.66.83-.95,1.48-1.45,1.76-.88.5-.87,1.02-.4,1.74,2.15,3.27,4.29,6.55,6.54,9.98,2.03-3.48,3.95-6.81,5.92-10.11.53-.89.33-1.35-.57-1.8-.42-.21-.65-.81-.96-1.23.1-.18.21-.35.31-.53h7.77v1.67h0Z"/>
        <path class="cls-1" d="M254.56,98.85v2.04c-3.12-.47-6.16-.8-9.14-1.41-4.72-.97-8.61-3.55-12.2-6.67-.47-.41-1.1-.7-1.71-.87-7.17-2.1-12.11-8.47-12.68-15.93-.33-4.3.13-8.34,2.11-12.2,2.51-4.91,6.51-7.89,11.83-9.01,6.25-1.31,11.75.6,16.33,4.78,3.25,2.97,4.79,7.05,5.15,11.39.39,4.73-.04,9.37-2.69,13.58-2.02,3.2-4.78,5.41-8.2,6.83.36,3.03,5.65,6.89,11.21,7.46h0ZM246.82,72.45c0-2.72-.41-6.32-2.35-9.57-1.85-3.12-4.37-5.37-8.2-5.19-3.65.17-6.19,2.2-7.88,5.46-2.33,4.51-2.52,9.34-1.97,14.16.42,3.66,1.59,7.16,4.51,9.84,3.43,3.16,9.4,2.66,12.21-1.08,2.83-3.77,3.69-8.07,3.67-13.61h.01Z"/>
        <path class="cls-1" d="M158.3,92.33c-9.47.24-16.77-6.94-17.55-16.42-.45-5.55.68-10.6,3.94-15.12,2.76-3.83,6.8-5.72,11.25-6.24,6.73-.79,12.87,1.47,17.08,7.59,1.94,2.82,2.68,6.07,3,9.5.43,4.62-.46,8.87-2.82,12.79-3.15,5.24-8.9,8.13-14.9,7.9ZM168.83,73.48c-.32-3.59-.51-7.21-2.32-10.54-1.94-3.57-6.39-6.22-10.32-4.98-2.7.85-4.63,2.59-5.87,5.03-2.18,4.3-2.71,8.86-2.08,13.64.54,4.04,1.63,7.72,4.75,10.6,2.88,2.66,8.03,2.64,10.88-.07,3.95-3.74,4.56-8.63,4.96-13.68h0Z"/>
        <path class="cls-1" d="M204.76,8.03c-.4.37-.74.91-1.21,1.07-1.13.38-1.8.95-1.82,2.23-.05,4.32-.18,8.64-.22,12.97-.02,2.88-.07,5.78.16,8.65.18,2.27.43,2.33,2.8,2.56.03.51.06,1.03.1,1.7h-11.42v-1.6c2.76-.54,2.95-.76,2.95-3.59v-8.29h-11.47c0,3.27-.09,6.53.04,9.78.06,1.48.59,1.76,2.54,2.08v1.66h-10.98c-.03-.57-.05-1.09-.08-1.6,2.51-.53,2.82-.92,2.82-3.48V12.68c0-1.67,0-3.28-2.22-3.62-.24-.04-.59-.66-.54-.96.05-.26.57-.62.89-.62,3.33-.05,6.66-.03,10.1-.03.03.53.06,1,.09,1.45-2.32.72-2.7,1.24-2.7,3.58v8.1h11.38c0-3.17.1-6.36-.09-9.53-.04-.64-1.07-1.48-1.82-1.77-.99-.37-1.2-.79-.84-1.75h11.08c.15.17.29.33.44.5h.02Z"/>
        <path class="cls-1" d="M396.22,37.23c-.03-.58-.05-1.06-.07-1.52,2.75-.78,3.11-1.24,3.12-4.15.01-6.11.05-12.21-.02-18.32-.02-1.83.1-3.95-2.63-4.22-.18-.02-.46-.61-.42-.9.04-.25.47-.65.72-.64,5.07.23,10.18-.67,15.21.58,4.03,1,5.85,2.97,6.22,6.72.33,3.33-1.55,6.3-4.96,7.85-.3.14-.6.27-1.2.55,3.76,4.16,6.18,9.29,10.65,12.68.13-.09.25-.18.38-.27v1.72c-2.31,0-4.67.3-6.89-.13-1.02-.2-1.83-1.76-2.63-2.79-2.47-3.18-4.87-6.41-7.33-9.6-.34-.43-.88-.71-1.72-1.37,0,3.69-.09,6.78.04,9.87.07,1.52,1.07,2.38,2.84,2.13.03.61.06,1.14.1,1.8h-11.41ZM404.6,15.83c0,1.44-.06,2.89.04,4.32.03.41.43,1.05.77,1.13,2.35.56,5.79-1.36,6.65-3.63.69-1.83.56-3.59-.74-5.13-1.51-1.79-3.51-2.46-5.78-2.12-.37.05-.85.81-.89,1.27-.12,1.38-.04,2.77-.04,4.16h0Z"/>
        <path class="cls-1" d="M459.17,62.44c1.55,0,3.13.15,4.66-.03,2.36-.29,3.95.53,5.46,2.4,4.01,4.98,8.26,9.78,12.42,14.64.31.36.71.65,1.4,1.28v-2.26c0-3.89-.02-7.77.01-11.66.01-1.45-.39-2.44-1.98-2.78-.38-.08-.62-.8-1.13-1.51h9.28c-.41.67-.61,1.43-.96,1.51-1.79.37-2.05,1.55-2.04,3.09.03,7.61.01,15.21.01,22.82v2.31c-.86-.41-1.62-.56-2.03-1.02-2.36-2.62-4.64-5.32-6.95-7.99-3.42-3.96-6.83-7.93-10.58-12.28-.05.94-.1,1.44-.1,1.94v14.66c0,2.11.39,2.56,2.55,2.98.29.82.39,1.51-.86,1.5-2.44-.01-4.88,0-7.47,0-.04-.54-.07-.99-.11-1.42,2.41-.51,2.69-.86,2.69-3.26v-18.65c0-2.3-1.46-4.05-3.67-4.64-.43-.12-.73-.76-1.08-1.16.16-.15.32-.3.49-.44v-.03Z"/>
        <path class="cls-1" d="M288.1,9v-1.41c.21-.05.36-.12.51-.12,1.89-.01,3.78.09,5.66-.05,1.4-.11,2.29.48,3.12,1.45,4.38,5.11,8.79,10.21,13.18,15.31.45.52.88,1.05,1.52,1.81.11-.68.22-1.03.22-1.39.01-4.11.02-8.22,0-12.33,0-1.5-.44-2.69-2.12-3.14-.45-.12-.76-.76-1.14-1.16.11-.14.22-.28.33-.42h8.69c.25.76.42,1.38-.75,1.63-1.4.3-1.89,1.25-1.88,2.7.05,7.72.03,15.44.02,23.16,0,.71-.06,1.42-.12,2.56-.8-.41-1.46-.56-1.82-.97-5.37-6.23-10.7-12.49-16.05-18.74-.39-.45-.87-.83-1.67-1.59v16.1c0,2.41.25,2.69,2.69,3.16v1.76c-2.71,0-5.36.06-8.01-.06-.4-.02-.76-.88-1.28-1.52,3.32-.76,3.46-.93,3.46-3.91V14.17c0-2.86-1.57-4.7-4.56-5.19v.02Z"/>
        <path class="cls-1" d="M344.27,62.44c2.33,0,4.66-.07,6.98.05.6.03,1.3.56,1.73,1.06,4.96,5.69,9.88,11.43,15.06,17.43.08-.75.17-1.19.17-1.64.01-4.05-.01-8.11.02-12.16.01-1.66-.59-2.74-2.32-3.14-.39-.09-.64-.77-.96-1.17l.32-.42c2.71,0,5.41-.02,8.12.03.26,0,.74.42.72.61-.03.34-.33.91-.58.94-2,.26-2.22,1.56-2.21,3.24.05,7.5.02,15,.02,22.5v2.57c-.95-.47-1.75-.63-2.18-1.12-3.62-4.1-7.19-8.25-10.75-12.39-1.65-1.92-3.28-3.87-4.9-5.82-.42-.51-.77-1.08-1.15-1.63-.2.11-.4.22-.61.32-.03.56-.08,1.12-.08,1.69v14c0,2.37.31,2.75,2.65,3.15.43,1.05.13,1.53-1.06,1.51-2.22-.04-4.44-.04-6.66,0-1.12.02-1.35-.48-1.05-1.43,2.5-.56,2.99-1.14,2.99-3.74.01-6.05,0-12.11,0-18.16,0-1.77-1.89-4.11-3.59-4.65-.46-.15-.78-.73-1.17-1.11.16-.17.32-.33.47-.5l.02-.02Z"/>
        <path class="cls-1" d="M367.53,7.54h22.24c.12,2.17.25,4.25.35,6.34.06,1.2-.66,1.17-1.17,1.05-.6-1.28-.87-2.51-1.62-3.24-.74-.72-1.95-1.21-3-1.31-2.15-.19-4.33-.1-6.49-.02-.41.01-1.15.47-1.15.73-.08,2.92-.05,5.85-.05,8.96,2.62,0,5.06.15,7.46-.09.7-.07,1.29-1.28,1.93-1.96.36-.39.73-.77,1.1-1.15.14.11.29.22.43.33v8.65c-.89.27-1.4.3-1.59-.89-.2-1.3-1.04-2.08-2.57-2.01-2.16.1-4.32.03-6.78.03v3.35c0,2.11.03,4.22,0,6.33-.02,1,.26,1.57,1.4,1.55,2.5-.04,5,.1,7.5-.04,2.69-.14,4.27-1.92,5.22-4.25.45-1.11,1.02-1.49,2.23-.97-.82,2.51-1.61,5.03-2.48,7.52-.13.36-.65.84-.99.85-7.1.05-14.2.04-21.41.04v-1.71c2.57-.54,2.62-.61,2.62-3.29,0-6.83-.01-13.66,0-20.49,0-1.44-.4-2.45-2-2.78-.38-.08-.62-.78-1.17-1.53h0Z"/>
        <path class="cls-1" d="M217.46,22.96c0,3.5-.04,6.88.06,10.25,0,.33.78.91,1.21.93,2.55.09,5.12.17,7.66,0,2.66-.18,4.33-1.87,5.19-4.29.4-1.12.96-1.35,2.15-.93-.79,2.6-1.55,5.17-2.38,7.72-.1.3-.6.66-.92.66-7.15.04-14.31.03-21.59.03-.04-.64-.08-1.17-.11-1.67,2.74-.65,3.05-1.04,3.05-3.84V13.16c0-1.88,0-3.72-2.51-4.15-.29-.05-.44-.85-.76-1.5h22.02c.17,2.39.34,4.78.52,7.3-.59.06-1,.09-1.48.14-.18-.75-.29-1.45-.53-2.1-.5-1.39-1.49-2.43-2.98-2.5-2.77-.12-5.54-.04-8.47-.04v9.73c2.49,0,4.98.14,7.43-.09.65-.06,1.48-1.15,1.72-1.92.34-1.08.79-1.16,1.72-.8v8.54c-.96.37-1.5.31-1.7-.91-.22-1.39-1.12-2.01-2.61-1.94-2.15.1-4.32.02-6.7.02v.02Z"/>
        <path class="cls-1" d="M317.66,90.49c2.23-.22,2.65-.68,2.65-2.84,0-6.83-.01-13.66.01-20.48,0-1.6-.27-2.85-2.17-3.16-.33-.05-.55-.76-1.1-1.58h22.09c.18,2.31.4,4.55.48,6.78.01.3-.69.63-1.25,1.1-.29-1.1-.41-1.79-.65-2.45-.6-1.71-1.83-2.55-3.65-2.55h-8.04v9.4c2.74,0,5.5.09,8.23-.08.49-.03.9-1.11,1.38-1.67.35-.4.76-.74,1.15-1.11.13.11.26.23.39.34v8.29c-.93.33-1.36.23-1.66-.86-.18-.66-1.13-1.53-1.79-1.58-2.53-.18-5.07-.07-7.8-.07,0,3.37-.05,6.57.05,9.76.02.48.73,1.33,1.13,1.34,2.82.08,5.66.11,8.47-.1,2.68-.2,3.9-2.28,4.76-4.51.43-1.11,1.03-1.3,2.16-.86-.84,2.57-1.63,5.13-2.54,7.65-.13.35-.8.73-1.22.73-6.72.05-13.43.02-20.15.04-1.15,0-1.33-.51-.97-1.54h.04Z"/>
        <path class="cls-1" d="M311.68,62.44c.15,2.56.3,4.91.44,7.27-.17.12-.34.23-.5.35-.39-.38-1.02-.69-1.14-1.14-.86-3.06-1.5-3.61-4.58-3.61h-7.3v9.4c2.75,0,5.39.09,8.02-.08.5-.03.93-1.06,1.4-1.62.34-.4.71-.79,1.07-1.18l.44.33v8.32c-.85.28-1.4.34-1.59-.85-.18-1.12-.93-1.76-2.25-1.71-2.27.09-4.54.02-7.1.02,0,1.35-.03,2.6,0,3.84.06,2.31.15,4.62.23,6.93,2.41.14,4.82.3,7.23.41.6.03,1.22-.02,1.82-.1,2.7-.37,4.1-2.23,4.98-4.56.41-1.1.96-1.37,2.1-.82-.77,2.53-1.5,5.06-2.35,7.55-.12.37-.8.77-1.22.77-6.72.05-13.44.05-20.15,0-.43,0-.85-.61-1.55-1.15,3.1-.9,3.3-1.16,3.3-3.85v-19.49c0-1.64-.13-3.16-2.25-3.48-.23-.04-.38-.64-.57-.97.38-.2.77-.57,1.15-.57,5.05-.04,10.1-.03,15.16-.03h5.22v.02Z"/>
        <path class="cls-1" d="M258.19,62.5h10.87c-.54.75-.77,1.38-1.21,1.61-1.11.6-1.59,1.41-1.58,2.66.03,5.17-.09,10.33.04,15.5.16,5.93,4.06,7.81,8.95,6.63,3.57-.86,5.4-3.5,5.4-7.2,0-5-.02-10,.01-15,0-1.44-.26-2.5-1.99-2.69-.35-.04-.62-.77-1.17-1.49h8.94c.17.83.39,1.6-.89,1.56-1.43-.04-1.75.81-1.74,2.05.03,5.44.12,10.89-.05,16.33-.05,1.69-.59,3.48-1.35,5.01-1.46,2.97-4.24,4.22-7.37,4.68-3.58.52-7.06.31-10.21-1.77-2.95-1.95-4.41-4.76-4.47-8.24-.08-5.05-.07-10.11.01-15.16.02-1.37-.6-2.14-1.62-2.84-.42-.29-.68-.8-1.02-1.22.14-.14.28-.28.42-.41h.03Z"/>
        <path class="cls-1" d="M446.21,92.01c-.32-1.01-.34-1.58.86-1.67.82-.06,1.21-.58.77-1.54-.76-1.65-1.34-3.4-2.13-5.04-.2-.42-.91-.83-1.39-.85-2.44-.09-4.89-.09-7.33,0-.52.02-1.25.49-1.5.95-.82,1.56-1.56,3.18-2.13,4.85-.54,1.56.8,1.61,1.84,1.77v1.51c-2.62,0-5.17.04-7.71-.05-.35-.01-.68-.72-1.32-1.44,2.69.02,3.53-1.46,4.2-3.08,3.43-8.2,6.84-16.4,10.3-24.59.17-.41.69-.97,1.02-.96.4,0,.96.49,1.14.91,3.51,8.04,6.93,16.12,10.47,24.15.67,1.53,1.01,3.57,4,3.53-.65.76-.97,1.47-1.31,1.48-3.26.09-6.53.05-9.79.05v.02ZM443.94,79.9c-1.15-2.7-2.21-5.18-3.43-8.05-1.24,2.91-2.3,5.39-3.43,8.05h6.86Z"/>
        <path class="cls-1" d="M188.39,74.72c2.74,0,5.39.08,8.03-.07.5-.03,1.14-.94,1.38-1.56.34-.89.7-1.32,1.72-.87.03.34.09.72.09,1.1v7.1c-1.14.53-1.73.12-1.87-.89-.17-1.28-.91-1.61-2.08-1.58-2.38.04-4.76.01-7.32.01,0,3.66-.09,7.18.04,10.7.05,1.51,1.31,1.9,2.67,1.74.5,1.25.12,1.66-1.11,1.64-2.94-.05-5.89-.04-8.83,0-1.12.01-1.57-.35-1.14-1.46,2.41-.41,2.67-.73,2.67-3.27,0-6.83-.03-13.66.02-20.49,0-1.52-.47-2.39-1.99-2.78-.41-.1-.66-.81-1.22-1.55h23.41c.17,2.42.34,4.81.5,7.2-.16.12-.31.24-.47.36-.4-.37-1.03-.66-1.17-1.11-.87-2.95-1.72-3.63-4.8-3.63h-8.56v9.41h.03Z"/>
        <path class="cls-1" d="M443.86,7.36v10.07c-1.57.82-1.61-.48-1.76-1.28-.56-2.83-2.07-4.85-4.8-5.84-2.23-.81-4.16-.04-5.2,1.95-.85,1.63-.23,3.79,1.63,4.99,1.95,1.25,4.09,2.21,5.99,3.52,1.47,1.01,2.86,2.23,4.03,3.59,2.13,2.48,2.2,5.35.89,8.25-1.38,3.06-3.86,4.56-7.17,4.75-2.25.13-4.41-.17-6.44-1.22-.89-.46-1.54-.24-2.12.61-.21.31-.78.53-1.17.5-.19,0-.49-.66-.49-1.03-.04-2.77-.06-5.55,0-8.32.01-.46.48-.91.74-1.37.3.41.79.78.87,1.23.55,3.02,1.92,5.39,4.83,6.68,2.62,1.17,6.16-.53,6.63-3.33.43-2.5-1.41-3.86-3.11-5.08-2.32-1.67-4.84-3.07-7.21-4.67-3.08-2.09-3.71-5.71-2.53-9.16.94-2.73,4.15-5.13,7.15-5,1.66.07,3.31.61,4.96,1.01,1.01.24,2.03,1.19,2.78-.45.12-.26.84-.24,1.49-.39h.01Z"/>
        <path class="cls-1" d="M378.37,92.17c0-3.51-.04-6.62.05-9.72.01-.4.66-.77,1.21-1.03.52,3.31,1.63,5.99,4.48,7.6,1.68.95,3.47,1.22,5.16.04,1.45-1.01,2.63-2.28,2.28-4.27-.36-2.06-2.04-3.09-3.55-4.15-1.99-1.39-4.12-2.56-6.16-3.89-2.68-1.74-4.13-4.26-3.73-7.43.45-3.51,2.43-6.02,5.96-6.99,2.21-.61,4.37-.18,6.44.74,1.06.47,2.11,1.12,2.98-.39.15-.26.87-.2,1.43-.32v10.11c-.98.33-1.41.24-1.6-.91-.48-2.87-1.87-5.16-4.72-6.32-1.65-.67-3.83-.13-4.95,1.27-1.25,1.57-1.29,2.76.29,4.57.87,1,2.14,1.65,3.27,2.42,2.27,1.55,4.73,2.88,6.8,4.66,2.69,2.31,3.39,5.94,2.17,8.92-1.33,3.27-4.3,5.33-7.93,5.16-1.95-.09-3.91-.59-5.81-1.11-.95-.26-1.63-.41-2.37.41-.29.33-.94.34-1.69.58v.05Z"/>
        <path class="cls-1" d="M364.81,7.45c-.28.7-.37,1.25-.67,1.65-.77,1.02-1.94,1.84-2.4,2.96-3.22,7.87-6.28,15.79-9.43,23.68-.24.6-.83,1.06-1.26,1.58-.5-.51-1.2-.93-1.47-1.54-3.15-7.18-6.18-14.41-9.37-21.57-.84-1.88-1.13-4.24-3.52-5.16-.28-.11-.29-.91-.46-1.52h10.75c.04.47.07.9.1,1.27-.17.12-.25.23-.34.24-2.13.31-2.28.5-1.43,2.48,1.98,4.62,4.01,9.22,6.03,13.82.17.39.43.74.86,1.48.9-2.12,1.7-3.94,2.44-5.79,1.34-3.33,2.58-6.69,3.98-10,.4-.94.28-1.37-.61-1.82-.38-.19-.57-.76-.85-1.16.44-.2.87-.56,1.32-.58,1.99-.06,3.99-.03,6.35-.03h-.02Z"/>
        <path class="cls-1" d="M467.79,15.14c-1.3.42-1.6-.16-1.53-1.21.11-1.66.2-3.31.28-4.97.05-1,.49-1.51,1.55-1.51,7.39.01,14.78.01,22.16,0,1.23,0,1.65.61,1.63,1.76-.03,1.94,0,3.88,0,5.92-1.11.48-1.55-.05-1.71-1.22-.35-2.54-1.19-3.26-3.67-3.27-3.01,0-4.52,1.49-4.52,4.48v17.33c0,2.53.15,2.71,2.65,3.15v1.65h-10.85c-.04-.54-.09-1.06-.13-1.56,2.64-.69,2.73-.81,2.73-3.51V12.85c0-1.47-.76-2.2-2.28-2.2h-2c-2.68,0-3.42.57-4.05,3.14-.1.42-.16.86-.26,1.36h0Z"/>
        <path class="cls-1" d="M425.69,83.61c-.84,2.79-1.67,5.56-2.51,8.34h-21.68c-.12-.83-.41-1.49.9-1.59,1.27-.11,1.69-1.22,1.7-2.32.04-7.17.04-14.33,0-21.5,0-1.13-.46-2.12-1.79-2.49-.44-.12-.74-.76-1.11-1.16.11-.12.23-.25.34-.37h10.88c.22.81.42,1.45-.82,1.61-1.32.17-1.81,1.11-1.81,2.39,0,6.94.01,13.89,0,20.83,0,1.36.63,1.88,1.95,1.83,1.61-.06,3.22-.01,4.83-.01,3.74,0,5.53-1.13,6.83-4.6.45-1.19,1.05-1.4,2.28-.95h.01Z"/>
        <path class="cls-1" d="M332.9,35.53v1.69h-11.02v-1.63c2.32-.38,2.73-.85,2.73-3.14,0-6.72-.01-13.44.01-20.16,0-1.57-.51-2.65-2.08-3.2-.4-.14-.61-.81-1.11-1.55h11.44c.02.46.05.93.07,1.37-2.69.8-2.7.81-2.7,3.6v20.16c0,2.22.33,2.58,2.66,2.86h0Z"/>
        <path class="cls-1" d="M461.51,7.52c.31.94.26,1.48-.83,1.75-1.19.3-1.73,1.28-1.73,2.53,0,7.05,0,14.1.01,21.14,0,1.78.58,2.33,2.62,2.6.02.5.05,1.03.08,1.68h-10.95v-1.61c2.35-.45,2.64-.81,2.64-3.19V12.44c0-2.62-.09-2.74-2.66-3.48v-1.45h10.82Z"/>
        <path class="cls-1" d="M260.53,126.58c0,1.75-.07,3.5.05,5.24.03.42.65.8,1.01,1.19.22.25.44.49.66.74-.32.14-.64.4-.96.41-1.55.04-3.11.03-4.66,0-.29,0-.57-.23-.85-.36.16-.32.3-.64.47-.95.35-.66,1.01-1.3,1.03-1.97.1-3.55.11-7.1,0-10.65-.02-.68-.67-1.35-1.04-2.01-.14-.25-.31-.49-.46-.74.28-.12.56-.34.84-.34,2.52-.03,5.04-.11,7.55,0,2.1.09,3.58,1.42,4.05,3.29.52,2.09-.07,3.58-1.9,4.86-.36.25-.7.52-1.29.96,2.04,2.51,4.05,4.99,6.06,7.46-1.14.94-3.99.7-4.93-.53-1.72-2.25-3.45-4.5-5.18-6.75-.14.05-.29.1-.43.15h-.02ZM260.49,124.68c.59.04,1.03.13,1.45.08,1.58-.21,3.1-1.92,2.95-3.28-.14-1.38-1.86-2.84-3.31-2.67-.39.04-1.03.53-1.05.84-.11,1.64-.05,3.3-.05,5.04h0Z"/>
        <path class="cls-1" d="M175.33,117.12c1.96,0,3.73-.02,5.5.02.31,0,.61.29.91.44-.19.22-.42.41-.56.65-.32.56-.84,1.15-.86,1.73-.09,2.94-.06,5.89-.03,8.83.02,1.92,1.71,3.55,3.63,3.56,2.14.02,4.13-1.53,4.18-3.44.08-3.16.05-6.33,0-9.49,0-.41-.52-.81-.82-1.2-.21-.28-.44-.54-.85-1.04h5.11c0,.3.04.79,0,.79-1.75.32-1.43,1.67-1.43,2.84,0,2.67-.02,5.33,0,8,.02,2.4-1.12,4.09-3.31,4.86-4.22,1.49-8.79.21-9.84-3.86-.43-1.67-.15-3.53-.17-5.3-.02-1.11,0-2.22,0-3.33,0-1.26.26-2.6-1.32-3.22-.09-.04-.06-.4-.11-.84h-.02Z"/>
        <path class="cls-1" d="M294.89,133.97c.4-1,1.04-1.8.85-2.24-.5-1.16-.38-3.1-2.56-2.79-.44.06-.9.08-1.33,0-2.01-.38-3.32.34-3.64,2.41-.08.51.18,1.09.33,1.63.08.29.26.54.39.82-.28.13-.55.35-.83.36-1.11.04-2.22.03-3.33,0-.23,0-.65-.23-.65-.33.01-.27.18-.56.35-.8.73-1.07,1.67-2.04,2.18-3.2,1.61-3.69,3.05-7.45,4.57-11.17.15-.36.29-.73.52-1.03.25-.33.59-.58.89-.86.28.31.67.57.83.93,1.42,3.23,2.78,6.49,4.18,9.73.61,1.42,1.26,2.82,1.92,4.21.18.39.48.72.75,1.06.3.39.62.77.93,1.15-.46.11-.91.31-1.37.32-1.22.05-2.44.04-3.66,0-.49,0-.98-.15-1.32-.2h0ZM290.15,126.8h3.5c-.62-1.38-1.12-2.5-1.8-4.04-.66,1.58-1.15,2.74-1.69,4.04h-.01Z"/>
        <path class="cls-1" d="M144.81,134.15c4.25-4.65,5.12-10.34,7.63-15.22.1-.19.11-.44.23-.62.38-.54.79-1.06,1.18-1.59.35.52.79,1.01,1.04,1.57,1.8,4.04,3.52,8.1,5.36,12.12.44.96,1.27,1.75,1.8,2.68.12.21-.25,1.01-.42,1.02-1.55.08-3.11.07-4.66.03-.25,0-.48-.32-.72-.49.33-.39.66-.79,1.09-1.29-.3-.73-.55-1.65-1.04-2.42-.3-.46-.94-.78-1.5-.96-.51-.16-1.1-.03-1.66-.03-2.83,0-2.87,0-3.74,2.6-.14.41.26.97.31,1.47.04.37-.06,1.09-.13,1.09-1.47.06-2.94.05-4.76.05h0ZM153.33,123.21c-.15.01-.3.02-.46.03-.49,1.16-.98,2.33-1.55,3.66h3.63c-.59-1.35-1.11-2.52-1.63-3.7h.01Z"/>
        <path class="cls-1" d="M364.03,132.4c.54.48.95.84,1.36,1.21-.05.18-.11.36-.16.54-1.46,0-2.91.03-4.37-.04-.15,0-.42-.86-.38-.89,2.6-1.58,2.77-4.53,3.87-6.92,1.31-2.85,2.42-5.8,3.64-8.7.14-.33.43-.6.89-1.24.55,1,1.05,1.75,1.4,2.56,1.86,4.25,3.64,8.53,5.55,12.76.35.77,1.16,1.32,1.72,2.45h-5.8c0-.38-.01-.76.02-1.13.05-.56.4-1.3.17-1.63-.58-.82-.2-2.42-1.84-2.41-1.22,0-2.45-.07-3.66.04-.44.04-1,.43-1.24.83-.48.79-.78,1.7-1.17,2.58h0ZM368.39,123.21c-.16,0-.32.02-.48.02-.48,1.17-.95,2.34-1.5,3.68h3.59c-.58-1.34-1.1-2.52-1.61-3.7Z"/>
        <path class="cls-1" d="M204.75,133.57c.15-1.58-.4-3.64.43-6.06.63,1.42.89,2.55,1.54,3.33.61.73,1.6,1.3,2.53,1.58,1.28.39,2.34-.32,2.75-1.53.39-1.14-.07-2.19-1.11-2.87-1.48-.96-3.02-1.83-4.47-2.83-1.8-1.23-2.4-3.71-1.49-5.72.86-1.89,3.23-3.06,5.25-2.63,1.29.28,2.59.51,4.04.79v5.26c-.17.06-.33.13-.5.19-.23-.55-.52-1.08-.68-1.65-.5-1.8-3.09-3.58-4.6-2.46-1.17.87-1.51,1.8-.45,2.84.89.87,2.02,1.49,3.05,2.23.76.54,1.59,1.02,2.26,1.65,2.14,2.05,2.54,3.96,1.38,6.04-1.18,2.11-3.67,2.94-6.37,2.25-1.02-.26-2.1-.26-3.54-.43l-.02.02Z"/>
        <path class="cls-1" d="M314.19,117.27h6.44c-.1.3-.16.82-.29.83-1.59.22-1.48,1.37-1.47,2.51.01,3.33.04,6.66-.01,10-.02,1.14.38,1.64,1.55,1.56.94-.06,1.89-.03,2.83,0,1.58.04,2.57-.73,3.19-2.15.23-.52.68-.94,1.03-1.41.2.1.4.2.6.29-.48,1.59-.9,3.2-1.48,4.75-.11.29-.82.5-1.26.5-3.33.04-6.66.04-10,0-.39,0-.78-.26-1.17-.39.27-.34.6-.65.8-1.03.29-.55.7-1.14.71-1.72.06-3.66.12-7.33-.03-10.99-.03-.86-.85-1.68-1.44-2.75h0Z"/>
        <path class="cls-1" d="M231.95,134.17c.18-.58.2-.92.31-.95,1.89-.6,1.73-2.14,1.72-3.63,0-2.94.03-5.88-.03-8.82,0-.71.5-1.75-.83-1.99-1.98-.36-3.41.13-3.87,1.41-.16.45-.24.92-.48,1.85-1.11-1.56-.63-2.94-.58-4.17,0-.27,1.09-.7,1.69-.71,4.16-.06,8.31-.03,12.65-.03.08,1.47.15,2.87.24,4.7-.47-.38-.97-.58-1.07-.9-.57-1.87-2.03-2.72-3.91-2.07-.32.11-.65.72-.66,1.1-.05,3.83-.06,7.66,0,11.49,0,.48.53.96.83,1.43.19.3.41.57.62.86-.31.15-.61.44-.93.44-1.85.04-3.7.02-5.72.02l.02-.03Z"/>
        <path class="cls-1" d="M347.3,117.12c-.03.39.01.76-.06.78-1.8.54-1.31,2.01-1.32,3.24-.03,3.21,0,6.42-.01,9.64,0,.89-.12,1.79.98,2.22.21.08.35.51.37.79,0,.11-.4.35-.62.36-1.66.03-3.32.04-4.98,0-.25,0-.49-.31-.74-.47.17-.25.37-.49.52-.75.33-.61.9-1.24.91-1.87.09-3.71.05-7.42.04-11.13,0-.76.16-1.62-1.01-1.75-.17-.02-.3-.36-.45-.56.23-.17.46-.47.7-.48,1.86-.04,3.73-.02,5.67-.02Z"/>
        <path class="cls-1" d="M23.85,100.54c9.98-5.01,13.9-13.83,15.49-24.41-5.04.85-9.79,2.18-14.2,4.67-4.55,2.57-7.61,6.44-10.16,10.96V23.19c2.49,4.96,5.6,8.81,10.1,11.47,4.4,2.6,9.18,3.79,14.17,4.59-1.2-9.18-4.65-18.86-15.89-24.28h69.13c-10.66,4.86-14.49,13.74-16.24,24.29,10.5-1.55,19.19-5.41,24.29-15.18v67.86c-2.42-4.83-5.58-8.57-9.93-11.09-4.32-2.5-9.01-4.02-14.34-4.65,1.63,10.6,5.67,19.28,15.6,24.33H23.85ZM36.77,71.39c4.4,0,8.56-.08,12.71.04,1.62.05,3.29.36,4.81.89,2.46.86,4.76,1.01,7.21-.09,1.26-.56,2.77-.77,4.17-.81,3.61-.11,7.22-.04,10.83-.04h2.57v-5.49c.69-.03,1.23-.08,1.77-.08,1.67-.01,3.35.15,4.99-.08.76-.11,1.67-.82,2.05-1.51.56-1.03-.34-1.77-1.19-2.22-.5-.27-1.16-.34-1.74-.35-1.92-.04-3.84-.02-5.77-.02v-7.8h2.08c1.44,0,2.89.07,4.33-.04,1.5-.11,2.58-1.14,2.4-2.23-.23-1.42-1.08-2.02-2.57-1.95-2.08.1-4.17.03-6.32.03-.15-2.27.82-4.97-3.03-5.03v24.06c-3.36,0-6.42-.12-9.46.04-2.06.11-4.2.33-6.13,1.01-1.8.64-3.41.67-5.12.08-.78-.27-1.54-.76-2.32-.79-3.76-.18-7.52-.24-11.28-.33-.75-.02-1.5,0-2.38,0v-24.5c-.89.43-1.99.61-2.16,1.11-.45,1.31-.49,2.75-.73,4.35-.89,0-1.82,0-2.75,0-1.23-.02-2.38.13-3.44-1.02-.97-1.05-2.35-.57-3.18.53-.63.84-1,1.87-2.16,2.18.59.78,1.17,1.58,1.79,2.35.85,1.05,1.96,2.04,3.24,1.1,2.11-1.55,4.33-.7,6.59-.92v7.82c-2.35-.35-4.66.7-6.7-1.02-.39-.33-1.57-.29-1.98.06-1.12.97-2.02,2.19-2.85,3.12.69.84,1.33,1.6,1.95,2.38.87,1.08,1.96,1.7,3.12.67,1.99-1.77,4.24-.83,6.65-1.09v5.59h0ZM56.37,66.42c-.12.31-.05.21-.05.11,0-6.93.07-13.87-.03-20.8,0-.82-.76-1.93-1.49-2.37-1.03-.62-2.39-1.08-3.57-1-2.93.18-5.85.69-8.81,1.08v22.98h13.95ZM73.16,43.72c-2.79-.48-5.38-.91-7.96-1.38-3.19-.58-5.96,1.67-5.96,4.89v19.91c4.67-1.92,9.33-.48,13.92-1.19,0,0,0-22.23,0-22.23Z"/>
        <path class="cls-1" d="M30.16,63.16h-2.25c-.1-.11-.2-.23-.29-.34.43-.42.87-1.19,1.3-1.18.51,0,1.02.67,1.53,1.04-.1.16-.19.32-.29.48Z"/>
        <path class="cls-1" d="M30.16,50.87h-2.28c-.08-.13-.16-.26-.25-.39.45-.3.88-.82,1.34-.84.47-.02.96.45,1.44.7-.09.18-.17.35-.26.53h.01Z"/>
        <path class="cls-1" d="M30.25,52.51c-.85,1.64-1.44,1.65-2.55,0h2.55Z"/>
        <path class="cls-1" d="M27.85,64.76h2.33c.06.12.12.25.18.37-.43.27-.85.75-1.28.76-.46,0-.94-.42-1.41-.66.06-.16.12-.31.18-.47Z"/>
      </g>
    </g>
  </g>
</svg>